<svg width="643" height="983" viewBox="0 0 643 983" fill="none" xmlns="http://www.w3.org/2000/svg">
<mask id="path-1-outside-1_1_274" maskUnits="userSpaceOnUse" x="0" y="0" width="643" height="983" fill="black">
<rect fill="white" width="643" height="983"/>
<path d="M214.62 2.47934L213.178 1.05435C196.744 -0.00459707 177.055 14.6304 166.397 25.7606L164.862 27.4166C134.06 59.4045 121.888 97.5776 118.442 140.82L118.272 142.989C118.16 144.373 118.048 145.757 117.937 147.141C117.845 148.383 117.75 149.626 117.649 150.867C116.136 166.701 106.566 178.892 94.6887 188.818C88.1761 194.247 80.8026 199.993 78.3248 208.39C77.4345 215.956 78.6435 221.159 82.6066 227.494C84.6435 230.721 85.9818 233.971 87.2208 237.563C89 241 93.011 242.909 90.3671 245.821C88.9071 247.349 86.9127 248.37 85.5743 250.004C82.0837 254.354 78.3806 258.409 74.4093 262.328C73.3465 263.369 72.2847 264.411 71.2303 265.46C67.5502 269.128 63.8201 272.658 59.7611 275.924L59.6411 276.019C57.8803 277.409 56.1247 278.795 54.4149 280.247L53.0061 281.479C52.1298 282.245 51.2547 283.012 50.3807 283.781C47.1218 286.676 43.9858 289.009 40.1044 291.039L38.6622 286.764C37.0368 286.283 37.0368 286.283 35.0565 286.052C30.9 288.244 28.1638 292.267 25.9464 296.252L24.9605 298.164C18.9808 309.326 16.6981 323.381 17.6107 335.904C18.9884 350.319 27.9564 363.879 39.0143 373.037C45.2169 377.809 52.2483 381.593 60.2963 380.814C61.0175 378.676 61.0175 378.676 60.9104 376.436C60.7449 373.787 60.6958 371.337 61.0175 368.701C62.0601 367.07 63.0133 366.235 64.6091 365.15L66.0655 364.426L67.7556 363.466C69.7559 362.78 69.7559 362.78 71.8712 363.928C76.2514 366.597 79.6248 368.601 84.8151 368.701C84.3899 366.407 84.0699 364.152 83.8658 361.827L83.6883 359.172C83.5812 357.598 83.4754 356.025 83.3728 354.451C84.575 354.215 85.7768 353.977 86.9785 353.739C88.6404 353.359 90.236 353.07 91.9335 352.898C93.7063 352.887 93.7063 352.887 95.3167 354.763C96.3086 356.208 97.2709 357.52 98.4463 358.832L99.959 360.374C102.048 362.559 103.411 363.354 106.449 363.714C106.521 361.999 106.594 360.284 106.67 358.569L106.765 356.455L106.851 354.383L106.942 352.372L107.022 350.529C107.235 347.973 107.064 345.897 109.121 344.138L110.748 343.266L112.604 342.236C119.249 338.669 125.656 334.796 131.929 330.626C132.734 330.09 133.539 329.555 134.345 329.021C137.77 326.749 141.189 324.468 144.603 322.18C154.61 315.472 164.506 308.199 175.51 303.158L177.121 302.439C186.88 298.082 196.729 294.154 207.104 291.479L208.851 291.039C219.112 288.404 229.249 287.364 239.86 288.189C245.438 289.382 251.189 291.856 254.5 296.5C250.351 295.444 244.926 294.433 240.643 294.442L238.688 294.468C215.176 294.485 191.693 303.573 171.352 314.552C171.397 316.377 171.432 318.203 171.457 320.029L171.487 322.3C171.629 327.973 171.186 332.714 169.188 338.064C164.508 338.227 159.5 338.8 155.081 337.04C152.724 335.981 150.815 335.576 148.275 335.214C148.204 337.136 148.13 339.058 148.054 340.979L147.96 343.363C147.768 348.518 147.482 353.606 146.833 358.726C141.261 357.849 135.895 357.109 130.247 357.301C130.125 360.556 130.266 363.421 130.968 366.608C131.618 369.534 131.821 372.125 131.689 375.114C130.103 376.018 128.569 376.613 126.821 377.162C124.382 377.255 123.743 377.017 121.683 375.915C119.334 374.478 119.334 374.478 112.94 373.689L112.94 373.689L112.218 385.801C106.941 387.105 103.533 387.116 98.697 384.421C96.1925 382.89 94.2354 381.937 91.3053 381.526C89.2053 385.546 89.3924 389.613 90.4631 393.908C95.2832 408.673 106.206 420.23 119.486 428.155C132.162 434.819 149.168 439.665 163.419 435.676C163.96 434.072 163.96 434.072 164.14 432.113L163.014 430.866C161.273 429.364 161.273 429.364 160.098 427.81L158.912 426.146C157.014 423.518 156.723 421.794 156.929 418.576C158.47 418.504 160.012 418.432 161.553 418.357L163.464 418.264C172.317 417.858 180.213 416.517 188.401 413.078C194.232 410.552 203.449 407.693 205.967 401.476C204.387 400.64 202.868 399.98 201.166 399.414C199.111 398.758 197.128 398.058 195.149 397.201C192.91 395.245 192.355 394.368 191.994 391.456C198.235 378.057 198.235 378.057 209.685 367.78L211.015 366.564C224.802 353.95 242.099 339.006 261.819 338.434L263.613 338.42C268.146 338.383 272.581 338.751 276.638 340.914C278.771 343.665 279.061 346.189 279.066 349.545L279.027 351.112L279.026 351.152C278.967 354.85 278.909 358.472 277.892 362.055L277.359 363.714C271.602 384.082 259.398 399.731 243.077 412.995C241.777 414.045 240.479 415.098 239.188 416.159C231.848 422.212 224.383 428.086 216.808 433.848C215.891 434.545 214.974 435.243 214.058 435.942L213.232 436.572C210.332 438.785 207.432 440.998 204.504 443.176C200.06 446.475 195.517 449.685 191.392 453.374L189.38 455.225C188.177 456.306 186.975 457.39 185.775 458.475C184.416 459.868 184.416 459.868 182.98 461.058L182.98 461.058C168.336 464.233 168.336 464.233 152.963 461.682C144.608 460.846 136.322 460.402 127.922 460.391L126.19 460.39C118.277 460.357 110.663 460.77 102.844 462.038C73.3394 467.165 50.6241 484.564 33.6226 508.381L32.1719 510.487C23.4678 523.029 16.6601 537.034 11.8381 551.47L11.2589 553.237C8.59182 561.305 6.29803 569.395 4.64782 577.729L4.18267 580.178C1.88866 592.221 0.966524 604.084 1.00093 616.329C1.01461 618.639 1.0277 620.95 1.02927 623.26C1.02915 624.8 1.03086 626.34 1.03449 627.88L1.04177 630.097C1.10595 684.54 26.3636 738.132 57.2509 782.122L58.1329 783.373C65.897 794.453 73.9686 805.244 82.6291 815.657C83.3585 816.533 84.0872 817.408 84.8151 818.285C88.1215 822.337 91.4523 826.326 95.0012 830.175L95.3969 830.599C96.8566 832.163 98.3137 833.725 99.7139 835.343C102.213 838.266 104.848 841.068 107.526 843.831L108.973 845.315L110.348 846.774C113.314 849.771 115.144 850.978 119.43 851.06L119.446 850.981C120.06 847.986 120.675 844.99 121.236 841.985C123.251 831.095 125.246 817.933 132.41 809.022C134.569 814.461 136.852 819.845 139.19 825.211L139.802 826.612C143.027 833.996 146.346 841.247 150.439 848.21C153.136 852.56 154.568 855.146 154.044 860.322C153.592 862.33 153.313 864.145 153.228 866.208L153.233 868.649C153.23 870.149 153.253 871.649 153.323 873.147C156.32 879.069 156.32 879.069 181.332 897.327C182.881 898.453 184.428 899.579 185.972 900.711C209.304 917.841 233.483 933.489 258.351 948.348C261.907 950.473 265.46 952.603 269.01 954.739C272.448 956.807 275.889 958.872 279.334 960.931C281.417 962.176 283.499 963.42 285.572 964.681C292.2 968.723 299.029 972.302 305.982 975.764L307.467 976.503C308.893 977.216 310.32 977.928 311.751 978.632L313.09 979.289C314.623 980.044 316.173 980.769 317.743 981.446C320.629 982.456 322.261 982.009 325.01 980.717L326.366 980.04C330.817 977.899 335.193 975.626 339.526 973.259C340.808 972.55 342.091 971.842 343.375 971.136C346.158 969.609 348.936 968.073 351.711 966.532L353.079 965.771C386.375 947.265 418.71 927.22 449.561 904.937L451.154 903.784C457.178 899.43 463.102 895.012 468.76 890.199C470.53 888.69 472.309 887.204 474.132 885.757C475.444 884.725 476.746 883.678 478.036 882.618L480 880.984C482.274 879.191 484.389 877.361 486.442 875.318C489.073 871.485 488.64 867.597 487.932 863.172C486.813 859.308 486.606 855.957 488.27 852.284C489.031 851.093 489.79 849.901 490.528 848.696L491.343 847.35C498.389 835.834 503.695 822.953 507.997 810.222L508.845 807.597H510.287C510.287 809.022 510.287 809.022 511.107 810.475C516.988 820.165 518.762 830.453 520.383 841.45L520.6 842.946C520.742 843.89 520.882 844.833 521.023 845.777C521.405 848.46 521.321 849.849 523.268 851.772C525.985 851.477 525.985 851.477 529.41 848.066L530.615 846.829C533.993 843.423 537.291 839.956 540.491 836.384C541.547 835.2 542.61 834.022 543.68 832.849C546.532 829.732 549.378 826.61 552.167 823.436L553.556 821.847C558.627 816.088 563.419 810.187 568.01 804.046C569.043 802.658 570.078 801.27 571.121 799.889C579.558 788.759 587.596 777.306 594.807 765.36C595.859 763.604 596.914 761.85 597.981 760.102C604.492 749.432 610.423 738.535 615.881 727.303L617.016 724.948C625.641 707.087 632.138 688.094 636.063 668.682L636.487 666.524C637.462 661.584 638.33 656.639 639.056 651.657L639.371 649.424C646.539 599.519 639.859 544.114 609.239 502.404L608.362 501.225L608.233 501.05C604.94 496.584 601.637 492.105 597.557 488.3L596.103 486.975C579.661 471.269 561.578 462.226 539.341 457.201C525.396 454.058 511.214 451.314 502.761 438.704C496.594 427.399 497.769 412.693 500.442 400.51C501.191 397.142 501.897 393.773 502.54 390.384L502.848 388.748C503.271 386.505 503.693 384.26 504.113 382.016C505.262 375.84 506.425 369.666 507.783 363.531L508.149 361.902C508.539 360.071 508.986 358.379 509.566 356.589C511.496 355.058 511.496 355.058 513.158 355.08L514.75 355.253C520.703 355.783 524.683 359.092 528.598 363.282L530.119 364.961C531.604 366.56 533.088 368.16 534.56 369.772L535.527 370.839L538.412 370.126C538.891 341.977 527.366 309.041 510.91 286.035C507.312 281.309 503.165 276.195 502.065 270.23C502.018 267.802 502.39 265.581 503.887 263.608C507.228 260.968 510.694 260.131 514.872 260.07L516.552 260.09C521.808 260.106 526.745 260.772 531.877 261.872L533.725 262.3L535.457 262.698C537.683 263.244 539.1 263.222 541.296 262.54C541.764 261.334 541.764 261.334 542.018 259.69C537.621 248.376 527.453 236.278 518.623 227.911C517.613 226.976 516.604 226.038 515.606 225.09C496.19 206.618 474.215 194.024 449.246 184.121L447.34 183.367C446.117 182.875 444.895 182.385 443.672 181.894C442.581 181.477 441.494 181.052 440.41 180.617C436.171 178.754 432.052 175.656 430.241 171.34C429.967 168.196 429.892 166.87 431.683 164.215C437.079 157.885 444.605 156.404 452.477 155.074C454.009 154.817 455.54 154.553 457.071 154.286C458.05 154.112 459.029 153.938 460.008 153.765L460.11 153.747C462.942 153.268 464.594 152.988 467.019 151.391C464.623 148.724 462.347 147.083 459.106 145.524L457.419 144.755C435.827 134.87 412.655 129.949 388.864 132.324C385.828 132.731 382.89 132.992 379.829 133.033L378.139 133.044C375.155 133.121 372.712 133.362 370.071 131.878C368.148 129.916 366.979 128.36 366.522 125.602C372.319 106.987 372.319 106.987 386.057 91.6218C386.843 90.645 387.629 89.6681 388.415 88.6911C392.598 83.4104 397.074 78.4874 401.739 73.6228L401.852 73.5052C403.812 71.4633 405.77 69.424 407.657 67.3163C409.958 64.7325 412.217 62.2451 414.872 60.0132C417.271 58.0182 419.484 55.8882 421.691 53.6912C424.763 50.6216 427.793 47.5221 431.097 44.6946C432.651 43.3951 434.175 42.0827 435.678 40.7258C439.527 37.2225 443.437 33.8432 447.509 30.595C448.667 29.6732 449.824 28.7507 450.976 27.8209C451.891 27.0797 452.806 26.339 453.722 25.5987L455.165 24.4331C457.758 22.3348 460.356 20.2507 463.024 18.2471L464.85 16.8934C466.038 16.0063 467.227 15.1203 468.416 14.2355L470.138 12.9937L471.726 11.8086C473.532 10.4918 474.135 9.91477 474.794 7.76512V7.76475C474.952 6.04181 474.952 6.04172 474.208 4.76433C472.788 3.90433 472.788 3.90433 470.647 3.64549L468.101 3.68167C440.91 3.77243 410.837 17.8811 387.455 30.6343L385.53 31.6916C371.154 39.5365 357.394 48.1009 344.024 57.524L342.262 58.7663C335.028 63.8316 327.926 68.9904 321.045 74.5164C319.354 75.8741 317.651 77.2118 315.929 78.5297C311.454 81.9525 307.088 85.4575 302.825 89.1364C300.384 91.2502 297.947 93.3582 295.436 95.3902C291.769 98.2979 288.237 101.292 284.796 104.455C282.854 106.255 278.513 111.638 276.5 113.361C238.722 111.615 208.896 117.816 179.5 139.5C180.092 137.147 185.318 123.775 184.482 121.516C183.625 119.363 183.118 117.282 182.71 115.007L182.439 113.361C176.639 79.0658 187.32 43.7865 207.292 15.7659C208.145 14.5705 208.992 13.3706 209.834 12.1676L211.42 9.87146C213.145 7.42326 214.406 5.50149 214.62 2.47934Z"/>
</mask>
<path d="M214.62 2.47934L213.178 1.05435C196.744 -0.00459707 177.055 14.6304 166.397 25.7606L164.862 27.4166C134.06 59.4045 121.888 97.5776 118.442 140.82L118.272 142.989C118.16 144.373 118.048 145.757 117.937 147.141C117.845 148.383 117.75 149.626 117.649 150.867C116.136 166.701 106.566 178.892 94.6887 188.818C88.1761 194.247 80.8026 199.993 78.3248 208.39C77.4345 215.956 78.6435 221.159 82.6066 227.494C84.6435 230.721 85.9818 233.971 87.2208 237.563C89 241 93.011 242.909 90.3671 245.821C88.9071 247.349 86.9127 248.37 85.5743 250.004C82.0837 254.354 78.3806 258.409 74.4093 262.328C73.3465 263.369 72.2847 264.411 71.2303 265.46C67.5502 269.128 63.8201 272.658 59.7611 275.924L59.6411 276.019C57.8803 277.409 56.1247 278.795 54.4149 280.247L53.0061 281.479C52.1298 282.245 51.2547 283.012 50.3807 283.781C47.1218 286.676 43.9858 289.009 40.1044 291.039L38.6622 286.764C37.0368 286.283 37.0368 286.283 35.0565 286.052C30.9 288.244 28.1638 292.267 25.9464 296.252L24.9605 298.164C18.9808 309.326 16.6981 323.381 17.6107 335.904C18.9884 350.319 27.9564 363.879 39.0143 373.037C45.2169 377.809 52.2483 381.593 60.2963 380.814C61.0175 378.676 61.0175 378.676 60.9104 376.436C60.7449 373.787 60.6958 371.337 61.0175 368.701C62.0601 367.07 63.0133 366.235 64.6091 365.15L66.0655 364.426L67.7556 363.466C69.7559 362.78 69.7559 362.78 71.8712 363.928C76.2514 366.597 79.6248 368.601 84.8151 368.701C84.3899 366.407 84.0699 364.152 83.8658 361.827L83.6883 359.172C83.5812 357.598 83.4754 356.025 83.3728 354.451C84.575 354.215 85.7768 353.977 86.9785 353.739C88.6404 353.359 90.236 353.07 91.9335 352.898C93.7063 352.887 93.7063 352.887 95.3167 354.763C96.3086 356.208 97.2709 357.52 98.4463 358.832L99.959 360.374C102.048 362.559 103.411 363.354 106.449 363.714C106.521 361.999 106.594 360.284 106.67 358.569L106.765 356.455L106.851 354.383L106.942 352.372L107.022 350.529C107.235 347.973 107.064 345.897 109.121 344.138L110.748 343.266L112.604 342.236C119.249 338.669 125.656 334.796 131.929 330.626C132.734 330.09 133.539 329.555 134.345 329.021C137.77 326.749 141.189 324.468 144.603 322.18C154.61 315.472 164.506 308.199 175.51 303.158L177.121 302.439C186.88 298.082 196.729 294.154 207.104 291.479L208.851 291.039C219.112 288.404 229.249 287.364 239.86 288.189C245.438 289.382 251.189 291.856 254.5 296.5C250.351 295.444 244.926 294.433 240.643 294.442L238.688 294.468C215.176 294.485 191.693 303.573 171.352 314.552C171.397 316.377 171.432 318.203 171.457 320.029L171.487 322.3C171.629 327.973 171.186 332.714 169.188 338.064C164.508 338.227 159.5 338.8 155.081 337.04C152.724 335.981 150.815 335.576 148.275 335.214C148.204 337.136 148.13 339.058 148.054 340.979L147.96 343.363C147.768 348.518 147.482 353.606 146.833 358.726C141.261 357.849 135.895 357.109 130.247 357.301C130.125 360.556 130.266 363.421 130.968 366.608C131.618 369.534 131.821 372.125 131.689 375.114C130.103 376.018 128.569 376.613 126.821 377.162C124.382 377.255 123.743 377.017 121.683 375.915C119.334 374.478 119.334 374.478 112.94 373.689L112.94 373.689L112.218 385.801C106.941 387.105 103.533 387.116 98.697 384.421C96.1925 382.89 94.2354 381.937 91.3053 381.526C89.2053 385.546 89.3924 389.613 90.4631 393.908C95.2832 408.673 106.206 420.23 119.486 428.155C132.162 434.819 149.168 439.665 163.419 435.676C163.96 434.072 163.96 434.072 164.14 432.113L163.014 430.866C161.273 429.364 161.273 429.364 160.098 427.81L158.912 426.146C157.014 423.518 156.723 421.794 156.929 418.576C158.47 418.504 160.012 418.432 161.553 418.357L163.464 418.264C172.317 417.858 180.213 416.517 188.401 413.078C194.232 410.552 203.449 407.693 205.967 401.476C204.387 400.64 202.868 399.98 201.166 399.414C199.111 398.758 197.128 398.058 195.149 397.201C192.91 395.245 192.355 394.368 191.994 391.456C198.235 378.057 198.235 378.057 209.685 367.78L211.015 366.564C224.802 353.95 242.099 339.006 261.819 338.434L263.613 338.42C268.146 338.383 272.581 338.751 276.638 340.914C278.771 343.665 279.061 346.189 279.066 349.545L279.027 351.112L279.026 351.152C278.967 354.85 278.909 358.472 277.892 362.055L277.359 363.714C271.602 384.082 259.398 399.731 243.077 412.995C241.777 414.045 240.479 415.098 239.188 416.159C231.848 422.212 224.383 428.086 216.808 433.848C215.891 434.545 214.974 435.243 214.058 435.942L213.232 436.572C210.332 438.785 207.432 440.998 204.504 443.176C200.06 446.475 195.517 449.685 191.392 453.374L189.38 455.225C188.177 456.306 186.975 457.39 185.775 458.475C184.416 459.868 184.416 459.868 182.98 461.058L182.98 461.058C168.336 464.233 168.336 464.233 152.963 461.682C144.608 460.846 136.322 460.402 127.922 460.391L126.19 460.39C118.277 460.357 110.663 460.77 102.844 462.038C73.3394 467.165 50.6241 484.564 33.6226 508.381L32.1719 510.487C23.4678 523.029 16.6601 537.034 11.8381 551.47L11.2589 553.237C8.59182 561.305 6.29803 569.395 4.64782 577.729L4.18267 580.178C1.88866 592.221 0.966524 604.084 1.00093 616.329C1.01461 618.639 1.0277 620.95 1.02927 623.26C1.02915 624.8 1.03086 626.34 1.03449 627.88L1.04177 630.097C1.10595 684.54 26.3636 738.132 57.2509 782.122L58.1329 783.373C65.897 794.453 73.9686 805.244 82.6291 815.657C83.3585 816.533 84.0872 817.408 84.8151 818.285C88.1215 822.337 91.4523 826.326 95.0012 830.175L95.3969 830.599C96.8566 832.163 98.3137 833.725 99.7139 835.343C102.213 838.266 104.848 841.068 107.526 843.831L108.973 845.315L110.348 846.774C113.314 849.771 115.144 850.978 119.43 851.06L119.446 850.981C120.06 847.986 120.675 844.99 121.236 841.985C123.251 831.095 125.246 817.933 132.41 809.022C134.569 814.461 136.852 819.845 139.19 825.211L139.802 826.612C143.027 833.996 146.346 841.247 150.439 848.21C153.136 852.56 154.568 855.146 154.044 860.322C153.592 862.33 153.313 864.145 153.228 866.208L153.233 868.649C153.23 870.149 153.253 871.649 153.323 873.147C156.32 879.069 156.32 879.069 181.332 897.327C182.881 898.453 184.428 899.579 185.972 900.711C209.304 917.841 233.483 933.489 258.351 948.348C261.907 950.473 265.46 952.603 269.01 954.739C272.448 956.807 275.889 958.872 279.334 960.931C281.417 962.176 283.499 963.42 285.572 964.681C292.2 968.723 299.029 972.302 305.982 975.764L307.467 976.503C308.893 977.216 310.32 977.928 311.751 978.632L313.09 979.289C314.623 980.044 316.173 980.769 317.743 981.446C320.629 982.456 322.261 982.009 325.01 980.717L326.366 980.04C330.817 977.899 335.193 975.626 339.526 973.259C340.808 972.55 342.091 971.842 343.375 971.136C346.158 969.609 348.936 968.073 351.711 966.532L353.079 965.771C386.375 947.265 418.71 927.22 449.561 904.937L451.154 903.784C457.178 899.43 463.102 895.012 468.76 890.199C470.53 888.69 472.309 887.204 474.132 885.757C475.444 884.725 476.746 883.678 478.036 882.618L480 880.984C482.274 879.191 484.389 877.361 486.442 875.318C489.073 871.485 488.64 867.597 487.932 863.172C486.813 859.308 486.606 855.957 488.27 852.284C489.031 851.093 489.79 849.901 490.528 848.696L491.343 847.35C498.389 835.834 503.695 822.953 507.997 810.222L508.845 807.597H510.287C510.287 809.022 510.287 809.022 511.107 810.475C516.988 820.165 518.762 830.453 520.383 841.45L520.6 842.946C520.742 843.89 520.882 844.833 521.023 845.777C521.405 848.46 521.321 849.849 523.268 851.772C525.985 851.477 525.985 851.477 529.41 848.066L530.615 846.829C533.993 843.423 537.291 839.956 540.491 836.384C541.547 835.2 542.61 834.022 543.68 832.849C546.532 829.732 549.378 826.61 552.167 823.436L553.556 821.847C558.627 816.088 563.419 810.187 568.01 804.046C569.043 802.658 570.078 801.27 571.121 799.889C579.558 788.759 587.596 777.306 594.807 765.36C595.859 763.604 596.914 761.85 597.981 760.102C604.492 749.432 610.423 738.535 615.881 727.303L617.016 724.948C625.641 707.087 632.138 688.094 636.063 668.682L636.487 666.524C637.462 661.584 638.33 656.639 639.056 651.657L639.371 649.424C646.539 599.519 639.859 544.114 609.239 502.404L608.362 501.225L608.233 501.05C604.94 496.584 601.637 492.105 597.557 488.3L596.103 486.975C579.661 471.269 561.578 462.226 539.341 457.201C525.396 454.058 511.214 451.314 502.761 438.704C496.594 427.399 497.769 412.693 500.442 400.51C501.191 397.142 501.897 393.773 502.54 390.384L502.848 388.748C503.271 386.505 503.693 384.26 504.113 382.016C505.262 375.84 506.425 369.666 507.783 363.531L508.149 361.902C508.539 360.071 508.986 358.379 509.566 356.589C511.496 355.058 511.496 355.058 513.158 355.08L514.75 355.253C520.703 355.783 524.683 359.092 528.598 363.282L530.119 364.961C531.604 366.56 533.088 368.16 534.56 369.772L535.527 370.839L538.412 370.126C538.891 341.977 527.366 309.041 510.91 286.035C507.312 281.309 503.165 276.195 502.065 270.23C502.018 267.802 502.39 265.581 503.887 263.608C507.228 260.968 510.694 260.131 514.872 260.07L516.552 260.09C521.808 260.106 526.745 260.772 531.877 261.872L533.725 262.3L535.457 262.698C537.683 263.244 539.1 263.222 541.296 262.54C541.764 261.334 541.764 261.334 542.018 259.69C537.621 248.376 527.453 236.278 518.623 227.911C517.613 226.976 516.604 226.038 515.606 225.09C496.19 206.618 474.215 194.024 449.246 184.121L447.34 183.367C446.117 182.875 444.895 182.385 443.672 181.894C442.581 181.477 441.494 181.052 440.41 180.617C436.171 178.754 432.052 175.656 430.241 171.34C429.967 168.196 429.892 166.87 431.683 164.215C437.079 157.885 444.605 156.404 452.477 155.074C454.009 154.817 455.54 154.553 457.071 154.286C458.05 154.112 459.029 153.938 460.008 153.765L460.11 153.747C462.942 153.268 464.594 152.988 467.019 151.391C464.623 148.724 462.347 147.083 459.106 145.524L457.419 144.755C435.827 134.87 412.655 129.949 388.864 132.324C385.828 132.731 382.89 132.992 379.829 133.033L378.139 133.044C375.155 133.121 372.712 133.362 370.071 131.878C368.148 129.916 366.979 128.36 366.522 125.602C372.319 106.987 372.319 106.987 386.057 91.6218C386.843 90.645 387.629 89.6681 388.415 88.6911C392.598 83.4104 397.074 78.4874 401.739 73.6228L401.852 73.5052C403.812 71.4633 405.77 69.424 407.657 67.3163C409.958 64.7325 412.217 62.2451 414.872 60.0132C417.271 58.0182 419.484 55.8882 421.691 53.6912C424.763 50.6216 427.793 47.5221 431.097 44.6946C432.651 43.3951 434.175 42.0827 435.678 40.7258C439.527 37.2225 443.437 33.8432 447.509 30.595C448.667 29.6732 449.824 28.7507 450.976 27.8209C451.891 27.0797 452.806 26.339 453.722 25.5987L455.165 24.4331C457.758 22.3348 460.356 20.2507 463.024 18.2471L464.85 16.8934C466.038 16.0063 467.227 15.1203 468.416 14.2355L470.138 12.9937L471.726 11.8086C473.532 10.4918 474.135 9.91477 474.794 7.76512V7.76475C474.952 6.04181 474.952 6.04172 474.208 4.76433C472.788 3.90433 472.788 3.90433 470.647 3.64549L468.101 3.68167C440.91 3.77243 410.837 17.8811 387.455 30.6343L385.53 31.6916C371.154 39.5365 357.394 48.1009 344.024 57.524L342.262 58.7663C335.028 63.8316 327.926 68.9904 321.045 74.5164C319.354 75.8741 317.651 77.2118 315.929 78.5297C311.454 81.9525 307.088 85.4575 302.825 89.1364C300.384 91.2502 297.947 93.3582 295.436 95.3902C291.769 98.2979 288.237 101.292 284.796 104.455C282.854 106.255 278.513 111.638 276.5 113.361C238.722 111.615 208.896 117.816 179.5 139.5C180.092 137.147 185.318 123.775 184.482 121.516C183.625 119.363 183.118 117.282 182.71 115.007L182.439 113.361C176.639 79.0658 187.32 43.7865 207.292 15.7659C208.145 14.5705 208.992 13.3706 209.834 12.1676L211.42 9.87146C213.145 7.42326 214.406 5.50149 214.62 2.47934Z" stroke="black" stroke-width="2" mask="url(#path-1-outside-1_1_274)"/>
</svg>
