<svg width="207" height="154" viewBox="0 0 207 154" fill="none" xmlns="http://www.w3.org/2000/svg">
<path d="M32.3744 0.0248337C33.0992 0.0166386 33.8239 0.00844345 34.5706 0C39.6121 0.207563 39.6121 0.207563 41.5504 1.92121C42.4864 3.20118 42.4864 3.20118 43.288 4.51973C44.3013 6.14021 45.5347 6.8782 47.2081 7.7824C47.7228 8.06884 48.2375 8.35528 48.7677 8.6504C52.6614 10.5625 56.958 10.2779 61.1986 9.93939C62.8073 9.40129 64.1447 8.79299 65.5946 7.92904C66.7182 7.51751 66.7182 7.51751 67.783 7.87701C69.7397 9.07704 71.2737 10.6437 72.8821 12.2525C73.236 12.6021 73.5899 12.9518 73.9545 13.312C74.7028 14.0526 75.4497 14.7947 76.1951 15.5382C77.3221 16.6617 78.4537 17.7804 79.5863 18.8984C82.8293 22.11 86.0227 25.3244 89.0037 28.7775C91.1357 31.1672 93.4485 33.3886 95.734 35.634C96.4793 36.3733 96.4793 36.3733 97.2397 37.1275C97.7144 37.5954 98.1891 38.0633 98.6783 38.5454C99.107 38.968 99.5357 39.3906 99.9774 39.826C101.009 40.8629 101.009 40.8629 102.288 41.4238C102.698 51.9892 102.698 51.9892 98.9154 56.1821C98.5423 56.5489 98.1691 56.9157 97.7847 57.2937C95.8229 59.3858 95.1638 61.4173 95.2238 64.2968C95.9646 67.4257 98.6046 70.1397 101.115 72.0817C102.743 74.0682 102.637 75.8605 102.616 78.3077C102.621 78.7884 102.626 79.2691 102.632 79.7644C102.646 81.3517 102.641 82.9383 102.636 84.5256C102.639 85.6294 102.643 86.7333 102.647 87.8372C102.654 90.15 102.651 92.4626 102.642 94.7754C102.631 97.74 102.646 100.704 102.667 103.669C102.681 105.948 102.68 108.227 102.675 110.506C102.674 111.599 102.679 112.692 102.688 113.785C102.698 115.313 102.689 116.84 102.676 118.368C102.686 119.046 102.686 119.046 102.697 119.737C102.654 122.058 102.505 122.956 100.782 124.598C100.01 125.086 100.01 125.086 99.2221 125.584C97.7206 127.805 97.8653 129.56 98.247 132.126C98.8523 134.35 99.7328 135.244 101.675 136.482C103.609 136.901 105.263 136.924 107.195 136.482C108.885 135.161 109.915 134.138 110.874 132.244C111.211 128.793 110.635 127.058 108.421 124.373C107.814 123.973 107.207 123.574 106.581 123.162C106.417 121.542 106.37 120.062 106.404 118.442C106.406 117.955 106.409 117.467 106.412 116.965C106.418 115.904 106.428 114.843 106.442 113.782C106.462 112.099 106.467 110.416 106.468 108.733C106.471 103.948 106.489 99.1622 106.546 94.3767C106.579 91.4503 106.585 88.5249 106.575 85.5984C106.576 84.4858 106.587 83.3731 106.609 82.2608C106.898 76.0866 106.898 76.0866 104.763 70.4795C103.341 69.0347 103.341 69.0347 101.814 67.9328C100.265 66.7083 99.4854 65.5751 98.6088 63.8261C98.7081 61.3526 99.5926 60.1324 101.292 58.3769C104.266 55.2783 105.551 53.1052 105.7 48.7651C105.867 44.2209 106.21 40.8029 109.671 37.532C109.979 37.2553 110.288 36.9786 110.606 36.6935C112.86 34.7367 112.86 34.7367 114.554 32.3417C114.959 32.3417 115.364 32.3417 115.781 32.3417C115.937 31.9899 116.093 31.6381 116.253 31.2757C117.089 29.7735 118.015 28.7966 119.257 27.602C119.704 27.1673 120.151 26.7326 120.611 26.2847C121.079 25.8359 121.547 25.3871 122.028 24.9247C125.047 22.0148 127.962 19.0837 130.711 15.9237C132.287 14.1527 133.973 12.4999 135.674 10.8476C136.006 10.5229 136.337 10.1982 136.679 9.8637C137.48 9.0802 138.282 8.29864 139.085 7.51751C142.765 8.72845 142.765 8.72845 144.574 9.39541C149.351 10.7845 154.857 10.6335 159.302 8.32874C162.448 6.28376 165.052 4.24317 166.683 0.857353C169.312 0.751927 171.939 0.675377 174.57 0.624538C175.463 0.60333 176.356 0.574485 177.248 0.53762C184.593 0.242001 184.593 0.242002 187.113 1.64937C188.225 2.7305 189.096 3.83193 189.988 5.09563C190.655 5.90361 191.333 6.70293 192.022 7.49386C192.375 7.90186 192.729 8.30986 193.093 8.73022C194.384 10.0443 195.743 11.0534 197.249 12.12C201.588 15.3833 205.642 18.6259 206.466 24.225C207.095 30.956 206.527 37.7385 205.933 44.4511C201.076 44.4511 196.219 44.4511 191.214 44.4511C190.974 43.3522 190.734 42.2533 190.486 41.121C189.023 35.4293 186.355 31.4461 181.402 28.1034C177.088 25.9 172.152 25.4891 167.474 26.727C162.146 28.6696 158.846 31.5745 156.257 36.58C154.283 41.4983 154.402 46.8079 156.315 51.7215C158.319 56.0712 161.927 60.0038 166.558 61.7235C172.07 62.8909 177.734 62.4264 182.628 59.5878C183.243 58.9838 183.857 58.3786 184.468 57.7714C184.873 57.7714 185.278 57.7714 185.695 57.7714C185.858 57.4499 186.02 57.1283 186.188 56.797C188.395 52.4405 188.395 52.4405 190.601 48.0839C193.041 48.0664 195.482 48.0556 197.922 48.0461C198.619 48.041 199.316 48.0359 200.034 48.0307C200.696 48.0288 201.358 48.0268 202.04 48.0248C202.96 48.02 202.96 48.02 203.899 48.0152C205.32 48.0839 205.32 48.0839 205.933 48.6894C207.186 56.1473 207.966 64.8798 203.747 71.503C201.061 75.0226 197.975 78.1171 194.704 81.1027C193.772 81.9618 192.86 82.8385 191.951 83.7217C185.387 90.0543 178.994 95.7667 169.374 95.9315C165.308 95.7738 161.406 95.1748 157.484 94.0995C157.407 93.5621 157.33 93.0246 157.251 92.4709C157.146 91.7642 157.041 91.0576 156.933 90.3296C156.831 89.6298 156.728 88.93 156.623 88.2089C155.681 83.1072 153.089 80.1577 148.898 77.1464C144.348 74.5547 139.994 74.1933 134.792 74.7245C132.55 75.4706 130.643 76.4878 128.66 77.7519C128.09 78.1015 127.521 78.4512 126.935 78.8115C123.329 82.4725 121.295 87.3354 121.07 92.3967C121.182 97.4527 122.789 102.199 126.348 105.909C129.414 108.468 132.857 109.832 136.632 111.053C137.393 115.012 137.972 119.121 135.799 122.729C133.035 126.202 129.698 129.129 126.398 132.093C125.417 133.009 124.438 133.929 123.462 134.85C121.67 136.536 119.865 138.207 118.043 139.862C115.187 142.459 112.495 145.159 109.916 148.024C108.241 149.885 106.541 151.691 104.742 153.435C102.113 152.581 100.514 151.35 98.5122 149.481C98.2127 149.203 97.9131 148.925 97.6045 148.639C96.6198 147.721 95.6429 146.795 94.668 145.867C94.3325 145.548 93.997 145.229 93.6513 144.9C91.8754 143.205 90.1069 141.504 88.3428 139.798C86.8908 138.396 85.4249 137.012 83.9438 135.641C70.312 123.002 70.312 123.002 69.9807 116.978C70.1006 114.898 70.4285 113.056 71.0111 111.053C71.4787 110.864 71.9463 110.675 72.428 110.481C79.1489 107.723 82.8382 104.385 85.8832 97.9216C87.1327 92.4731 86.6524 87.4893 83.89 82.5956C81.4215 78.803 77.8732 76.3492 73.5313 74.9587C67.0101 73.7784 61.5675 74.9067 56.1007 78.4709C52.7354 81.9478 51.3437 85.3499 50.3776 90.0528C50.1406 91.1915 50.1406 91.1915 49.8989 92.3531C49.7825 92.9294 49.6662 93.5057 49.5463 94.0995C42.954 96.107 35.7354 97.0622 29.308 94.0995C23.6732 90.3444 18.9442 85.3992 14.2826 80.5522C13.9712 80.2288 13.6597 79.9055 13.3389 79.5724C1.01494 66.7316 1.01494 66.7316 1.03717 61.6833C1.03915 60.895 1.04113 60.1067 1.04316 59.2946C1.04829 58.4589 1.05348 57.6232 1.05873 56.7875C1.06181 55.9471 1.06461 55.1067 1.06712 54.2663C1.07437 52.2055 1.08537 50.1447 1.09706 48.0839C6.15663 48.0839 11.2162 48.0839 16.4291 48.0839C17.2386 50.082 18.0482 52.08 18.8822 54.1386C21.6098 58.3831 25.1952 60.4544 29.9213 62.0097C36.709 62.5351 41.3511 61.8318 46.6715 57.6201C50.0849 54.4986 51.7218 50.7759 52.1887 46.2486C52.414 40.2611 51.2139 35.8672 47.3567 31.1686C43.7508 27.7291 38.7609 26.1888 33.831 25.9843C28.1523 26.2315 23.9298 28.9182 20.1088 32.9472C17.7483 35.8169 17.2032 38.8744 16.6711 42.4786C16.4291 43.8456 16.4291 43.8456 15.8158 44.4511C14.7237 44.5039 13.6296 44.5159 12.5362 44.5102C11.8741 44.5083 11.212 44.5063 10.5299 44.5043C9.83298 44.4992 9.1361 44.4942 8.41811 44.4889C7.71886 44.4862 7.01961 44.4835 6.29917 44.4807C4.56511 44.4735 2.8311 44.4635 1.09706 44.4511C-0.607327 25.4498 -0.607328 25.4498 3.13095 20.5114C5.10575 18.4493 7.30584 16.7697 9.64916 15.1361C12.5797 12.9077 14.7612 9.94306 16.9178 7.00665C21.2981 1.42189 25.2249 0.0586689 32.3744 0.0248337Z" fill="black"/>
</svg>
