<svg width="546" height="835" viewBox="0 0 546 835" fill="none" xmlns="http://www.w3.org/2000/svg">
<path d="M181.06 0.514936C181.465 0.914546 181.87 1.31416 182.287 1.72587C182.105 4.29406 181.032 5.92716 179.566 8.00761C179.12 8.65151 178.675 9.29542 178.217 9.95883C177.5 10.9812 176.78 12.0008 176.054 13.0166C159.07 36.8282 149.987 66.8081 154.919 95.9519C154.995 96.4135 155.071 96.875 155.149 97.3505C155.496 99.2836 155.928 101.052 156.656 102.882C157.368 104.802 157.646 105.683 157.142 107.683C154.766 110.782 151.613 113.22 148.608 115.697C143.331 120.105 139.038 125.141 135.064 130.691C135.994 129.998 135.994 129.998 136.942 129.291C137.952 128.546 138.961 127.802 139.971 127.058C140.605 126.587 141.239 126.117 141.892 125.632C166.891 107.205 194.929 92.8784 227.057 94.3626C224.087 97.8885 220.901 101.143 217.62 104.386C217.07 104.931 216.519 105.477 215.952 106.039C214.79 107.189 213.628 108.338 212.465 109.486C210.993 110.939 209.525 112.397 208.058 113.856C206.636 115.268 205.209 116.676 203.783 118.085C203.266 118.599 202.749 119.114 202.216 119.645C199.084 122.725 195.835 125.559 192.383 128.286C190.406 129.849 188.493 131.475 186.58 133.113C199.488 128.114 209.493 119.874 219.084 110.105C220.105 109.095 221.127 108.086 222.15 107.077C222.998 106.234 223.845 105.391 224.692 104.547C225.646 103.599 226.6 102.651 227.555 101.704C228.026 101.233 228.498 100.763 228.984 100.278C231.563 97.7204 234.188 95.2647 236.96 92.9119C238.672 91.4475 240.315 89.9132 241.967 88.3836C244.893 85.6955 247.897 83.1514 251.015 80.6804C253.151 78.9536 255.223 77.1623 257.299 75.366C260.924 72.2398 264.638 69.2612 268.443 66.3526C269.908 65.2326 271.356 64.0958 272.794 62.9421C278.646 58.2462 284.686 53.8622 290.838 49.5579C291.332 49.2095 291.827 48.8611 292.336 48.5022C303.706 40.4946 315.408 33.2166 327.635 26.5501C328.175 26.2536 328.715 25.9571 329.271 25.6516C349.156 14.8141 374.732 2.82473 397.855 2.7476C398.927 2.73238 398.927 2.73238 400.021 2.71686C401.842 2.93681 401.842 2.93681 403.049 3.66763C403.682 4.75322 403.682 4.75322 403.547 6.21767C402.987 8.04442 402.474 8.53474 400.939 9.65373C400.493 9.98607 400.047 10.3184 399.588 10.6608C399.104 11.0091 398.621 11.3573 398.124 11.7161C397.112 12.468 396.101 13.2209 395.091 13.9748C394.578 14.3544 394.066 14.734 393.538 15.1251C391.269 16.8278 389.059 18.5988 386.855 20.3819C386.45 20.7088 386.045 21.0356 385.627 21.3724C384.849 22.0015 384.07 22.6309 383.292 23.2608C382.312 24.0509 381.328 24.8349 380.343 25.6182C376.88 28.3785 373.555 31.2502 370.282 34.2272C369.004 35.3803 367.707 36.4956 366.386 37.5999C363.576 40.0027 360.999 42.6366 358.387 45.2451C356.51 47.1121 354.628 48.9221 352.588 50.6175C350.33 52.5141 348.408 54.6279 346.452 56.8235C344.816 58.649 343.118 60.4142 341.419 62.1827C337.452 66.3167 333.645 70.5001 330.088 74.9876C329.419 75.8178 328.751 76.648 328.083 77.4781C316.399 90.5348 316.399 90.5348 311.469 106.354C311.858 108.698 312.852 110.02 314.487 111.687C316.734 112.949 318.811 112.744 321.349 112.678C321.823 112.675 322.297 112.672 322.786 112.669C325.389 112.634 327.888 112.412 330.47 112.067C350.703 110.048 370.409 114.229 388.771 122.63C389.245 122.846 389.718 123.062 390.206 123.284C392.962 124.609 394.898 126.003 396.935 128.269C394.848 129.643 393.435 129.87 390.973 130.286C390.14 130.434 389.308 130.582 388.475 130.73C387.173 130.956 385.871 131.18 384.568 131.399C377.873 132.529 371.473 133.788 366.885 139.167C365.361 141.423 365.425 142.55 365.658 145.222C367.198 148.889 370.701 151.522 374.306 153.105C375.228 153.474 376.153 153.836 377.08 154.19C378.12 154.607 379.16 155.024 380.2 155.442C380.735 155.653 381.27 155.865 381.821 156.083C403.055 164.498 421.743 175.2 438.256 190.898C439.104 191.703 439.962 192.5 440.821 193.295C448.331 200.405 456.977 210.686 460.717 220.3C460.501 221.698 460.501 221.698 460.103 222.722C458.235 223.302 457.03 223.321 455.137 222.857C454.651 222.745 454.165 222.634 453.664 222.519C453.146 222.398 452.627 222.278 452.092 222.154C447.728 221.22 443.529 220.654 439.06 220.641C438.353 220.632 438.353 220.632 437.631 220.623C434.078 220.675 431.131 221.386 428.289 223.63C427.016 225.306 426.7 227.194 426.739 229.257C427.675 234.326 431.202 238.672 434.262 242.688C448.256 262.238 458.058 290.227 457.65 314.148C456.841 314.348 456.031 314.547 455.197 314.753C454.926 314.454 454.654 314.155 454.374 313.847C453.123 312.477 451.86 311.118 450.598 309.758C450.171 309.287 449.744 308.817 449.304 308.332C445.974 304.771 442.59 301.959 437.527 301.509C437.08 301.46 436.634 301.412 436.173 301.362C434.76 301.343 434.76 301.343 433.119 302.644C432.626 304.165 432.245 305.603 431.914 307.159C431.811 307.616 431.708 308.073 431.602 308.543C430.447 313.757 429.458 319.003 428.481 324.252C428.124 326.159 427.765 328.066 427.405 329.973C427.319 330.431 427.233 330.89 427.144 331.363C426.597 334.243 425.996 337.106 425.36 339.968C423.086 350.321 422.087 362.817 427.331 372.424C434.52 383.14 446.581 385.472 458.441 388.143C477.352 392.413 492.73 400.098 506.713 413.445C507.121 413.816 507.529 414.188 507.949 414.57C511.464 417.846 514.301 421.71 517.139 425.554C517.384 425.885 517.63 426.215 517.884 426.556C543.925 462.001 549.605 509.083 543.51 551.492C543.377 552.431 543.377 552.431 543.241 553.389C542.624 557.623 541.886 561.825 541.057 566.023C540.938 566.628 540.819 567.233 540.696 567.857C537.358 584.353 531.833 600.493 524.498 615.671C524.179 616.332 523.861 616.992 523.533 617.673C518.891 627.217 513.847 636.477 508.309 645.545C507.403 647.03 506.506 648.52 505.611 650.013C499.478 660.164 492.642 669.897 485.467 679.355C484.58 680.529 483.7 681.708 482.821 682.888C478.917 688.106 474.842 693.121 470.529 698.015C469.945 698.683 469.945 698.683 469.348 699.365C466.977 702.062 464.556 704.715 462.13 707.364C461.221 708.361 460.316 709.362 459.418 710.368C456.697 713.403 453.893 716.35 451.019 719.244C450.681 719.591 450.343 719.938 449.994 720.295C447.082 723.194 447.082 723.194 444.771 723.445C443.116 721.81 443.187 720.63 442.862 718.35C442.743 717.548 442.623 716.746 442.503 715.944C442.442 715.525 442.381 715.105 442.318 714.673C440.939 705.328 439.431 696.585 434.429 688.351C433.732 687.117 433.732 687.117 433.732 685.906C433.328 685.906 432.923 685.906 432.506 685.906C432.268 686.642 432.03 687.378 431.785 688.136C428.126 698.954 423.613 709.901 417.622 719.686C417.393 720.064 417.164 720.441 416.929 720.83C416.301 721.854 415.655 722.868 415.008 723.88C413.593 727.001 413.768 729.849 414.721 733.132C415.322 736.892 415.691 740.197 413.453 743.453C411.707 745.19 409.909 746.745 407.974 748.269C407.423 748.727 406.872 749.185 406.305 749.657C405.208 750.558 404.101 751.447 402.984 752.325C401.435 753.555 399.921 754.817 398.416 756.099C393.604 760.19 388.566 763.943 383.443 767.644C382.996 767.967 382.549 768.291 382.088 768.624C355.852 787.56 328.353 804.594 300.037 820.32C299.461 820.64 299.461 820.64 298.874 820.966C296.514 822.276 294.151 823.581 291.784 824.879C290.692 825.479 289.602 826.081 288.511 826.683C284.826 828.694 281.105 830.626 277.319 832.446C276.939 832.635 276.558 832.825 276.166 833.021C273.828 834.118 272.44 834.499 269.986 833.64C268.651 833.065 267.333 832.449 266.029 831.807C265.465 831.531 265.465 831.531 264.89 831.249C263.674 830.65 262.46 830.046 261.247 829.44C260.83 829.232 260.413 829.025 259.984 828.812C254.071 825.869 248.264 822.829 242.627 819.393C240.864 818.322 239.093 817.264 237.322 816.207C234.392 814.457 231.466 812.703 228.542 810.944C225.523 809.129 222.501 807.319 219.477 805.514C198.329 792.887 177.766 779.59 157.924 765.033C156.611 764.071 155.295 763.113 153.978 762.157C132.707 746.641 132.707 746.641 130.158 741.609C130.098 740.336 130.078 739.061 130.081 737.787C130.08 737.102 130.078 736.418 130.077 735.712C130.149 733.959 130.387 732.417 130.771 730.71C131.217 726.312 129.999 724.114 127.705 720.417C124.224 714.5 121.401 708.338 118.659 702.064C118.487 701.671 118.315 701.278 118.138 700.873C116.15 696.314 114.209 691.738 112.373 687.117C106.28 694.688 104.583 705.873 102.87 715.127C102.389 717.704 101.861 720.271 101.334 722.839C97.6894 722.77 96.1332 721.745 93.6108 719.198C93.0319 718.584 93.0319 718.584 92.4413 717.958C92.0352 717.541 91.6291 717.125 91.2107 716.696C88.9332 714.348 86.6919 711.968 84.5668 709.483C83.2684 707.984 81.9126 706.542 80.5589 705.091C77.5409 701.82 74.7082 698.431 71.8963 694.988C71.2773 694.243 70.6576 693.499 70.0373 692.755C62.6721 683.906 55.8077 674.735 49.2049 665.32C48.9574 664.969 48.7099 664.618 48.4548 664.257C22.1873 626.875 0.707292 581.333 0.652711 535.068C0.65067 534.446 0.648619 533.825 0.646516 533.184C0.643432 531.875 0.641981 530.567 0.642081 529.258C0.640748 527.295 0.629609 525.331 0.617975 523.368C0.588718 512.962 1.37294 502.882 3.32384 492.648C3.51965 491.617 3.51965 491.617 3.71942 490.566C5.12281 483.484 7.07353 476.609 9.34166 469.753C9.50422 469.258 9.66678 468.762 9.83426 468.252C13.935 455.984 19.7245 444.082 27.1268 433.425C27.534 432.834 27.9411 432.243 28.3606 431.635C42.8192 411.396 62.137 396.61 87.2284 392.253C93.8783 391.175 100.353 390.825 107.083 390.853C107.569 390.853 108.055 390.853 108.556 390.853C115.699 390.863 122.746 391.241 129.851 391.951C142.925 394.119 142.925 394.119 155.379 391.421C156.6 390.41 156.6 390.41 157.756 389.226C158.776 388.303 159.798 387.383 160.822 386.463C161.387 385.944 161.951 385.425 162.533 384.891C166.041 381.756 169.905 379.028 173.684 376.225C176.41 374.198 179.108 372.136 181.809 370.077C182.588 369.483 183.368 368.89 184.147 368.298C190.59 363.401 196.938 358.409 203.18 353.266C204.278 352.364 205.382 351.47 206.488 350.578C220.368 339.306 230.746 326.007 235.642 308.699C235.792 308.233 235.941 307.768 236.095 307.289C236.964 304.233 237.01 301.144 237.061 297.989C237.072 297.55 237.082 297.111 237.094 296.658C237.089 293.806 236.843 291.662 235.029 289.324C231.579 287.485 227.807 287.172 223.952 287.204C223.448 287.208 222.945 287.212 222.426 287.216C205.656 287.702 190.946 300.401 179.221 311.12C178.847 311.461 178.474 311.803 178.09 312.154C168.353 320.887 168.353 320.887 163.045 332.274C163.352 334.748 163.824 335.494 165.728 337.156C167.411 337.884 169.097 338.479 170.845 339.036C172.293 339.517 173.584 340.078 174.928 340.788C172.787 346.072 164.948 348.501 159.989 350.648C153.026 353.571 146.311 354.71 138.782 355.055C137.978 355.094 137.978 355.094 137.157 355.134C135.846 355.198 134.535 355.259 133.224 355.32C133.049 358.055 133.297 359.52 134.911 361.753C135.244 362.219 135.577 362.686 135.92 363.167C136.919 364.487 136.919 364.487 138.399 365.764C138.715 366.114 139.031 366.463 139.357 366.824C139.204 368.489 139.204 368.489 138.744 369.851C126.624 373.241 112.162 369.123 101.382 363.46C90.0881 356.725 80.7988 346.905 76.6996 334.358C75.7891 330.707 75.6299 327.251 77.4159 323.835C79.9077 324.185 81.5721 324.995 83.702 326.295C87.8147 328.585 90.7127 328.576 95.201 327.468C95.4034 324.071 95.6058 320.675 95.8143 317.175C101.253 317.846 101.253 317.846 103.25 319.067C105.002 320.003 105.546 320.206 107.62 320.127C109.106 319.66 110.411 319.154 111.76 318.386C111.871 315.847 111.699 313.645 111.146 311.158C110.55 308.449 110.429 306.015 110.533 303.249C115.336 303.086 119.9 303.715 124.639 304.46C125.19 300.109 125.434 295.786 125.597 291.405C125.637 290.402 125.637 290.402 125.677 289.379C125.741 287.746 125.804 286.113 125.865 284.48C128.025 284.788 129.648 285.132 131.653 286.031C135.411 287.527 139.67 287.04 143.65 286.902C145.349 282.355 145.726 278.326 145.605 273.506C145.597 272.869 145.588 272.232 145.58 271.576C145.559 270.024 145.528 268.473 145.49 266.921C162.789 257.592 182.76 249.869 202.755 249.855C203.304 249.847 203.853 249.84 204.418 249.832C208.06 249.824 211.262 250.282 214.791 251.179C211.975 247.233 208.495 245.533 203.752 244.519C194.728 243.817 186.107 244.701 177.381 246.941C176.645 247.126 176.645 247.126 175.895 247.314C167.072 249.587 158.696 252.925 150.396 256.628C149.944 256.83 149.492 257.031 149.026 257.239C139.668 261.523 131.252 267.704 122.742 273.403C119.838 275.348 116.931 277.287 114.018 279.217C113.333 279.671 112.648 280.126 111.964 280.581C106.629 284.124 101.18 287.416 95.5292 290.447C95.0083 290.736 94.4873 291.024 93.9505 291.322C93.4939 291.567 93.0372 291.811 92.5667 292.063C90.8172 293.558 90.9632 295.322 90.7821 297.495C90.7484 298.27 90.7484 298.27 90.714 299.061C90.6883 299.625 90.6626 300.189 90.6362 300.77C90.6121 301.351 90.5879 301.932 90.5631 302.53C90.5366 303.123 90.5101 303.716 90.4828 304.327C90.418 305.784 90.3554 307.241 90.2948 308.699C87.7109 308.393 86.5521 307.717 84.7753 305.86C84.3507 305.428 83.9262 304.996 83.4888 304.55C82.4892 303.436 81.6709 302.32 80.8273 301.092C79.4577 299.498 79.4577 299.498 77.9501 299.508C76.5065 299.653 75.1495 299.899 73.7362 300.222C72.7142 300.425 71.6921 300.627 70.6698 300.827C70.757 302.165 70.847 303.502 70.9381 304.839C71.0128 305.956 71.0128 305.956 71.089 307.095C71.2626 309.071 71.5348 310.987 71.8963 312.937C67.4824 312.851 64.6135 311.149 60.8884 308.881C59.0895 307.905 59.0895 307.905 57.3884 308.488C56.9141 308.757 56.4397 309.027 55.951 309.304C55.5423 309.507 55.1336 309.71 54.7125 309.919C53.3554 310.841 52.5447 311.551 51.6581 312.937C51.3845 315.177 51.4262 317.259 51.567 319.509C51.6581 321.413 51.6581 321.413 51.0448 323.23C44.2005 323.892 38.2207 320.676 32.9458 316.622C23.5418 308.839 15.9151 297.316 14.7435 285.066C13.9674 274.424 15.9087 262.48 20.994 252.995C21.2707 252.459 21.5474 251.923 21.8325 251.371C23.7182 247.984 26.0452 244.565 29.5799 242.702C31.2641 242.899 31.2641 242.899 32.6463 243.308C33.0511 244.507 33.4559 245.706 33.8729 246.941C37.1738 245.215 39.8407 243.233 42.6122 240.773C43.3554 240.119 44.0997 239.467 44.8449 238.817C45.438 238.298 45.438 238.298 46.043 237.769C47.5301 236.508 49.0579 235.304 50.5896 234.096C54.0415 231.321 57.2137 228.32 60.3434 225.204C61.2401 224.312 62.1431 223.427 63.0469 222.542C66.4243 219.212 69.5735 215.766 72.542 212.07C73.6802 210.681 74.871 209.376 76.1127 208.077C78.3611 205.602 80.3162 202.964 82.2455 200.244C82.5379 199.839 82.8303 199.434 83.1316 199.016C85.6615 195.38 86.8364 192.085 86.6151 187.605C85.9246 188.538 85.2348 189.471 84.5453 190.405C84.1026 191.004 83.6599 191.602 83.2037 192.219C82.1396 193.667 81.0957 195.127 80.0607 196.595C79.7866 196.981 79.5126 197.367 79.2303 197.765C78.6889 198.529 78.1508 199.296 77.6162 200.064C76.9664 200.979 76.2747 201.863 75.576 202.742C75.1713 202.742 74.7665 202.742 74.3495 202.742C74.2151 202.331 74.0807 201.92 73.9422 201.497C72.8886 198.445 71.7505 195.683 70.0182 192.94C66.6478 187.558 65.6197 183.136 66.3768 176.706C68.484 169.571 74.7546 164.688 80.2932 160.074C90.3939 151.639 98.533 141.279 99.8195 127.824C99.905 126.769 99.9863 125.713 100.064 124.657C100.159 123.481 100.254 122.305 100.349 121.13C100.397 120.521 100.445 119.913 100.494 119.286C103.424 82.5393 113.776 50.1002 139.971 22.9173C140.401 22.4529 140.832 21.9885 141.276 21.51C150.341 12.0517 167.084 -0.384945 181.06 0.514936Z" fill="#010101"/>
</svg>
