<svg width="643" height="983" viewBox="0 0 643 983" fill="none" xmlns="http://www.w3.org/2000/svg">
<mask id="path-1-outside-1_1_274" maskUnits="userSpaceOnUse" x="0" y="0" width="643" height="983" fill="black">
<rect fill="white" width="643" height="983"/>
<path d="M214.62 2.47934L213.178 1.05435C196.744 -0.00459707 177.055 14.6304 166.397 25.7606L164.862 27.4166C134.06 59.4045 121.888 97.5776 118.442 140.82L118.272 142.989C118.16 144.373 118.048 145.757 117.937 147.141C117.845 148.383 117.75 149.626 117.649 150.867C116.136 166.701 106.566 178.892 94.6887 188.818C88.1761 194.247 80.8026 199.993 78.3248 208.39C77.4345 215.956 78.6435 221.159 82.6066 227.494C84.6435 230.721 85.9818 233.971 87.2208 237.563L87.6996 239.027C87.6996 239.027 92.4747 242.402 92.1309 242.879C89.8623 246.08 93.011 242.909 90.3671 245.821C88.9071 247.349 86.9127 248.37 85.5743 250.004C82.0837 254.354 78.3806 258.409 74.4093 262.328C73.3465 263.369 72.2847 264.411 71.2303 265.46C67.5502 269.128 63.8201 272.658 59.7611 275.924L59.6383 276.021C57.8784 277.41 56.1238 278.796 54.4149 280.247L53.0061 281.479C52.1298 282.245 51.2547 283.012 50.3807 283.781C47.1218 286.676 43.9858 289.009 40.1044 291.039L38.6622 286.764C37.0368 286.283 37.0368 286.283 35.0565 286.052C30.9 288.244 28.1638 292.267 25.9464 296.252L24.9605 298.164C18.9808 309.326 16.6981 323.381 17.6107 335.904C18.9884 350.319 27.9564 363.879 39.0143 373.037C45.2169 377.809 52.2483 381.593 60.2963 380.814C61.0175 378.676 61.0175 378.676 60.9104 376.436C60.7449 373.787 60.6958 371.337 61.0175 368.701C62.0601 367.07 63.0133 366.235 64.6091 365.15L66.0655 364.426L67.7556 363.466C69.7559 362.78 69.7559 362.78 71.8712 363.928C76.2514 366.597 79.6248 368.601 84.8151 368.701C84.3899 366.407 84.0699 364.152 83.8658 361.827L83.6883 359.172C83.5812 357.598 83.4753 356.025 83.3728 354.451C84.575 354.215 85.7768 353.977 86.9785 353.739C88.6404 353.359 90.236 353.07 91.9335 352.898C93.7063 352.887 93.7063 352.887 95.3167 354.763C96.3086 356.208 97.2709 357.52 98.4463 358.832L99.959 360.374C102.048 362.559 103.411 363.354 106.449 363.714C106.521 361.999 106.594 360.284 106.67 358.569L106.765 356.455L106.851 354.383L106.942 352.372L107.022 350.529C107.235 347.973 107.064 345.897 109.121 344.138L110.748 343.266L112.604 342.236C119.249 338.669 125.656 334.796 131.929 330.626C132.734 330.09 133.539 329.555 134.345 329.021C137.77 326.749 141.189 324.468 144.603 322.18C154.61 315.472 164.506 308.199 175.51 303.158L177.121 302.439C186.88 298.082 196.729 294.154 207.104 291.479L208.851 291.039C219.112 288.404 229.249 287.364 239.86 288.189C245.438 289.382 249.529 291.383 252.841 296.027C248.692 294.971 244.926 294.433 240.643 294.442L238.688 294.468C215.176 294.485 191.693 303.573 171.352 314.552C171.397 316.377 171.432 318.203 171.457 320.029L171.487 322.3C171.63 327.973 171.186 332.714 169.188 338.064C164.508 338.227 159.5 338.8 155.081 337.04C152.724 335.981 150.815 335.576 148.275 335.214C148.204 337.136 148.13 339.058 148.054 340.979L147.96 343.363C147.768 348.518 147.482 353.606 146.833 358.726C141.261 357.849 135.895 357.109 130.247 357.301C130.125 360.556 130.266 363.421 130.968 366.608C131.618 369.534 131.821 372.125 131.689 375.114C130.103 376.018 128.569 376.613 126.821 377.162C124.382 377.255 123.743 377.017 121.683 375.915C119.334 374.478 119.334 374.478 112.94 373.689L112.218 385.801C106.941 387.105 103.533 387.116 98.697 384.421C96.1925 382.89 94.2354 381.937 91.3053 381.526C89.2053 385.546 89.3924 389.613 90.4631 393.908C95.2832 408.673 106.206 420.23 119.486 428.155C132.162 434.819 149.168 439.665 163.419 435.676C163.96 434.073 163.96 434.073 164.14 432.113L163.014 430.866C161.273 429.364 161.273 429.364 160.098 427.81L158.912 426.146C157.014 423.518 156.723 421.794 156.929 418.576C158.47 418.504 160.012 418.432 161.553 418.357L163.464 418.264C172.317 417.858 180.213 416.517 188.401 413.078C194.232 410.552 203.449 407.693 205.967 401.476C204.387 400.64 202.868 399.98 201.166 399.414C199.111 398.758 197.128 398.058 195.149 397.201C192.91 395.245 192.355 394.368 191.994 391.456C198.235 378.057 198.235 378.057 209.685 367.78L211.015 366.564C224.802 353.95 242.099 339.006 261.819 338.434L263.613 338.42C268.146 338.383 272.581 338.751 276.638 340.914C278.771 343.665 279.061 346.189 279.066 349.545L279.027 351.112L279.026 351.152C278.967 354.85 278.909 358.472 277.892 362.055L277.359 363.714C271.602 384.082 259.398 399.731 243.077 412.995C241.777 414.045 240.479 415.098 239.188 416.159C231.848 422.212 224.383 428.086 216.808 433.848C215.891 434.545 214.974 435.243 214.058 435.942L213.239 436.566C210.337 438.781 207.434 440.996 204.504 443.176C200.06 446.475 195.517 449.685 191.392 453.374L189.38 455.225C188.177 456.306 186.975 457.39 185.775 458.475C184.416 459.868 184.416 459.868 182.98 461.058C168.336 464.233 168.336 464.233 152.963 461.682C144.608 460.846 136.322 460.402 127.922 460.391L126.19 460.39C118.277 460.357 110.663 460.77 102.844 462.038C73.3394 467.165 50.6241 484.564 33.6226 508.381L32.1719 510.487C23.4678 523.029 16.6601 537.034 11.8381 551.47L11.2589 553.237C8.59182 561.305 6.29803 569.395 4.64782 577.729L4.18267 580.178C1.88866 592.221 0.966524 604.084 1.00093 616.329C1.01461 618.639 1.0277 620.95 1.02927 623.26C1.02915 624.8 1.03086 626.34 1.03449 627.88L1.04177 630.097C1.10595 684.54 26.3636 738.132 57.2509 782.122L58.1329 783.373C65.897 794.453 73.9686 805.244 82.6291 815.657C83.3585 816.533 84.0872 817.408 84.8151 818.285C88.1215 822.337 91.4523 826.326 95.0012 830.175L95.395 830.597C96.8553 832.162 98.3131 833.724 99.7139 835.343C102.213 838.266 104.848 841.067 107.526 843.831L108.973 845.315L110.348 846.774C113.314 849.771 115.144 850.978 119.43 851.06L119.445 850.984C120.06 847.987 120.675 844.991 121.236 841.985C123.251 831.095 125.246 817.933 132.41 809.022C134.569 814.461 136.852 819.845 139.19 825.211L139.802 826.612C143.027 833.996 146.346 841.247 150.439 848.21C153.136 852.56 154.568 855.146 154.044 860.322C153.592 862.33 153.313 864.145 153.228 866.208L153.233 868.649C153.23 870.149 153.253 871.649 153.323 873.147C156.32 879.069 156.32 879.069 181.332 897.327C182.881 898.453 184.428 899.579 185.972 900.711C209.304 917.841 233.483 933.489 258.351 948.348C261.907 950.473 265.46 952.603 269.01 954.739C272.448 956.807 275.889 958.872 279.334 960.931C281.417 962.176 283.499 963.42 285.572 964.681C292.2 968.723 299.029 972.302 305.982 975.764L307.467 976.503C308.893 977.216 310.32 977.928 311.751 978.632L313.09 979.289C314.623 980.044 316.173 980.769 317.743 981.446C320.629 982.456 322.261 982.009 325.01 980.717L326.366 980.04C330.817 977.899 335.193 975.626 339.526 973.259C340.808 972.55 342.091 971.842 343.375 971.136C346.158 969.609 348.936 968.073 351.711 966.532L353.079 965.771C386.375 947.265 418.71 927.22 449.561 904.937L451.154 903.784C457.178 899.43 463.102 895.012 468.76 890.199C470.53 888.69 472.309 887.204 474.132 885.757C475.444 884.725 476.746 883.678 478.036 882.618L480 880.984C482.274 879.191 484.389 877.361 486.442 875.318C489.073 871.485 488.64 867.597 487.932 863.172C486.813 859.308 486.606 855.957 488.27 852.284C489.031 851.093 489.79 849.901 490.528 848.696L491.343 847.35C498.389 835.834 503.695 822.953 507.997 810.222L508.845 807.597H510.287C510.287 809.022 510.287 809.022 511.107 810.475C516.988 820.165 518.762 830.453 520.383 841.45L520.6 842.946C520.676 843.453 520.752 843.96 520.828 844.467L521.023 845.777C521.405 848.46 521.321 849.849 523.268 851.772C525.985 851.477 525.985 851.477 529.41 848.066L530.615 846.829C533.993 843.423 537.291 839.956 540.491 836.384C541.547 835.2 542.61 834.022 543.68 832.849C546.532 829.732 549.378 826.61 552.167 823.436L553.556 821.847C558.627 816.088 563.419 810.187 568.01 804.046C569.043 802.658 570.078 801.27 571.121 799.889C579.558 788.759 587.596 777.306 594.807 765.36C595.859 763.604 596.914 761.85 597.981 760.102C604.492 749.432 610.423 738.535 615.881 727.303L617.016 724.948C625.641 707.087 632.138 688.094 636.063 668.682L636.487 666.524C637.462 661.584 638.33 656.639 639.056 651.657L639.371 649.424C646.539 599.519 639.859 544.114 609.239 502.404L608.362 501.225L608.234 501.051C604.94 496.584 601.637 492.105 597.557 488.3L596.103 486.975C579.661 471.269 561.578 462.226 539.341 457.201C525.396 454.058 511.214 451.314 502.761 438.704C496.594 427.399 497.769 412.693 500.442 400.51C501.191 397.142 501.897 393.773 502.54 390.384L502.848 388.748C503.271 386.505 503.693 384.26 504.113 382.016C505.262 375.84 506.425 369.666 507.783 363.531L508.149 361.902C508.539 360.071 508.986 358.379 509.566 356.589C511.496 355.058 511.496 355.058 513.158 355.08L514.75 355.253C520.703 355.783 524.683 359.092 528.598 363.282L530.119 364.961C531.604 366.56 533.088 368.16 534.56 369.772L535.527 370.839L538.412 370.126C538.891 341.977 527.366 309.041 510.91 286.035C507.312 281.309 503.165 276.195 502.065 270.23C502.018 267.802 502.39 265.581 503.887 263.608C507.228 260.968 510.694 260.131 514.872 260.07L516.552 260.09C521.808 260.106 526.745 260.772 531.877 261.872L533.725 262.3L535.457 262.698C537.683 263.244 539.1 263.222 541.296 262.54C541.764 261.334 541.764 261.334 542.018 259.69C537.621 248.376 527.453 236.278 518.623 227.911C517.613 226.976 516.604 226.038 515.606 225.09C496.19 206.618 474.215 194.024 449.246 184.121L447.34 183.367C446.117 182.875 444.895 182.385 443.672 181.894C442.581 181.477 441.494 181.052 440.41 180.617C436.171 178.754 432.052 175.656 430.241 171.34C429.967 168.196 429.892 166.87 431.683 164.215C437.079 157.885 444.605 156.404 452.477 155.074C454.009 154.817 455.54 154.553 457.071 154.286C458.05 154.112 459.029 153.938 460.008 153.765L460.11 153.747C462.942 153.268 464.594 152.988 467.019 151.391C464.623 148.724 462.347 147.083 459.106 145.524L457.419 144.755C435.827 134.87 412.655 129.949 388.864 132.324C385.828 132.731 382.89 132.992 379.829 133.033L378.139 133.044C375.155 133.121 372.712 133.362 370.071 131.878C368.148 129.916 366.979 128.36 366.522 125.602C372.319 106.987 372.319 106.987 386.057 91.6218C386.843 90.645 387.629 89.6681 388.415 88.6911C392.598 83.4104 397.074 78.4874 401.739 73.6228L401.852 73.5052C403.812 71.4633 405.77 69.424 407.657 67.3163C409.958 64.7325 412.217 62.2451 414.872 60.0132C417.271 58.0182 419.484 55.8882 421.691 53.6912C424.763 50.6216 427.793 47.5221 431.097 44.6946C432.651 43.3951 434.175 42.0827 435.678 40.7258C439.527 37.2225 443.437 33.8432 447.509 30.595C448.667 29.6732 449.824 28.7507 450.976 27.8209C451.891 27.0797 452.806 26.339 453.722 25.5987L455.165 24.4331C457.758 22.3348 460.356 20.2507 463.024 18.2471L464.85 16.8934C466.038 16.0063 467.227 15.1203 468.416 14.2355L470.138 12.9937L471.726 11.8086C473.532 10.4918 474.135 9.91477 474.794 7.76512V7.76475C474.952 6.04181 474.952 6.04172 474.208 4.76433C472.788 3.90433 472.788 3.90433 470.647 3.64549L468.101 3.68167C440.91 3.77243 410.837 17.8811 387.455 30.6343L385.53 31.6916C371.154 39.5365 357.394 48.1009 344.024 57.524L342.262 58.7663C335.028 63.8315 327.926 68.9904 321.045 74.5164C319.354 75.8741 317.651 77.2118 315.929 78.5297C311.454 81.9525 307.088 85.4576 302.825 89.1364C300.384 91.2502 297.947 93.3582 295.436 95.3902C291.769 98.2979 288.237 101.292 284.796 104.455C282.854 106.255 280.922 108.061 278.909 109.784C275.649 112.552 272.563 115.442 269.53 118.452L267.849 120.13L264.483 123.475C263.487 124.468 262.491 125.461 261.494 126.453C260.292 127.64 259.089 128.827 257.889 130.016C246.611 141.511 234.847 151.209 219.668 157.09C221.918 155.164 224.167 153.25 226.492 151.411C230.551 148.202 234.372 144.867 238.054 141.242L239.897 139.406L240.476 138.834C241.96 137.367 243.443 135.9 244.923 134.43C246.648 132.713 248.374 130.998 250.106 129.288C251.473 127.937 252.84 126.584 254.206 125.231L256.167 123.286C260.025 119.469 263.772 115.64 267.263 111.491C229.485 109.744 196.517 126.603 167.121 148.287L164.862 149.966C163.674 150.841 162.488 151.717 161.301 152.593L159.092 154.241C163.765 147.709 168.813 141.784 175.018 136.597C178.552 133.682 182.259 130.812 185.053 127.166C185.646 124.813 185.318 123.775 184.482 121.516C183.625 119.363 183.118 117.282 182.71 115.007L182.439 113.361C176.639 79.0658 187.32 43.7865 207.292 15.7659C208.145 14.5705 208.992 13.3706 209.834 12.1676L211.42 9.87146C213.145 7.42326 214.406 5.50149 214.62 2.47934Z"/>
</mask>
<path d="M89.1419 239.027V238.527H87.6996V239.027V239.527H89.1419V239.027ZM213.178 1.05435L213.881 0.342993L213.615 0.080441L213.242 0.05642L213.178 1.05435ZM214.62 2.47934L215.618 2.54997L215.65 2.09122L215.323 1.76798L214.62 2.47934ZM211.42 9.87146L210.603 9.29549L210.597 9.30315L211.42 9.87146ZM209.834 12.1676L210.653 12.7412L210.657 12.7359L209.834 12.1676ZM207.292 15.7659L206.478 15.1848L206.477 15.1855L207.292 15.7659ZM182.439 113.361L183.426 113.199L183.425 113.194L182.439 113.361ZM182.71 115.007L181.723 115.169L181.724 115.176L181.726 115.183L182.71 115.007ZM184.482 121.516L185.419 121.169L185.415 121.157L185.411 121.146L184.482 121.516ZM185.053 127.166L185.847 127.774L185.973 127.61L186.023 127.41L185.053 127.166ZM175.018 136.597L174.382 135.825L174.377 135.83L175.018 136.597ZM159.092 154.241L158.279 153.659L159.69 155.042L159.092 154.241ZM161.301 152.593L160.707 151.788L160.703 151.791L161.301 152.593ZM164.862 149.966L165.455 150.77L165.458 150.768L164.862 149.966ZM167.121 148.287L166.527 147.483L166.524 147.485L167.121 148.287ZM267.263 111.491L268.029 112.135L269.332 110.585L267.31 110.492L267.263 111.491ZM256.167 123.286L255.464 122.575L255.463 122.576L256.167 123.286ZM254.206 125.231L254.91 125.942L254.91 125.941L254.206 125.231ZM250.106 129.288L249.403 128.576L249.403 128.576L250.106 129.288ZM244.923 134.43L245.628 135.139L245.629 135.139L244.923 134.43ZM240.476 138.834L239.773 138.123L239.773 138.123L240.476 138.834ZM239.897 139.406L239.194 138.695L239.191 138.698L239.897 139.406ZM238.054 141.242L238.756 141.955L238.76 141.95L238.054 141.242ZM226.492 151.411L225.871 150.626L225.871 150.627L226.492 151.411ZM219.668 157.09L219.018 156.331L220.03 158.023L219.668 157.09ZM257.889 130.016L257.185 129.305L257.18 129.31L257.175 129.315L257.889 130.016ZM261.494 126.453L262.197 127.165L262.2 127.162L261.494 126.453ZM264.483 123.475L263.778 122.766L263.777 122.767L264.483 123.475ZM267.849 120.13L268.554 120.839L268.556 120.837L267.849 120.13ZM269.53 118.452L268.825 117.742L268.823 117.744L269.53 118.452ZM278.909 109.784L279.556 110.546L279.559 110.543L278.909 109.784ZM284.796 104.455L284.119 103.719L284.116 103.722L284.796 104.455ZM295.436 95.3902L296.057 96.1738L296.065 96.1676L295.436 95.3902ZM302.825 89.1364L302.171 88.3793L302.17 88.3804L302.825 89.1364ZM315.929 78.5297L316.537 79.324L316.537 79.3239L315.929 78.5297ZM321.045 74.5164L320.419 73.7366L320.418 73.7367L321.045 74.5164ZM342.262 58.7663L342.836 59.5855L342.838 59.5836L342.262 58.7663ZM344.024 57.524L343.448 56.7066L343.448 56.7067L344.024 57.524ZM385.53 31.6916L386.009 32.5694L386.012 32.5681L385.53 31.6916ZM387.455 30.6343L386.976 29.7564L386.974 29.7579L387.455 30.6343ZM468.101 3.68167L468.104 4.68173L468.115 4.68157L468.101 3.68167ZM470.647 3.64549L470.767 2.65272L470.7 2.64463L470.633 2.64559L470.647 3.64549ZM474.208 4.76433L475.072 4.26123L474.944 4.04102L474.726 3.90901L474.208 4.76433ZM474.794 7.76475L473.798 7.67368L473.794 7.71912V7.76475H474.794ZM474.794 7.76512L475.75 8.05809L475.794 7.91489V7.76512H474.794ZM471.726 11.8086L471.137 11.0005L471.128 11.007L471.726 11.8086ZM470.138 12.9937L470.723 13.8046L470.729 13.8L470.736 13.7952L470.138 12.9937ZM468.416 14.2355L467.831 13.4245L467.825 13.4288L467.819 13.4331L468.416 14.2355ZM464.85 16.8934L465.446 17.6968L465.448 17.6947L464.85 16.8934ZM463.024 18.2471L462.428 17.4437L462.423 17.4474L463.024 18.2471ZM455.165 24.4331L455.794 25.211L455.795 25.2103L455.165 24.4331ZM453.722 25.5987L453.094 24.8208L453.094 24.821L453.722 25.5987ZM450.976 27.8209L451.604 28.5989L451.605 28.598L450.976 27.8209ZM447.509 30.595L446.886 29.8126L446.885 29.8133L447.509 30.595ZM435.678 40.7258L436.348 41.468L436.351 41.4654L435.678 40.7258ZM431.097 44.6946L430.456 43.9276L430.447 43.9348L431.097 44.6946ZM421.691 53.6912L422.397 54.3999L422.398 54.3985L421.691 53.6912ZM414.872 60.0132L414.232 59.2443L414.228 59.2478L414.872 60.0132ZM407.657 67.3163L408.402 67.9835L408.404 67.9812L407.657 67.3163ZM401.852 73.5052L402.573 74.1978L402.573 74.1977L401.852 73.5052ZM401.739 73.6228L401.018 72.9302L401.017 72.9306L401.739 73.6228ZM388.415 88.6911L389.194 89.3178L389.199 89.312L388.415 88.6911ZM386.057 91.6218L386.803 92.2883L386.82 92.269L386.836 92.2487L386.057 91.6218ZM366.522 125.602L365.567 125.304L365.496 125.531L365.535 125.765L366.522 125.602ZM370.071 131.878L369.357 132.578L369.457 132.68L369.581 132.749L370.071 131.878ZM378.139 133.044L378.132 132.044L378.122 132.044L378.113 132.044L378.139 133.044ZM379.829 133.033L379.835 134.033L379.842 134.033L379.829 133.033ZM388.864 132.324L388.765 131.329L388.748 131.331L388.731 131.333L388.864 132.324ZM457.419 144.755L457.003 145.665L457.004 145.665L457.419 144.755ZM459.106 145.524L459.54 144.623L459.53 144.619L459.521 144.614L459.106 145.524ZM467.019 151.391L467.569 152.226L468.54 151.586L467.763 150.722L467.019 151.391ZM460.11 153.747L459.943 152.761L459.943 152.761L460.11 153.747ZM460.008 153.765L459.841 152.779L459.833 152.78L460.008 153.765ZM457.071 154.286L457.243 155.272L457.246 155.271L457.071 154.286ZM452.477 155.074L452.311 154.087L452.31 154.088L452.477 155.074ZM431.683 164.215L430.922 163.567L430.886 163.61L430.854 163.656L431.683 164.215ZM430.241 171.34L429.245 171.427L429.258 171.583L429.319 171.727L430.241 171.34ZM440.41 180.617L440.008 181.532L440.023 181.539L440.038 181.545L440.41 180.617ZM443.672 181.894L444.044 180.966L444.037 180.963L444.029 180.96L443.672 181.894ZM447.34 183.367L446.967 184.294L446.972 184.296L447.34 183.367ZM449.246 184.121L449.615 183.192L449.614 183.191L449.246 184.121ZM515.606 225.09L514.917 225.814L514.918 225.815L515.606 225.09ZM518.623 227.911L519.311 227.185L519.302 227.178L518.623 227.911ZM542.018 259.69L543.006 259.842L543.047 259.577L542.95 259.327L542.018 259.69ZM541.296 262.54L541.593 263.495L542.054 263.351L542.229 262.901L541.296 262.54ZM535.457 262.698L535.695 261.727L535.688 261.725L535.681 261.724L535.457 262.698ZM533.725 262.3L533.499 263.275L533.501 263.275L533.725 262.3ZM531.877 261.872L532.103 260.897L532.094 260.896L532.086 260.894L531.877 261.872ZM516.552 260.09L516.54 261.09L516.549 261.09L516.552 260.09ZM514.872 260.07L514.884 259.07L514.871 259.07L514.857 259.07L514.872 260.07ZM503.887 263.608L503.267 262.824L503.168 262.903L503.091 263.004L503.887 263.608ZM502.065 270.23L501.065 270.249L501.067 270.331L501.081 270.411L502.065 270.23ZM510.91 286.035L511.723 285.453L511.715 285.441L511.706 285.429L510.91 286.035ZM538.412 370.126L538.652 371.097L539.399 370.913L539.412 370.143L538.412 370.126ZM535.527 370.839L534.787 371.511L535.188 371.953L535.767 371.81L535.527 370.839ZM534.56 369.772L535.3 369.1L535.298 369.098L534.56 369.772ZM530.119 364.961L529.378 365.632L529.386 365.641L530.119 364.961ZM528.598 363.282L529.339 362.611L529.334 362.605L529.328 362.6L528.598 363.282ZM514.75 355.253L514.642 356.247L514.651 356.248L514.661 356.249L514.75 355.253ZM513.158 355.08L513.266 354.086L513.219 354.081L513.171 354.08L513.158 355.08ZM509.566 356.589L508.945 355.805L508.708 355.993L508.615 356.281L509.566 356.589ZM508.149 361.902L509.125 362.121L509.127 362.11L508.149 361.902ZM507.783 363.531L506.807 363.312L506.807 363.315L507.783 363.531ZM504.113 382.016L505.096 382.2L505.096 382.199L504.113 382.016ZM502.848 388.748L501.865 388.563L501.865 388.564L502.848 388.748ZM502.54 390.384L503.523 390.57L503.523 390.569L502.54 390.384ZM500.442 400.51L499.466 400.293L499.465 400.296L500.442 400.51ZM502.761 438.704L501.883 439.183L501.905 439.223L501.93 439.261L502.761 438.704ZM539.341 457.201L539.562 456.225L539.561 456.225L539.341 457.201ZM596.103 486.975L595.412 487.698L595.421 487.706L595.429 487.714L596.103 486.975ZM597.557 488.3L598.239 487.569L598.23 487.561L597.557 488.3ZM608.234 501.051L609.039 500.457L609.039 500.457L608.234 501.051ZM608.362 501.225L607.557 501.818L607.56 501.822L608.362 501.225ZM609.239 502.404L610.045 501.812L610.041 501.807L609.239 502.404ZM639.371 649.424L638.382 649.282L638.381 649.284L639.371 649.424ZM639.056 651.657L640.045 651.801L640.046 651.797L639.056 651.657ZM636.487 666.524L635.506 666.33L635.506 666.331L636.487 666.524ZM636.063 668.682L637.043 668.88L637.044 668.875L636.063 668.682ZM617.016 724.948L616.116 724.513L616.115 724.514L617.016 724.948ZM615.881 727.303L616.781 727.74L616.782 727.737L615.881 727.303ZM597.981 760.102L597.127 759.582L597.127 759.582L597.981 760.102ZM594.807 765.36L595.663 765.877L595.665 765.874L594.807 765.36ZM571.121 799.889L570.324 799.285L570.324 799.286L571.121 799.889ZM568.01 804.046L568.81 804.645L568.812 804.643L568.01 804.046ZM553.556 821.847L552.805 821.186L552.803 821.189L553.556 821.847ZM552.167 823.436L552.918 824.097L552.92 824.095L552.167 823.436ZM543.68 832.849L542.942 832.174L542.941 832.175L543.68 832.849ZM540.491 836.384L541.236 837.051L541.237 837.049L540.491 836.384ZM530.615 846.829L529.905 846.125L529.898 846.131L530.615 846.829ZM529.41 848.066L530.115 848.774L530.121 848.769L530.126 848.764L529.41 848.066ZM523.268 851.772L522.565 852.483L522.903 852.817L523.376 852.766L523.268 851.772ZM521.023 845.777L522.013 845.636L522.012 845.63L521.023 845.777ZM520.828 844.467L521.817 844.32L521.817 844.32L520.828 844.467ZM520.6 842.946L519.611 843.09L519.611 843.094L520.6 842.946ZM520.383 841.45L521.372 841.306L521.372 841.304L520.383 841.45ZM511.107 810.475L510.236 810.967L510.244 810.98L510.252 810.994L511.107 810.475ZM510.287 807.597H511.287V806.597H510.287V807.597ZM508.845 807.597V806.597H508.117L507.894 807.29L508.845 807.597ZM507.997 810.222L508.945 810.542L508.949 810.529L507.997 810.222ZM491.343 847.35L490.49 846.828L490.488 846.832L491.343 847.35ZM490.528 848.696L491.381 849.218L491.384 849.214L490.528 848.696ZM488.27 852.284L487.427 851.746L487.389 851.806L487.359 851.871L488.27 852.284ZM487.932 863.172L488.92 863.014L488.91 862.953L488.893 862.894L487.932 863.172ZM486.442 875.318L487.147 876.027L487.214 875.961L487.266 875.884L486.442 875.318ZM480 880.984L479.38 880.199L479.37 880.207L479.36 880.216L480 880.984ZM478.036 882.618L478.671 883.39L478.676 883.387L478.036 882.618ZM474.132 885.757L473.514 884.971L473.51 884.974L474.132 885.757ZM468.76 890.199L469.408 890.961L469.409 890.96L468.76 890.199ZM451.154 903.784L450.568 902.974L450.568 902.974L451.154 903.784ZM449.561 904.937L450.146 905.748L450.147 905.747L449.561 904.937ZM353.079 965.771L352.593 964.897L352.593 964.897L353.079 965.771ZM351.711 966.532L352.197 967.406L352.197 967.406L351.711 966.532ZM343.375 971.136L342.893 970.26L342.893 970.26L343.375 971.136ZM339.526 973.259L340.005 974.137L340.01 974.134L339.526 973.259ZM326.366 980.04L325.932 979.139L325.926 979.142L325.919 979.146L326.366 980.04ZM325.01 980.717L325.435 981.623L325.446 981.617L325.456 981.612L325.01 980.717ZM317.743 981.446L317.347 982.364L317.38 982.378L317.413 982.39L317.743 981.446ZM313.09 979.289L313.531 978.392L313.53 978.391L313.09 979.289ZM311.751 978.632L311.309 979.529L311.311 979.53L311.751 978.632ZM307.467 976.503L307.914 975.609L307.912 975.608L307.467 976.503ZM305.982 975.764L305.536 976.659L305.536 976.659L305.982 975.764ZM285.572 964.681L286.093 963.827L286.092 963.827L285.572 964.681ZM279.334 960.931L278.821 961.789L278.821 961.79L279.334 960.931ZM269.01 954.739L269.525 953.882L269.525 953.882L269.01 954.739ZM258.351 948.348L257.838 949.207L257.838 949.207L258.351 948.348ZM185.972 900.711L186.564 899.905L186.563 899.905L185.972 900.711ZM181.332 897.327L180.743 898.135L180.744 898.136L181.332 897.327ZM153.323 873.147L152.324 873.194L152.334 873.407L152.431 873.598L153.323 873.147ZM153.233 868.649L154.233 868.652L154.233 868.647L153.233 868.649ZM153.228 866.208L152.228 866.167L152.228 866.189L152.228 866.211L153.228 866.208ZM154.044 860.322L155.02 860.542L155.033 860.483L155.039 860.423L154.044 860.322ZM150.439 848.21L149.577 848.716L149.583 848.726L149.589 848.736L150.439 848.21ZM139.802 826.612L140.718 826.212L140.718 826.212L139.802 826.612ZM139.19 825.211L138.273 825.61L138.273 825.611L139.19 825.211ZM132.41 809.022L133.34 808.654L132.707 807.058L131.631 808.396L132.41 809.022ZM121.236 841.985L122.219 842.168L122.219 842.167L121.236 841.985ZM119.445 850.984L118.466 850.783L118.466 850.783L119.445 850.984ZM119.43 851.06L119.411 852.059L120.242 852.075L120.409 851.26L119.43 851.06ZM110.348 846.774L109.621 847.46L109.629 847.469L109.638 847.477L110.348 846.774ZM108.973 845.315L109.701 844.629L109.695 844.623L109.689 844.617L108.973 845.315ZM107.526 843.831L106.808 844.527L106.81 844.529L107.526 843.831ZM99.7139 835.343L100.474 834.693L100.47 834.688L99.7139 835.343ZM95.395 830.597L94.6637 831.279L94.6638 831.279L95.395 830.597ZM95.0012 830.175L94.266 830.852L94.2699 830.857L95.0012 830.175ZM84.8151 818.285L85.5899 817.653L85.5844 817.646L84.8151 818.285ZM82.6291 815.657L81.8603 816.297L81.8609 816.298L82.6291 815.657ZM58.1329 783.373L58.9519 782.799L58.9502 782.796L58.1329 783.373ZM57.2509 782.122L56.4325 782.696L56.4336 782.698L57.2509 782.122ZM1.04177 630.097L2.04177 630.096L2.04177 630.094L1.04177 630.097ZM1.03449 627.88L0.0344892 627.882L0.0344923 627.883L1.03449 627.88ZM1.02927 623.26L2.02927 623.26L2.02927 623.259L1.02927 623.26ZM1.00093 616.329L0.000924646 616.332L0.000943069 616.335L1.00093 616.329ZM4.18267 580.178L5.16501 580.365L5.16511 580.365L4.18267 580.178ZM4.64782 577.729L3.66684 577.535L3.66538 577.542L4.64782 577.729ZM11.2589 553.237L12.2083 553.551L12.2091 553.549L11.2589 553.237ZM11.8381 551.47L10.8896 551.153L10.8878 551.159L11.8381 551.47ZM32.1719 510.487L32.9934 511.058L32.9955 511.055L32.1719 510.487ZM33.6226 508.381L32.8087 507.8L32.8038 507.806L32.799 507.813L33.6226 508.381ZM102.844 462.038L102.683 461.051L102.672 461.053L102.844 462.038ZM126.19 460.39L126.186 461.39L126.19 461.39L126.19 460.39ZM127.922 460.391L127.923 459.391L127.922 459.391L127.922 460.391ZM152.963 461.682L153.127 460.695L153.095 460.69L153.062 460.687L152.963 461.682ZM182.98 461.058L183.192 462.035L183.431 461.984L183.618 461.828L182.98 461.058ZM185.775 458.475L185.104 457.734L185.081 457.755L185.059 457.777L185.775 458.475ZM189.38 455.225L190.049 455.969L190.057 455.961L189.38 455.225ZM191.392 453.374L190.725 452.628L190.72 452.633L190.714 452.638L191.392 453.374ZM204.504 443.176L205.1 443.979L205.101 443.978L204.504 443.176ZM213.239 436.566L212.633 435.771L212.632 435.771L213.239 436.566ZM214.058 435.942L213.452 435.147L213.451 435.147L214.058 435.942ZM216.808 433.848L217.413 434.644L217.413 434.644L216.808 433.848ZM239.188 416.159L238.553 415.386L238.551 415.387L239.188 416.159ZM243.077 412.995L243.705 413.774L243.708 413.771L243.077 412.995ZM277.359 363.714L276.407 363.408L276.402 363.425L276.397 363.442L277.359 363.714ZM277.892 362.055L278.844 362.361L278.849 362.344L278.854 362.328L277.892 362.055ZM279.026 351.152L280.026 351.168L280.026 351.168L279.026 351.152ZM279.027 351.112L278.027 351.087L278.027 351.096L279.027 351.112ZM279.066 349.545L280.066 349.57L280.066 349.557L280.066 349.543L279.066 349.545ZM276.638 340.914L277.429 340.301L277.298 340.132L277.109 340.032L276.638 340.914ZM263.613 338.42L263.62 339.42L263.621 339.42L263.613 338.42ZM261.819 338.434L261.811 337.434L261.801 337.434L261.79 337.435L261.819 338.434ZM211.015 366.564L211.689 367.302L211.69 367.302L211.015 366.564ZM209.685 367.78L210.353 368.524L210.359 368.518L209.685 367.78ZM191.994 391.456L191.088 391.034L190.967 391.295L191.002 391.579L191.994 391.456ZM195.149 397.201L194.492 397.954L194.609 398.057L194.752 398.119L195.149 397.201ZM201.166 399.414L201.482 398.465L201.47 398.461L201.166 399.414ZM205.967 401.476L206.893 401.851L207.232 401.014L206.434 400.592L205.967 401.476ZM188.401 413.078L188.788 414L188.798 413.996L188.401 413.078ZM163.464 418.264L163.419 417.265L163.416 417.265L163.464 418.264ZM161.553 418.357L161.602 419.356L161.602 419.356L161.553 418.357ZM156.929 418.576L156.883 417.577L155.988 417.618L155.931 418.512L156.929 418.576ZM158.912 426.146L159.727 425.566L159.723 425.56L158.912 426.146ZM160.098 427.81L159.284 428.391L159.292 428.402L159.301 428.414L160.098 427.81ZM163.014 430.866L163.756 430.196L163.714 430.15L163.667 430.109L163.014 430.866ZM164.14 432.113L165.136 432.205L165.176 431.768L164.882 431.443L164.14 432.113ZM163.419 435.676L163.689 436.639L164.198 436.496L164.367 435.995L163.419 435.676ZM119.486 428.155L118.974 429.014L118.997 429.028L119.021 429.041L119.486 428.155ZM90.4631 393.908L89.4928 394.15L89.5014 394.185L89.5124 394.219L90.4631 393.908ZM91.3053 381.526L91.4444 380.536L90.7457 380.438L90.419 381.063L91.3053 381.526ZM98.697 384.421L98.1756 385.274L98.1927 385.284L98.2102 385.294L98.697 384.421ZM112.218 385.801L112.458 386.772L113.173 386.595L113.217 385.86L112.218 385.801ZM112.94 373.689L113.062 372.696L112.005 372.566L111.941 373.629L112.94 373.689ZM121.683 375.915L121.162 376.768L121.186 376.783L121.212 376.797L121.683 375.915ZM126.821 377.162L126.859 378.161L126.993 378.156L127.121 378.116L126.821 377.162ZM131.689 375.114L132.184 375.982L132.664 375.709L132.688 375.158L131.689 375.114ZM130.968 366.608L129.991 366.823L129.992 366.825L130.968 366.608ZM130.247 357.301L130.213 356.302L129.282 356.334L129.248 357.264L130.247 357.301ZM146.833 358.726L146.678 359.714L147.696 359.874L147.825 358.852L146.833 358.726ZM147.96 343.363L146.961 343.324L146.961 343.326L147.96 343.363ZM148.054 340.979L149.053 341.019L149.053 341.019L148.054 340.979ZM148.275 335.214L148.417 334.224L147.317 334.067L147.276 335.177L148.275 335.214ZM155.081 337.04L154.671 337.952L154.691 337.961L154.711 337.969L155.081 337.04ZM169.188 338.064L169.223 339.063L169.891 339.04L170.125 338.414L169.188 338.064ZM171.487 322.3L170.487 322.313L170.487 322.325L171.487 322.3ZM171.457 320.029L172.457 320.016L172.457 320.015L171.457 320.029ZM171.352 314.552L170.877 313.672L170.337 313.963L170.352 314.576L171.352 314.552ZM238.688 294.468L238.689 295.468L238.702 295.468L238.688 294.468ZM240.643 294.442L240.641 293.442L240.63 293.442L240.643 294.442ZM252.841 296.027L252.594 296.996L255.24 297.669L253.655 295.446L252.841 296.027ZM239.86 288.189L240.069 287.211L240.004 287.198L239.938 287.192L239.86 288.189ZM208.851 291.039L209.095 292.009L209.1 292.008L208.851 291.039ZM207.104 291.479L206.86 290.509L206.855 290.511L207.104 291.479ZM177.121 302.439L177.528 303.353L177.529 303.352L177.121 302.439ZM175.51 303.158L175.103 302.244L175.093 302.249L175.51 303.158ZM144.603 322.18L145.16 323.01L145.16 323.01L144.603 322.18ZM134.345 329.021L133.792 328.188L133.792 328.188L134.345 329.021ZM131.929 330.626L132.483 331.459L132.484 331.458L131.929 330.626ZM112.604 342.236L112.131 341.355L112.119 341.361L112.604 342.236ZM110.748 343.266L111.22 344.147L111.227 344.144L111.233 344.14L110.748 343.266ZM109.121 344.138L108.648 343.256L108.553 343.307L108.471 343.378L109.121 344.138ZM107.022 350.529L106.026 350.446L106.024 350.466L106.023 350.486L107.022 350.529ZM106.942 352.372L107.941 352.418L107.941 352.416L106.942 352.372ZM106.851 354.383L105.852 354.338L105.852 354.342L106.851 354.383ZM106.765 356.455L107.764 356.5L107.764 356.497L106.765 356.455ZM106.67 358.569L105.671 358.524L105.671 358.525L106.67 358.569ZM106.449 363.714L106.332 364.707L107.404 364.834L107.448 363.755L106.449 363.714ZM99.959 360.374L100.682 359.683L100.673 359.674L99.959 360.374ZM98.4463 358.832L97.7016 359.499L97.7167 359.516L97.7325 359.532L98.4463 358.832ZM95.3167 354.763L96.1411 354.197L96.1106 354.153L96.0755 354.112L95.3167 354.763ZM91.9335 352.898L91.927 351.898L91.88 351.899L91.8331 351.903L91.9335 352.898ZM86.9785 353.739L87.1731 354.72L87.1872 354.717L87.2012 354.714L86.9785 353.739ZM83.3728 354.451L83.1799 353.47L82.3178 353.64L82.3749 354.516L83.3728 354.451ZM83.6883 359.172L84.6861 359.105L84.686 359.104L83.6883 359.172ZM83.8658 361.827L82.868 361.893L82.8687 361.904L82.8696 361.914L83.8658 361.827ZM84.8151 368.701L84.7957 369.701L86.0218 369.725L85.7983 368.519L84.8151 368.701ZM71.8712 363.928L72.3916 363.074L72.3702 363.061L72.3482 363.049L71.8712 363.928ZM67.7556 363.466L67.4312 362.52L67.3428 362.55L67.2617 362.597L67.7556 363.466ZM66.0655 364.426L66.5104 365.322L66.5353 365.309L66.5594 365.296L66.0655 364.426ZM64.6091 365.15L64.1641 364.254L64.1031 364.285L64.0467 364.323L64.6091 365.15ZM61.0175 368.701L60.1749 368.163L60.0524 368.354L60.0248 368.58L61.0175 368.701ZM60.9104 376.436L61.9093 376.388L61.9089 376.381L61.9085 376.373L60.9104 376.436ZM60.2963 380.814L60.3928 381.809L61.037 381.747L61.2439 381.133L60.2963 380.814ZM39.0143 373.037L38.3764 373.808L38.3903 373.819L38.4046 373.83L39.0143 373.037ZM17.6107 335.904L16.6134 335.976L16.6142 335.987L16.6153 335.999L17.6107 335.904ZM24.9605 298.164L25.842 298.637L25.8457 298.63L25.8493 298.623L24.9605 298.164ZM25.9464 296.252L25.0726 295.766L25.0649 295.78L25.0576 295.794L25.9464 296.252ZM35.0565 286.052L35.1723 285.059L34.8643 285.023L34.59 285.167L35.0565 286.052ZM38.6622 286.764L39.6097 286.445L39.4438 285.953L38.9462 285.806L38.6622 286.764ZM40.1044 291.039L39.1569 291.359L39.531 292.468L40.568 291.925L40.1044 291.039ZM50.3807 283.781L49.7203 283.03L49.7165 283.033L50.3807 283.781ZM53.0061 281.479L53.6642 282.232L53.6644 282.232L53.0061 281.479ZM54.4149 280.247L53.7677 279.485L53.7621 279.489L53.7565 279.494L54.4149 280.247ZM59.6383 276.021L59.0186 275.236L59.0186 275.236L59.6383 276.021ZM59.7611 275.924L60.3808 276.709L60.388 276.703L59.7611 275.924ZM71.2303 265.46L70.5249 264.751L70.5244 264.752L71.2303 265.46ZM74.4093 262.328L75.109 263.042L75.1116 263.04L74.4093 262.328ZM85.5743 250.004L84.8006 249.371L84.7943 249.378L85.5743 250.004ZM90.3671 245.821L91.0901 246.512L91.0989 246.503L91.1075 246.493L90.3671 245.821ZM92.1309 242.879L91.3197 242.294L91.315 242.301L92.1309 242.879ZM87.6996 239.027L86.7492 239.338L86.8521 239.653L87.1224 239.844L87.6996 239.027ZM87.2208 237.563L88.1712 237.252L88.1687 237.245L88.1661 237.237L87.2208 237.563ZM82.6066 227.494L81.7588 228.024L81.761 228.028L82.6066 227.494ZM78.3248 208.39L77.3657 208.107L77.3416 208.189L77.3317 208.273L78.3248 208.39ZM94.6887 188.818L95.329 189.586L95.3299 189.585L94.6887 188.818ZM117.649 150.867L118.645 150.963L118.645 150.955L118.646 150.948L117.649 150.867ZM117.937 147.141L116.94 147.06L116.94 147.067L117.937 147.141ZM118.272 142.989L119.268 143.07L119.269 143.068L118.272 142.989ZM118.442 140.82L117.446 140.741L117.445 140.742L118.442 140.82ZM164.862 27.4166L165.582 28.1102L165.588 28.1034L165.595 28.0965L164.862 27.4166ZM166.397 25.7606L165.675 25.069L165.669 25.0748L165.663 25.0808L166.397 25.7606ZM213.178 1.05435L212.475 1.76571L213.917 3.1907L214.62 2.47934L215.323 1.76798L213.881 0.342993L213.178 1.05435ZM214.62 2.47934L213.623 2.4087C213.43 5.13223 212.321 6.85606 210.603 9.29552L211.42 9.87146L212.238 10.4474C213.969 7.99045 215.383 5.87075 215.618 2.54997L214.62 2.47934ZM211.42 9.87146L210.597 9.30315L209.011 11.5993L209.834 12.1676L210.657 12.7359L212.243 10.4398L211.42 9.87146ZM209.834 12.1676L209.015 11.594C208.174 12.7951 207.329 13.9924 206.478 15.1848L207.292 15.7659L208.105 16.347C208.961 15.1486 209.81 13.9462 210.653 12.7412L209.834 12.1676ZM207.292 15.7659L206.477 15.1855C186.382 43.379 175.601 78.9223 181.453 113.528L182.439 113.361L183.425 113.194C177.678 79.2093 188.257 44.194 208.106 16.3463L207.292 15.7659ZM182.439 113.361L181.453 113.523L181.723 115.169L182.71 115.007L183.697 114.845L183.426 113.199L182.439 113.361ZM182.71 115.007L181.726 115.183C182.14 117.497 182.663 119.649 183.552 121.886L184.482 121.516L185.411 121.146C184.587 119.077 184.095 117.066 183.694 114.83L182.71 115.007ZM184.482 121.516L183.544 121.863C183.968 123.009 184.217 123.731 184.312 124.439C184.403 125.113 184.359 125.828 184.084 126.922L185.053 127.166L186.023 127.41C186.34 126.15 186.429 125.17 186.294 124.172C186.165 123.209 185.832 122.282 185.419 121.169L184.482 121.516ZM185.053 127.166L184.26 126.558C181.552 130.091 177.957 132.876 174.382 135.825L175.018 136.597L175.654 137.368C179.147 134.488 182.967 131.534 185.847 127.774L185.053 127.166ZM175.018 136.597L174.377 135.83C168.087 141.087 162.983 147.083 158.279 153.659L159.092 154.241L159.906 154.822C164.546 148.336 169.539 142.481 175.659 137.364L175.018 136.597ZM159.092 154.241L159.69 155.042L161.899 153.394L161.301 152.593L160.703 151.791L158.494 153.439L159.092 154.241ZM161.301 152.593L161.895 153.397C163.081 152.521 164.268 151.646 165.455 150.77L164.862 149.966L164.268 149.161C163.081 150.036 161.894 150.912 160.707 151.788L161.301 152.593ZM164.862 149.966L165.458 150.768L167.717 149.09L167.121 148.287L166.524 147.485L164.265 149.163L164.862 149.966ZM167.121 148.287L167.714 149.092C197.039 127.461 229.778 110.759 267.217 112.49L267.263 111.491L267.31 110.492C229.193 108.73 195.995 125.746 166.527 147.483L167.121 148.287ZM267.263 111.491L266.498 110.847C263.037 114.96 259.316 118.764 255.464 122.575L256.167 123.286L256.871 123.997C260.734 120.175 264.507 116.32 268.029 112.135L267.263 111.491ZM256.167 123.286L255.463 122.576L253.502 124.521L254.206 125.231L254.91 125.941L256.872 123.996L256.167 123.286ZM254.206 125.231L253.502 124.521C252.137 125.874 250.77 127.225 249.403 128.576L250.106 129.288L250.808 129.999C252.177 128.648 253.544 127.295 254.91 125.942L254.206 125.231ZM250.106 129.288L249.403 128.576C247.67 130.288 245.943 132.004 244.218 133.721L244.923 134.43L245.629 135.139C247.353 133.422 249.078 131.708 250.808 129.999L250.106 129.288ZM244.923 134.43L244.218 133.72C242.74 135.19 241.257 136.656 239.773 138.123L240.476 138.834L241.179 139.545C242.662 138.079 244.147 136.611 245.628 135.139L244.923 134.43ZM240.476 138.834L239.773 138.123L239.194 138.695L239.897 139.406L240.6 140.117L241.179 139.545L240.476 138.834ZM239.897 139.406L239.191 138.698L237.348 140.534L238.054 141.242L238.76 141.95L240.603 140.115L239.897 139.406ZM238.054 141.242L237.353 140.529C233.699 144.126 229.905 147.438 225.871 150.626L226.492 151.411L227.112 152.195C231.196 148.967 235.045 145.607 238.756 141.955L238.054 141.242ZM226.492 151.411L225.871 150.627C223.53 152.479 221.267 154.405 219.018 156.331L219.668 157.09L220.319 157.85C222.569 155.923 224.805 154.021 227.112 152.195L226.492 151.411ZM219.668 157.09L220.03 158.023C235.399 152.067 247.281 142.257 258.602 130.716L257.889 130.016L257.175 129.315C245.941 140.766 234.295 150.35 219.307 156.158L219.668 157.09ZM257.889 130.016L258.592 130.726C259.792 129.538 260.994 128.352 262.197 127.165L261.494 126.453L260.792 125.741C259.589 126.928 258.386 128.116 257.185 129.305L257.889 130.016ZM261.494 126.453L262.2 127.162C263.197 126.169 264.193 125.176 265.189 124.183L264.483 123.475L263.777 122.767C262.781 123.76 261.785 124.752 260.789 125.745L261.494 126.453ZM264.483 123.475L265.188 124.185L268.554 120.839L267.849 120.13L267.144 119.421L263.778 122.766L264.483 123.475ZM267.849 120.13L268.556 120.837L270.236 119.159L269.53 118.452L268.823 117.744L267.143 119.422L267.849 120.13ZM269.53 118.452L270.234 119.162C273.254 116.165 276.321 113.294 279.556 110.546L278.909 109.784L278.261 109.022C274.978 111.811 271.872 114.719 268.825 117.742L269.53 118.452ZM278.909 109.784L279.559 110.543C281.591 108.804 283.539 106.983 285.476 105.188L284.796 104.455L284.116 103.722C282.168 105.527 280.253 107.317 278.259 109.024L278.909 109.784ZM284.796 104.455L285.473 105.191C288.894 102.046 292.407 99.068 296.057 96.1737L295.436 95.3902L294.814 94.6067C291.131 97.5279 287.58 100.537 284.119 103.719L284.796 104.455ZM295.436 95.3902L296.065 96.1676C298.591 94.1234 301.04 92.0046 303.479 89.8923L302.825 89.1364L302.17 88.3804C299.727 90.4957 297.303 92.593 294.807 94.6128L295.436 95.3902ZM302.825 89.1364L303.478 89.8935C307.723 86.23 312.074 82.7374 316.537 79.324L315.929 78.5297L315.322 77.7354C310.834 81.1676 306.452 84.6851 302.171 88.3793L302.825 89.1364ZM315.929 78.5297L316.537 79.3239C318.266 78.0008 319.975 76.6582 321.671 75.296L321.045 74.5164L320.418 73.7367C318.734 75.0899 317.037 76.4227 315.321 77.7355L315.929 78.5297ZM321.045 74.5164L321.671 75.2961C328.528 69.7896 335.61 64.6448 342.836 59.5855L342.262 58.7663L341.688 57.9472C334.446 63.0183 327.324 68.1913 320.419 73.7366L321.045 74.5164ZM342.262 58.7663L342.838 59.5836L344.6 58.3413L344.024 57.524L343.448 56.7067L341.686 57.9491L342.262 58.7663ZM344.024 57.524L344.6 58.3414C357.939 48.9403 371.666 40.3961 386.009 32.5694L385.53 31.6916L385.051 30.8138C370.641 38.677 356.849 47.2616 343.448 56.7066L344.024 57.524ZM385.53 31.6916L386.012 32.5681L387.936 31.5108L387.455 30.6343L386.974 29.7579L385.049 30.8151L385.53 31.6916ZM387.455 30.6343L387.934 31.5122C411.32 18.7564 441.193 4.77149 468.104 4.68167L468.101 3.68167L468.097 2.68168C440.628 2.77337 410.353 17.0059 386.976 29.7564L387.455 30.6343ZM468.101 3.68167L468.115 4.68157L470.662 4.64539L470.647 3.64549L470.633 2.64559L468.087 2.68177L468.101 3.68167ZM470.647 3.64549L470.527 4.63826C471.641 4.77292 472.063 4.8282 472.398 4.93348C472.705 5.02973 472.949 5.17098 473.69 5.61965L474.208 4.76433L474.726 3.90901C474.047 3.49767 473.582 3.20892 472.998 3.02546C472.443 2.85103 471.794 2.77689 470.767 2.65272L470.647 3.64549ZM474.208 4.76433L473.344 5.26743C473.746 5.95913 473.824 6.1164 473.857 6.28915C473.897 6.48924 473.883 6.74595 473.798 7.67368L474.794 7.76475L475.79 7.85582C475.863 7.0606 475.928 6.4558 475.82 5.90576C475.708 5.32839 475.413 4.84691 475.072 4.26123L474.208 4.76433ZM474.794 7.76475H473.794V7.76512H474.794H475.794V7.76475H474.794ZM474.794 7.76512L473.838 7.47215C473.525 8.49187 473.255 9.03911 472.907 9.47705C472.543 9.93512 472.047 10.3372 471.137 11.0006L471.726 11.8086L472.315 12.6165C473.211 11.9631 473.919 11.4183 474.473 10.7213C475.043 10.0041 475.404 9.18802 475.75 8.05809L474.794 7.76512ZM471.726 11.8086L471.128 11.007L469.54 12.1921L470.138 12.9937L470.736 13.7952L472.324 12.6101L471.726 11.8086ZM470.138 12.9937L469.553 12.1827L467.831 13.4245L468.416 14.2355L469.001 15.0465L470.723 13.8046L470.138 12.9937ZM468.416 14.2355L467.819 13.4331C466.629 14.3183 465.44 15.2047 464.252 16.0922L464.85 16.8934L465.448 17.6947C466.636 16.8079 467.824 15.9223 469.013 15.0379L468.416 14.2355ZM464.85 16.8934L464.255 16.0901L462.428 17.4437L463.024 18.2471L463.619 19.0504L465.446 17.6968L464.85 16.8934ZM463.024 18.2471L462.423 17.4474C459.74 19.4628 457.129 21.5567 454.536 23.6558L455.165 24.4331L455.795 25.2103C458.386 23.1128 460.972 21.0386 463.624 19.0467L463.024 18.2471ZM455.165 24.4331L454.537 23.6551L453.094 24.8208L453.722 25.5987L454.351 26.3766L455.794 25.211L455.165 24.4331ZM453.722 25.5987L453.094 24.821C452.178 25.5614 451.262 26.3024 450.346 27.0438L450.976 27.8209L451.605 28.598C452.52 27.857 453.435 27.1165 454.351 26.3764L453.722 25.5987ZM450.976 27.8209L450.348 27.0429C449.199 27.9702 448.044 28.8909 446.886 29.8126L447.509 30.595L448.132 31.3774C449.29 30.4556 450.45 29.5311 451.604 28.5989L450.976 27.8209ZM447.509 30.595L446.885 29.8133C442.793 33.0777 438.866 36.4716 435.005 39.9862L435.678 40.7258L436.351 41.4654C440.188 37.9734 444.081 34.6088 448.132 31.3768L447.509 30.595ZM435.678 40.7258L435.008 39.9836C433.516 41.3301 432.002 42.6341 430.456 43.9276L431.097 44.6946L431.739 45.4616C433.299 44.1562 434.833 42.8353 436.348 41.468L435.678 40.7258ZM431.097 44.6946L430.447 43.9348C427.106 46.7938 424.043 49.9274 420.985 52.9839L421.691 53.6912L422.398 54.3985C425.483 51.3157 428.48 48.2505 431.747 45.4544L431.097 44.6946ZM421.691 53.6912L420.986 52.9825C418.785 55.1734 416.596 57.2783 414.232 59.2443L414.872 60.0132L415.511 60.7821C417.945 58.7581 420.184 56.6031 422.397 54.3999L421.691 53.6912ZM414.872 60.0132L414.228 59.2478C411.512 61.5314 409.21 64.0687 406.911 66.6513L407.657 67.3163L408.404 67.9812C410.706 65.3963 412.922 62.9588 415.515 60.7787L414.872 60.0132ZM407.657 67.3163L406.913 66.6491C405.038 68.7418 403.093 70.7688 401.13 72.8127L401.852 73.5052L402.573 74.1977C404.531 72.1579 406.501 70.1062 408.402 67.9835L407.657 67.3163ZM401.852 73.5052L401.131 72.8127L401.018 72.9302L401.739 73.6228L402.46 74.3153L402.573 74.1978L401.852 73.5052ZM401.739 73.6228L401.017 72.9306C396.341 77.8071 391.841 82.7551 387.631 88.0701L388.415 88.6911L389.199 89.312C393.355 84.0656 397.807 79.1678 402.461 74.3149L401.739 73.6228ZM388.415 88.6911L387.636 88.0643C386.85 89.0413 386.064 90.0181 385.278 90.9948L386.057 91.6218L386.836 92.2487C387.622 91.2718 388.408 90.2949 389.194 89.3178L388.415 88.6911ZM386.057 91.6218L385.312 90.9552C378.471 98.6055 374.95 102.535 372.444 106.894C369.935 111.259 368.453 116.036 365.567 125.304L366.522 125.602L367.476 125.899C370.387 116.552 371.804 112.021 374.178 107.891C376.556 103.755 379.905 100.003 386.803 92.2883L386.057 91.6218ZM366.522 125.602L365.535 125.765C366.04 128.814 367.369 130.55 369.357 132.578L370.071 131.878L370.785 131.178C368.927 129.282 367.917 127.906 367.508 125.438L366.522 125.602ZM370.071 131.878L369.581 132.749C372.513 134.398 375.275 134.118 378.164 134.043L378.139 133.044L378.113 132.044C375.035 132.124 372.911 132.327 370.561 131.006L370.071 131.878ZM378.139 133.044L378.145 134.044L379.835 134.033L379.829 133.033L379.822 132.033L378.132 132.044L378.139 133.044ZM379.829 133.033L379.842 134.033C382.953 133.991 385.932 133.726 388.997 133.316L388.864 132.324L388.731 131.333C385.725 131.736 382.827 131.993 379.816 132.033L379.829 133.033ZM388.864 132.324L388.963 133.319C412.549 130.964 435.543 135.839 457.003 145.665L457.419 144.755L457.835 143.846C436.111 133.9 412.761 128.933 388.765 131.329L388.864 132.324ZM457.419 144.755L457.004 145.665L458.691 146.434L459.106 145.524L459.521 144.614L457.834 143.845L457.419 144.755ZM459.106 145.524L458.673 146.425C461.806 147.933 463.974 149.498 466.275 152.059L467.019 151.391L467.763 150.722C465.272 147.95 462.887 146.234 459.54 144.623L459.106 145.524ZM467.019 151.391L466.469 150.555C464.231 152.03 462.759 152.284 459.943 152.761L460.11 153.747L460.277 154.733C463.125 154.251 464.957 153.946 467.569 152.226L467.019 151.391ZM460.11 153.747L459.943 152.761L459.841 152.779L460.008 153.765L460.175 154.751L460.277 154.733L460.11 153.747ZM460.008 153.765L459.833 152.78C458.854 152.954 457.875 153.128 456.896 153.302L457.071 154.286L457.246 155.271C458.225 155.097 459.204 154.923 460.182 154.749L460.008 153.765ZM457.071 154.286L456.899 153.301C455.37 153.568 453.841 153.831 452.311 154.087L452.477 155.074L452.642 156.06C454.177 155.803 455.711 155.539 457.243 155.272L457.071 154.286ZM452.477 155.074L452.31 154.088C444.473 155.412 436.583 156.925 430.922 163.567L431.683 164.215L432.444 164.864C437.574 158.845 444.736 157.396 452.643 156.06L452.477 155.074ZM431.683 164.215L430.854 163.656C429.909 165.057 429.402 166.189 429.2 167.435C429.006 168.637 429.11 169.884 429.245 171.427L430.241 171.34L431.237 171.253C431.098 169.653 431.027 168.665 431.175 167.754C431.315 166.887 431.667 166.028 432.512 164.775L431.683 164.215ZM430.241 171.34L429.319 171.727C431.269 176.374 435.65 179.617 440.008 181.532L440.41 180.617L440.812 179.701C436.692 177.891 432.835 174.937 431.163 170.953L430.241 171.34ZM440.41 180.617L440.038 181.545C441.127 181.982 442.219 182.409 443.315 182.828L443.672 181.894L444.029 180.96C442.943 180.545 441.861 180.121 440.783 179.689L440.41 180.617ZM443.672 181.894L443.3 182.822C444.522 183.313 445.745 183.803 446.967 184.294L447.34 183.367L447.713 182.439C446.49 181.947 445.267 181.456 444.044 180.966L443.672 181.894ZM447.34 183.367L446.972 184.296L448.878 185.051L449.246 184.121L449.614 183.191L447.708 182.437L447.34 183.367ZM449.246 184.121L448.877 185.051C473.759 194.919 495.616 207.452 514.917 225.814L515.606 225.09L516.295 224.365C496.764 205.784 474.67 193.129 449.615 183.192L449.246 184.121ZM515.606 225.09L514.918 225.815C515.92 226.767 516.932 227.709 517.943 228.645L518.623 227.911L519.302 227.178C518.293 226.243 517.288 225.308 516.295 224.365L515.606 225.09ZM518.623 227.911L517.935 228.637C526.728 236.968 536.768 248.943 541.085 260.052L542.018 259.69L542.95 259.327C538.473 247.808 528.179 235.588 519.311 227.185L518.623 227.911ZM542.018 259.69L541.029 259.537C540.899 260.381 540.844 260.735 540.768 261.034C540.696 261.319 540.604 261.559 540.364 262.178L541.296 262.54L542.229 262.901C542.456 262.315 542.599 261.952 542.707 261.525C542.811 261.111 542.882 260.643 543.006 259.842L542.018 259.69ZM541.296 262.54L541 261.585C539.958 261.908 539.15 262.06 538.363 262.08C537.575 262.1 536.757 261.988 535.695 261.727L535.457 262.698L535.219 263.669C536.382 263.955 537.387 264.105 538.413 264.079C539.44 264.054 540.438 263.853 541.593 263.495L541.296 262.54ZM535.457 262.698L535.681 261.724L533.949 261.326L533.725 262.3L533.501 263.275L535.233 263.673L535.457 262.698ZM533.725 262.3L533.951 261.326L532.103 260.897L531.877 261.872L531.651 262.846L533.499 263.275L533.725 262.3ZM531.877 261.872L532.086 260.894C526.905 259.784 521.897 259.107 516.555 259.09L516.552 260.09L516.549 261.09C521.719 261.106 526.585 261.761 531.667 262.849L531.877 261.872ZM516.552 260.09L516.565 259.09L514.884 259.07L514.872 260.07L514.86 261.07L516.54 261.09L516.552 260.09ZM514.872 260.07L514.857 259.07C510.531 259.133 506.83 260.008 503.267 262.824L503.887 263.608L504.507 264.393C507.627 261.927 510.856 261.129 514.886 261.07L514.872 260.07ZM503.887 263.608L503.091 263.004C501.403 265.228 501.016 267.708 501.065 270.249L502.065 270.23L503.065 270.21C503.02 267.896 503.377 265.934 504.684 264.213L503.887 263.608ZM502.065 270.23L501.081 270.411C502.235 276.663 506.57 281.985 510.114 286.641L510.91 286.035L511.706 285.429C508.053 280.632 504.096 275.727 503.048 270.048L502.065 270.23ZM510.91 286.035L510.097 286.617C526.445 309.472 537.887 342.202 537.412 370.109L538.412 370.126L539.412 370.143C539.895 341.753 528.287 308.61 511.723 285.453L510.91 286.035ZM538.412 370.126L538.172 369.155L535.288 369.868L535.527 370.839L535.767 371.81L538.652 371.097L538.412 370.126ZM535.527 370.839L536.268 370.167L535.3 369.1L534.56 369.772L533.819 370.444L534.787 371.511L535.527 370.839ZM534.56 369.772L535.298 369.098C533.824 367.482 532.336 365.88 530.852 364.28L530.119 364.961L529.386 365.641C530.871 367.241 532.353 368.838 533.821 370.446L534.56 369.772ZM530.119 364.961L530.86 364.289L529.339 362.611L528.598 363.282L527.857 363.954L529.378 365.632L530.119 364.961ZM528.598 363.282L529.328 362.6C525.371 358.364 521.173 354.821 514.838 354.257L514.75 355.253L514.661 356.249C520.233 356.745 523.995 359.82 527.867 363.965L528.598 363.282ZM514.75 355.253L514.857 354.259L513.266 354.086L513.158 355.08L513.05 356.074L514.642 356.247L514.75 355.253ZM513.158 355.08L513.171 354.08C512.399 354.07 511.754 354.045 511.075 354.33C510.466 354.586 509.852 355.086 508.945 355.805L509.566 356.589L510.188 357.372C511.21 356.561 511.56 356.296 511.849 356.174C512.068 356.083 512.255 356.069 513.145 356.08L513.158 355.08ZM509.566 356.589L508.615 356.281C508.024 358.105 507.568 359.831 507.171 361.694L508.149 361.902L509.127 362.11C509.51 360.311 509.949 358.652 510.518 356.897L509.566 356.589ZM508.149 361.902L507.174 361.682L506.807 363.312L507.783 363.531L508.759 363.75L509.125 362.121L508.149 361.902ZM507.783 363.531L506.807 363.315C505.444 369.469 504.278 375.657 503.13 381.833L504.113 382.016L505.096 382.199C506.245 376.022 507.405 369.864 508.759 363.747L507.783 363.531ZM504.113 382.016L503.13 381.832C502.71 384.076 502.288 386.32 501.865 388.563L502.848 388.748L503.831 388.934C504.254 386.689 504.676 384.445 505.096 382.2L504.113 382.016ZM502.848 388.748L501.865 388.564L501.558 390.199L502.54 390.384L503.523 390.569L503.831 388.933L502.848 388.748ZM502.54 390.384L501.558 390.197C500.917 393.574 500.213 396.933 499.466 400.293L500.442 400.51L501.418 400.727C502.169 397.351 502.877 393.972 503.523 390.57L502.54 390.384ZM500.442 400.51L499.465 400.296C496.783 412.521 495.532 427.541 501.883 439.183L502.761 438.704L503.638 438.225C497.656 427.257 498.755 412.866 501.419 400.724L500.442 400.51ZM502.761 438.704L501.93 439.261C510.647 452.263 525.284 455.058 539.122 458.176L539.341 457.201L539.561 456.225C525.507 453.058 511.782 450.364 503.591 438.147L502.761 438.704ZM539.341 457.201L539.121 458.176C561.2 463.165 579.115 472.13 595.412 487.698L596.103 486.975L596.794 486.252C580.207 470.408 561.956 461.286 539.562 456.225L539.341 457.201ZM596.103 486.975L595.429 487.714L596.883 489.039L597.557 488.3L598.23 487.561L596.777 486.236L596.103 486.975ZM597.557 488.3L596.875 489.031C600.876 492.763 604.126 497.165 607.429 501.644L608.234 501.051L609.039 500.457C605.754 496.003 602.398 491.448 598.239 487.569L597.557 488.3ZM608.234 501.051L607.429 501.644L607.557 501.818L608.362 501.225L609.167 500.632L609.039 500.457L608.234 501.051ZM608.362 501.225L607.56 501.822L608.436 503L609.239 502.404L610.041 501.807L609.165 500.628L608.362 501.225ZM609.239 502.404L608.432 502.995C638.847 544.425 645.527 599.535 638.382 649.282L639.371 649.424L640.361 649.566C647.552 599.502 640.872 543.804 610.045 501.812L609.239 502.404ZM639.371 649.424L638.381 649.284L638.065 651.517L639.056 651.657L640.046 651.797L640.362 649.564L639.371 649.424ZM639.056 651.657L638.066 651.513C637.343 656.475 636.478 661.404 635.506 666.33L636.487 666.524L637.468 666.717C638.446 661.764 639.317 656.802 640.045 651.801L639.056 651.657ZM636.487 666.524L635.506 666.331L635.082 668.489L636.063 668.682L637.044 668.875L637.468 666.716L636.487 666.524ZM636.063 668.682L635.083 668.484C631.175 687.81 624.706 706.725 616.116 724.513L617.016 724.948L617.917 725.383C626.577 707.45 633.101 688.377 637.043 668.88L636.063 668.682ZM617.016 724.948L616.115 724.514L614.98 726.869L615.881 727.303L616.782 727.737L617.917 725.382L617.016 724.948ZM615.881 727.303L614.982 726.866C609.537 738.07 603.621 748.939 597.127 759.582L597.981 760.102L598.834 760.623C605.363 749.925 611.309 739 616.781 727.74L615.881 727.303ZM597.981 760.102L597.127 759.582C596.059 761.333 595.002 763.089 593.949 764.846L594.807 765.36L595.665 765.874C596.717 764.119 597.77 762.368 598.834 760.623L597.981 760.102ZM594.807 765.36L593.951 764.843C586.763 776.75 578.747 788.174 570.324 799.285L571.121 799.889L571.918 800.493C580.369 789.344 588.428 777.861 595.663 765.877L594.807 765.36ZM571.121 799.889L570.324 799.286C569.277 800.67 568.241 802.061 567.207 803.449L568.01 804.046L568.812 804.643C569.845 803.255 570.878 801.87 571.919 800.492L571.121 799.889ZM568.01 804.046L567.209 803.447C562.634 809.567 557.859 815.447 552.805 821.186L553.556 821.847L554.306 822.508C559.395 816.729 564.203 810.807 568.81 804.645L568.01 804.046ZM553.556 821.847L552.803 821.189L551.414 822.778L552.167 823.436L552.92 824.095L554.309 822.505L553.556 821.847ZM552.167 823.436L551.416 822.776C548.634 825.941 545.794 829.057 542.942 832.174L543.68 832.849L544.417 833.524C547.27 830.407 550.122 827.278 552.918 824.097L552.167 823.436ZM543.68 832.849L542.941 832.175C541.869 833.351 540.803 834.531 539.745 835.718L540.491 836.384L541.237 837.049C542.291 835.868 543.352 834.693 544.419 833.523L543.68 832.849ZM540.491 836.384L539.746 835.717C536.56 839.274 533.274 842.729 529.905 846.125L530.615 846.829L531.325 847.533C534.713 844.117 538.023 840.638 541.236 837.051L540.491 836.384ZM530.615 846.829L529.898 846.131L528.693 847.368L529.41 848.066L530.126 848.764L531.331 847.527L530.615 846.829ZM529.41 848.066L528.704 847.357C526.943 849.112 526.193 849.848 525.557 850.232C525.011 850.561 524.563 850.626 523.16 850.778L523.268 851.772L523.376 852.766C524.69 852.624 525.601 852.541 526.59 851.944C527.489 851.401 528.452 850.431 530.115 848.774L529.41 848.066ZM523.268 851.772L523.971 851.061C523.105 850.206 522.736 849.522 522.519 848.778C522.275 847.947 522.218 847.073 522.013 845.636L521.023 845.777L520.033 845.918C520.21 847.163 520.302 848.325 520.599 849.34C520.922 850.442 521.484 851.415 522.565 852.483L523.268 851.772ZM521.023 845.777L522.012 845.63L521.817 844.32L520.828 844.467L519.839 844.615L520.034 845.924L521.023 845.777ZM520.828 844.467L521.817 844.32C521.741 843.813 521.665 843.305 521.589 842.798L520.6 842.946L519.611 843.094C519.687 843.601 519.763 844.108 519.839 844.615L520.828 844.467ZM520.6 842.946L521.59 842.802L521.372 841.306L520.383 841.45L519.393 841.594L519.611 843.09L520.6 842.946ZM520.383 841.45L521.372 841.304C519.752 830.312 517.96 819.837 511.962 809.956L511.107 810.475L510.252 810.994C516.017 820.492 517.772 830.594 519.393 841.596L520.383 841.45ZM511.107 810.475L511.978 809.984C511.542 809.211 511.414 808.97 511.352 808.752C511.296 808.556 511.287 808.359 511.287 807.597H510.287H509.287C509.287 808.261 509.279 808.776 509.428 809.3C509.571 809.802 509.853 810.287 510.236 810.967L511.107 810.475ZM510.287 807.597V806.597H508.845V807.597V808.597H510.287V807.597ZM508.845 807.597L507.894 807.29L507.046 809.914L507.997 810.222L508.949 810.529L509.797 807.905L508.845 807.597ZM507.997 810.222L507.05 809.902C502.761 822.595 497.482 835.4 490.49 846.828L491.343 847.35L492.196 847.871C499.296 836.268 504.63 823.31 508.945 810.542L507.997 810.222ZM491.343 847.35L490.488 846.832L489.673 848.178L490.528 848.696L491.384 849.214L492.199 847.867L491.343 847.35ZM490.528 848.696L489.676 848.173C488.943 849.369 488.188 850.555 487.427 851.746L488.27 852.284L489.113 852.822C489.874 851.631 490.637 850.432 491.381 849.218L490.528 848.696ZM488.27 852.284L487.359 851.871C485.563 855.836 485.813 859.45 486.972 863.45L487.932 863.172L488.893 862.894C487.813 859.166 487.649 856.079 489.181 852.697L488.27 852.284ZM487.932 863.172L486.945 863.33C487.654 867.764 488.002 871.278 485.618 874.752L486.442 875.318L487.266 875.884C490.144 871.692 489.626 867.429 488.92 863.014L487.932 863.172ZM486.442 875.318L485.737 874.609C483.716 876.62 481.631 878.424 479.38 880.199L480 880.984L480.619 881.769C482.917 879.957 485.061 878.102 487.147 876.027L486.442 875.318ZM480 880.984L479.36 880.216L477.397 881.849L478.036 882.618L478.676 883.387L480.639 881.753L480 880.984ZM478.036 882.618L477.401 881.846C476.117 882.901 474.821 883.943 473.514 884.971L474.132 885.757L474.75 886.543C476.068 885.506 477.376 884.456 478.671 883.39L478.036 882.618ZM474.132 885.757L473.51 884.974C471.675 886.431 469.886 887.925 468.112 889.438L468.76 890.199L469.409 890.96C471.174 889.455 472.944 887.977 474.754 886.541L474.132 885.757ZM468.76 890.199L468.113 889.437C462.484 894.224 456.586 898.623 450.568 902.974L451.154 903.784L451.74 904.595C457.77 900.236 463.719 895.8 469.408 890.961L468.76 890.199ZM451.154 903.784L450.568 902.974L448.974 904.127L449.561 904.937L450.147 905.747L451.74 904.594L451.154 903.784ZM449.561 904.937L448.975 904.127C418.162 926.382 385.862 946.406 352.593 964.897L353.079 965.771L353.565 966.645C386.888 948.124 419.258 928.058 450.146 905.748L449.561 904.937ZM353.079 965.771L352.593 964.897L351.225 965.658L351.711 966.532L352.197 967.406L353.565 966.645L353.079 965.771ZM351.711 966.532L351.226 965.657C348.452 967.198 345.675 968.733 342.893 970.26L343.375 971.136L343.856 972.013C346.64 970.484 349.42 968.948 352.197 967.406L351.711 966.532ZM343.375 971.136L342.893 970.26C341.608 970.966 340.325 971.675 339.042 972.384L339.526 973.259L340.01 974.134C341.292 973.426 342.573 972.718 343.856 972.013L343.375 971.136ZM339.526 973.259L339.047 972.381C334.725 974.741 330.365 977.006 325.932 979.139L326.366 980.04L326.799 980.941C331.269 978.791 335.66 976.51 340.005 974.137L339.526 973.259ZM326.366 980.04L325.919 979.146L324.563 979.823L325.01 980.717L325.456 981.612L326.813 980.935L326.366 980.04ZM325.01 980.717L324.584 979.812C323.222 980.452 322.246 980.828 321.297 980.954C320.377 981.075 319.409 980.97 318.074 980.502L317.743 981.446L317.413 982.39C318.963 982.933 320.254 983.109 321.559 982.936C322.835 982.768 324.048 982.274 325.435 981.623L325.01 980.717ZM317.743 981.446L318.139 980.528C316.587 979.858 315.053 979.141 313.531 978.392L313.09 979.289L312.648 980.186C314.193 980.947 315.758 981.679 317.347 982.364L317.743 981.446ZM313.09 979.289L313.53 978.391L312.192 977.735L311.751 978.632L311.311 979.53L312.649 980.187L313.09 979.289ZM311.751 978.632L312.193 977.735C310.765 977.032 309.34 976.321 307.914 975.609L307.467 976.503L307.02 977.397C308.447 978.111 309.876 978.823 311.309 979.529L311.751 978.632ZM307.467 976.503L307.912 975.608L306.427 974.869L305.982 975.764L305.536 976.659L307.022 977.398L307.467 976.503ZM305.982 975.764L306.427 974.869C299.485 971.412 292.686 967.848 286.093 963.827L285.572 964.681L285.051 965.535C291.715 969.599 298.572 973.192 305.536 976.659L305.982 975.764ZM285.572 964.681L286.092 963.827C284.015 962.564 281.929 961.317 279.847 960.073L279.334 960.931L278.821 961.79C280.904 963.034 282.983 964.277 285.052 965.535L285.572 964.681ZM279.334 960.931L279.847 960.073C276.403 958.014 272.963 955.95 269.525 953.882L269.01 954.739L268.494 955.595C271.934 957.665 275.375 959.73 278.821 961.789L279.334 960.931ZM269.01 954.739L269.525 953.882C265.975 951.745 262.421 949.615 258.863 947.49L258.351 948.348L257.838 949.207C261.393 951.331 264.946 953.46 268.494 955.595L269.01 954.739ZM258.351 948.348L258.863 947.49C234.016 932.643 209.864 917.012 186.564 899.905L185.972 900.711L185.38 901.517C208.743 918.67 232.95 934.336 257.838 949.207L258.351 948.348ZM185.972 900.711L186.563 899.905C185.018 898.772 183.469 897.644 181.92 896.518L181.332 897.327L180.744 898.136C182.293 899.261 183.839 900.387 185.381 901.518L185.972 900.711ZM181.332 897.327L181.922 896.519C169.393 887.374 163.187 882.842 159.726 879.854C158.009 878.372 157.007 877.303 156.256 876.268C155.499 875.226 154.971 874.188 154.216 872.695L153.323 873.147L152.431 873.598C153.174 875.067 153.771 876.25 154.638 877.444C155.511 878.645 156.634 879.828 158.419 881.368C161.96 884.425 168.259 889.022 180.743 898.135L181.332 897.327ZM153.323 873.147L154.322 873.1C154.253 871.623 154.23 870.139 154.233 868.652L153.233 868.649L152.233 868.647C152.23 870.158 152.253 871.675 152.324 873.194L153.323 873.147ZM153.233 868.649L154.233 868.647L154.228 866.206L153.228 866.208L152.228 866.211L152.233 868.652L153.233 868.649ZM153.228 866.208L154.227 866.249C154.309 864.259 154.578 862.505 155.02 860.542L154.044 860.322L153.069 860.102C152.606 862.155 152.316 864.031 152.228 866.167L153.228 866.208ZM154.044 860.322L155.039 860.423C155.314 857.714 155.079 855.625 154.396 853.632C153.724 851.672 152.631 849.847 151.289 847.683L150.439 848.21L149.589 848.736C150.944 850.922 151.916 852.565 152.504 854.28C153.08 855.961 153.299 857.754 153.05 860.221L154.044 860.322ZM150.439 848.21L151.301 847.703C147.24 840.794 143.94 833.589 140.718 826.212L139.802 826.612L138.886 827.012C142.113 834.402 145.451 841.699 149.577 848.716L150.439 848.21ZM139.802 826.612L140.718 826.212L140.106 824.81L139.19 825.211L138.273 825.611L138.886 827.012L139.802 826.612ZM139.19 825.211L140.107 824.811C137.771 819.451 135.493 814.078 133.34 808.654L132.41 809.022L131.481 809.391C133.645 814.844 135.933 820.239 138.273 825.61L139.19 825.211ZM132.41 809.022L131.631 808.396C127.931 812.998 125.594 818.659 123.93 824.487C122.268 830.31 121.255 836.384 120.253 841.803L121.236 841.985L122.219 842.167C123.232 836.695 124.224 830.743 125.854 825.036C127.482 819.333 129.725 813.958 133.19 809.649L132.41 809.022ZM121.236 841.985L120.253 841.801C119.694 844.798 119.081 847.785 118.466 850.783L119.445 850.984L120.425 851.185C121.039 848.19 121.656 845.185 122.219 842.168L121.236 841.985ZM119.445 850.984L118.466 850.783L118.45 850.859L119.43 851.06L120.409 851.26L120.425 851.185L119.445 850.984ZM119.43 851.06L119.449 850.06C117.402 850.021 116.033 849.715 114.844 849.117C113.633 848.508 112.529 847.556 111.059 846.071L110.348 846.774L109.638 847.477C111.134 848.989 112.428 850.14 113.945 850.903C115.484 851.678 117.173 852.017 119.411 852.059L119.43 851.06ZM110.348 846.774L111.076 846.088L109.701 844.629L108.973 845.315L108.246 846.001L109.621 847.46L110.348 846.774ZM108.973 845.315L109.689 844.617L108.242 843.133L107.526 843.831L106.81 844.529L108.257 846.013L108.973 845.315ZM107.526 843.831L108.244 843.135C105.572 840.378 102.953 837.594 100.474 834.693L99.7139 835.343L98.9538 835.993C101.472 838.939 104.124 841.757 106.808 844.527L107.526 843.831ZM99.7139 835.343L100.47 834.688C99.0549 833.053 97.5844 831.478 96.1261 829.915L95.395 830.597L94.6638 831.279C96.1263 832.846 97.5712 834.395 98.9578 835.997L99.7139 835.343ZM95.395 830.597L96.1262 829.915L95.7324 829.492L95.0012 830.175L94.2699 830.857L94.6637 831.279L95.395 830.597ZM95.0012 830.175L95.7364 829.497C92.2083 825.67 88.8927 821.701 85.5899 817.653L84.8151 818.285L84.0403 818.917C87.3503 822.974 90.6963 826.981 94.266 830.852L95.0012 830.175ZM84.8151 818.285L85.5844 817.646C84.8561 816.769 84.127 815.893 83.3973 815.017L82.6291 815.657L81.8609 816.298C82.59 817.172 83.3183 818.048 84.0458 818.924L84.8151 818.285ZM82.6291 815.657L83.398 815.018C74.7591 804.631 66.7043 793.862 58.9519 782.799L58.1329 783.373L57.314 783.946C65.0896 795.043 73.178 805.857 81.8603 816.297L82.6291 815.657ZM58.1329 783.373L58.9502 782.796L58.0682 781.545L57.2509 782.122L56.4336 782.698L57.3156 783.949L58.1329 783.373ZM57.2509 782.122L58.0693 781.547C27.237 737.635 2.10561 684.246 2.04177 630.096L1.04177 630.097L0.041772 630.099C0.106297 684.834 25.4902 738.628 56.4325 782.696L57.2509 782.122ZM1.04177 630.097L2.04177 630.094L2.03448 627.877L1.03449 627.88L0.0344923 627.883L0.0417767 630.101L1.04177 630.097ZM1.03449 627.88L2.03448 627.878C2.03086 626.339 2.02915 624.799 2.02927 623.26L1.02927 623.26L0.0292711 623.26C0.0291545 624.801 0.0308611 626.342 0.0344896 627.882L1.03449 627.88ZM1.02927 623.26L2.02927 623.259C2.0277 620.946 2.01459 618.633 2.00091 616.323L1.00093 616.329L0.000943069 616.335C0.0146247 618.646 0.0277062 620.953 0.0292713 623.261L1.02927 623.26ZM1.00093 616.329L2.00092 616.326C1.96667 604.135 2.88472 592.336 5.16501 580.365L4.18267 580.178L3.20034 579.991C0.892607 592.106 -0.0336223 604.034 0.000929486 616.332L1.00093 616.329ZM4.18267 580.178L5.16511 580.365L5.63026 577.916L4.64782 577.729L3.66538 577.542L3.20023 579.992L4.18267 580.178ZM4.64782 577.729L5.62878 577.923C7.26871 569.641 9.54999 561.593 12.2083 553.551L11.2589 553.237L10.3094 552.923C7.63365 561.018 5.32735 569.149 3.66687 577.535L4.64782 577.729ZM11.2589 553.237L12.2091 553.549L12.7883 551.782L11.8381 551.47L10.8878 551.159L10.3086 552.926L11.2589 553.237ZM11.8381 551.47L12.7866 551.787C17.5811 537.433 24.3479 523.514 32.9934 511.058L32.1719 510.487L31.3504 509.917C22.5876 522.543 15.739 536.635 10.8896 551.153L11.8381 551.47ZM32.1719 510.487L32.9955 511.055L34.4463 508.948L33.6226 508.381L32.799 507.813L31.3483 509.92L32.1719 510.487ZM33.6226 508.381L34.4365 508.962C51.3247 485.304 73.8298 468.095 103.015 463.023L102.844 462.038L102.672 461.053C72.8491 466.235 49.9234 483.824 32.8087 507.8L33.6226 508.381ZM102.844 462.038L103.004 463.025C110.754 461.768 118.311 461.357 126.186 461.39L126.19 460.39L126.195 459.39C118.243 459.357 110.572 459.771 102.683 461.051L102.844 462.038ZM126.19 460.39L126.19 461.39L127.922 461.391L127.922 460.391L127.922 459.391L126.191 459.39L126.19 460.39ZM127.922 460.391L127.921 461.391C136.286 461.402 144.539 461.844 152.863 462.677L152.963 461.682L153.062 460.687C144.677 459.848 136.358 459.402 127.923 459.391L127.922 460.391ZM152.963 461.682L152.799 462.668C160.449 463.938 164.399 464.597 168.266 464.517C172.136 464.437 175.906 463.615 183.192 462.035L182.98 461.058L182.768 460.081C175.411 461.676 171.858 462.442 168.224 462.517C164.586 462.593 160.85 461.977 153.127 460.695L152.963 461.682ZM182.98 461.058L183.618 461.828C185.082 460.615 185.108 460.591 186.49 459.174L185.775 458.475L185.059 457.777C183.723 459.146 183.749 459.122 182.342 460.288L182.98 461.058ZM185.775 458.475L186.446 459.217C187.645 458.132 188.846 457.049 190.049 455.968L189.38 455.225L188.712 454.481C187.508 455.563 186.305 456.647 185.104 457.734L185.775 458.475ZM189.38 455.225L190.057 455.961L192.069 454.11L191.392 453.374L190.714 452.638L188.703 454.489L189.38 455.225ZM191.392 453.374L192.058 454.119C196.139 450.47 200.629 447.298 205.1 443.979L204.504 443.176L203.908 442.373C199.491 445.652 194.894 448.9 190.725 452.628L191.392 453.374ZM204.504 443.176L205.101 443.978C208.037 441.794 210.944 439.576 213.846 437.361L213.239 436.566L212.632 435.771C209.729 437.987 206.831 440.198 203.907 442.374L204.504 443.176ZM213.239 436.566L213.846 437.361L214.664 436.737L214.058 435.942L213.451 435.147L212.633 435.771L213.239 436.566ZM214.058 435.942L214.664 436.737C215.58 436.039 216.496 435.341 217.413 434.644L216.808 433.848L216.203 433.052C215.285 433.75 214.368 434.448 213.452 435.147L214.058 435.942ZM216.808 433.848L217.413 434.644C224.997 428.875 232.472 422.993 239.824 416.93L239.188 416.159L238.551 415.387C231.223 421.43 223.769 427.296 216.202 433.052L216.808 433.848ZM239.188 416.159L239.823 416.931C241.11 415.873 242.406 414.823 243.705 413.774L243.077 412.995L242.449 412.217C241.147 413.268 239.847 414.322 238.553 415.386L239.188 416.159ZM243.077 412.995L243.708 413.771C260.143 400.415 272.494 384.602 278.322 363.986L277.359 363.714L276.397 363.442C270.71 383.562 258.653 399.048 242.446 412.219L243.077 412.995ZM277.359 363.714L278.312 364.019L278.844 362.361L277.892 362.055L276.94 361.749L276.407 363.408L277.359 363.714ZM277.892 362.055L278.854 362.328C279.913 358.598 279.967 354.845 280.026 351.168L279.026 351.152L278.026 351.136C277.967 354.855 277.906 358.345 276.93 361.782L277.892 362.055ZM279.026 351.152L280.026 351.168L280.027 351.127L279.027 351.112L278.027 351.096L278.026 351.136L279.026 351.152ZM279.027 351.112L280.027 351.136L280.066 349.57L279.066 349.545L278.066 349.52L278.027 351.087L279.027 351.112ZM279.066 349.545L280.066 349.543C280.061 346.112 279.765 343.316 277.429 340.301L276.638 340.914L275.848 341.527C277.776 344.015 278.061 346.265 278.066 349.546L279.066 349.545ZM276.638 340.914L277.109 340.032C272.824 337.747 268.18 337.382 263.604 337.42L263.613 338.42L263.621 339.42C268.111 339.383 272.338 339.754 276.168 341.796L276.638 340.914ZM263.613 338.42L263.605 337.42L261.811 337.434L261.819 338.434L261.827 339.434L263.62 339.42L263.613 338.42ZM261.819 338.434L261.79 337.435C251.685 337.728 242.254 341.701 233.658 347.138C225.062 352.574 217.234 359.518 210.339 365.826L211.015 366.564L211.69 367.302C218.583 360.995 226.296 354.16 234.727 348.828C243.155 343.497 252.233 339.713 261.848 339.434L261.819 338.434ZM211.015 366.564L210.34 365.826L209.01 367.042L209.685 367.78L210.359 368.518L211.689 367.302L211.015 366.564ZM209.685 367.78L209.017 367.036C203.322 372.147 200.37 374.791 198.085 377.849C195.798 380.91 194.192 384.37 191.088 391.034L191.994 391.456L192.901 391.879C196.038 385.143 197.552 381.904 199.687 379.046C201.826 376.184 204.598 373.689 210.353 368.524L209.685 367.78ZM191.994 391.456L191.002 391.579C191.187 393.072 191.435 394.176 191.995 395.176C192.549 396.165 193.364 396.969 194.492 397.954L195.149 397.201L195.807 396.448C194.695 395.477 194.113 394.864 193.74 394.198C193.373 393.543 193.163 392.752 192.987 391.333L191.994 391.456ZM195.149 397.201L194.752 398.119C196.771 398.994 198.789 399.705 200.863 400.366L201.166 399.414L201.47 398.461C199.433 397.811 197.484 397.123 195.547 396.283L195.149 397.201ZM201.166 399.414L200.851 400.362C202.497 400.91 203.964 401.548 205.499 402.36L205.967 401.476L206.434 400.592C204.809 399.732 203.24 399.05 201.482 398.465L201.166 399.414ZM205.967 401.476L205.04 401.101C203.916 403.875 201.246 406.002 197.951 407.781C194.652 409.563 191.005 410.86 188.003 412.161L188.401 413.078L188.798 413.996C191.627 412.77 195.505 411.375 198.901 409.541C202.302 407.705 205.499 405.294 206.893 401.851L205.967 401.476ZM188.401 413.078L188.013 412.156C179.964 415.538 172.19 416.863 163.419 417.265L163.464 418.264L163.51 419.263C172.443 418.854 180.463 417.497 188.788 414L188.401 413.078ZM163.464 418.264L163.416 417.265L161.504 417.358L161.553 418.357L161.602 419.356L163.513 419.263L163.464 418.264ZM161.553 418.357L161.505 417.358C159.964 417.433 158.424 417.505 156.883 417.577L156.929 418.576L156.975 419.575C158.517 419.503 160.059 419.431 161.602 419.356L161.553 418.357ZM156.929 418.576L155.931 418.512C155.826 420.152 155.839 421.509 156.16 422.82C156.484 424.145 157.104 425.35 158.102 426.732L158.912 426.146L159.723 425.56C158.822 424.314 158.347 423.343 158.103 422.345C157.855 421.332 157.826 420.218 157.927 418.64L156.929 418.576ZM158.912 426.146L158.098 426.726L159.284 428.391L160.098 427.81L160.913 427.23L159.727 425.566L158.912 426.146ZM160.098 427.81L159.301 428.414C159.877 429.176 160.208 429.615 160.62 430.048C161.026 430.473 161.506 430.885 162.36 431.623L163.014 430.866L163.667 430.109C162.781 429.344 162.391 429.006 162.067 428.667C161.751 428.335 161.494 427.998 160.896 427.207L160.098 427.81ZM163.014 430.866L162.272 431.537L163.399 432.784L164.14 432.113L164.882 431.443L163.756 430.196L163.014 430.866ZM164.14 432.113L163.145 432.022C163.052 433.024 163.012 433.45 162.935 433.83C162.86 434.2 162.749 434.535 162.472 435.356L163.419 435.676L164.367 435.995C164.631 435.213 164.79 434.747 164.895 434.226C164.999 433.715 165.048 433.161 165.136 432.205L164.14 432.113ZM163.419 435.676L163.15 434.713C149.259 438.601 132.535 433.886 119.951 427.27L119.486 428.155L119.021 429.041C131.788 435.752 149.076 440.729 163.689 436.639L163.419 435.676ZM119.486 428.155L119.999 427.297C106.871 419.462 96.1409 408.078 91.4137 393.598L90.4631 393.908L89.5124 394.219C94.4255 409.268 105.542 420.998 118.974 429.014L119.486 428.155ZM90.4631 393.908L91.4334 393.667C90.3919 389.488 90.2514 385.703 92.1917 381.989L91.3053 381.526L90.419 381.063C88.1591 385.389 88.3929 389.737 89.4928 394.15L90.4631 393.908ZM91.3053 381.526L91.1663 382.516C93.9053 382.901 95.7279 383.778 98.1756 385.274L98.697 384.421L99.2184 383.567C96.6571 382.002 94.5655 380.974 91.4444 380.536L91.3053 381.526ZM98.697 384.421L98.2102 385.294C100.722 386.694 102.921 387.422 105.211 387.607C107.486 387.791 109.78 387.433 112.458 386.772L112.218 385.801L111.979 384.83C109.379 385.472 107.33 385.772 105.373 385.614C103.431 385.457 101.508 384.842 99.1839 383.547L98.697 384.421ZM112.218 385.801L113.217 385.86L113.938 373.748L112.94 373.689L111.941 373.629L111.22 385.742L112.218 385.801ZM112.94 373.689L112.817 374.681C116.052 375.081 117.567 375.27 118.582 375.528C119.513 375.765 119.985 376.048 121.162 376.768L121.683 375.915L122.205 375.062C121.033 374.345 120.33 373.91 119.075 373.59C117.904 373.292 116.222 373.086 113.062 372.696L112.94 373.689ZM121.683 375.915L121.212 376.797C122.233 377.343 123.007 377.735 123.861 377.955C124.727 378.178 125.615 378.209 126.859 378.161L126.821 377.162L126.783 376.163C125.589 376.208 124.937 376.166 124.359 376.018C123.769 375.866 123.193 375.588 122.155 375.033L121.683 375.915ZM126.821 377.162L127.121 378.116C128.909 377.554 130.515 376.934 132.184 375.982L131.689 375.114L131.194 374.245C129.691 375.102 128.229 375.671 126.522 376.208L126.821 377.162ZM131.689 375.114L132.688 375.158C132.823 372.088 132.614 369.409 131.944 366.391L130.968 366.608L129.992 366.825C130.622 369.66 130.818 372.163 130.69 375.07L131.689 375.114ZM130.968 366.608L131.945 366.393C131.266 363.311 131.126 360.536 131.246 357.339L130.247 357.301L129.248 357.264C129.123 360.577 129.267 363.53 129.991 366.823L130.968 366.608ZM130.247 357.301L130.281 358.301C135.825 358.112 141.109 358.838 146.678 359.714L146.833 358.726L146.989 357.738C141.412 356.861 135.964 356.106 130.213 356.302L130.247 357.301ZM146.833 358.726L147.825 358.852C148.479 353.688 148.767 348.566 148.959 343.4L147.96 343.363L146.961 343.326C146.769 348.471 146.484 353.524 145.841 358.601L146.833 358.726ZM147.96 343.363L148.959 343.403L149.053 341.019L148.054 340.979L147.055 340.94L146.961 343.324L147.96 343.363ZM148.054 340.979L149.053 341.019C149.129 339.096 149.203 337.174 149.275 335.251L148.275 335.214L147.276 335.177C147.204 337.098 147.131 339.019 147.055 340.94L148.054 340.979ZM148.275 335.214L148.134 336.204C150.628 336.56 152.433 336.947 154.671 337.952L155.081 337.04L155.491 336.128C153.014 335.015 151.003 334.593 148.417 334.224L148.275 335.214ZM155.081 337.04L154.711 337.969C159.379 339.828 164.677 339.221 169.223 339.063L169.188 338.064L169.154 337.065C164.339 337.232 159.62 337.771 155.451 336.111L155.081 337.04ZM169.188 338.064L170.125 338.414C172.182 332.905 172.631 328.027 172.487 322.275L171.487 322.3L170.487 322.325C170.628 327.919 170.19 332.522 168.252 337.714L169.188 338.064ZM171.487 322.3L172.487 322.287L172.457 320.016L171.457 320.029L170.458 320.042L170.487 322.313L171.487 322.3ZM171.457 320.029L172.457 320.015C172.432 318.185 172.397 316.356 172.352 314.527L171.352 314.552L170.352 314.576C170.397 316.399 170.432 318.22 170.458 320.043L171.457 320.029ZM171.352 314.552L171.827 315.432C192.108 304.486 215.418 295.485 238.689 295.468L238.688 294.468L238.688 293.468C214.934 293.485 191.278 302.661 170.877 313.672L171.352 314.552ZM238.688 294.468L238.702 295.468L240.657 295.442L240.643 294.442L240.63 293.442L238.675 293.468L238.688 294.468ZM240.643 294.442L240.645 295.442C244.833 295.433 248.515 295.958 252.594 296.996L252.841 296.027L253.087 295.058C248.869 293.984 245.019 293.432 240.641 293.442L240.643 294.442ZM252.841 296.027L253.655 295.446C250.154 290.536 245.804 288.438 240.069 287.211L239.86 288.189L239.651 289.167C245.072 290.327 248.905 292.23 252.026 296.607L252.841 296.027ZM239.86 288.189L239.938 287.192C229.207 286.358 218.96 287.41 208.602 290.071L208.851 291.039L209.1 292.008C219.265 289.397 229.291 288.37 239.783 289.186L239.86 288.189ZM208.851 291.039L208.607 290.07L206.86 290.509L207.104 291.479L207.348 292.449L209.095 292.009L208.851 291.039ZM207.104 291.479L206.855 290.511C196.401 293.206 186.493 297.159 176.713 301.526L177.121 302.439L177.529 303.352C187.266 299.005 197.057 295.102 207.354 292.447L207.104 291.479ZM177.121 302.439L176.714 301.526L175.103 302.244L175.51 303.158L175.917 304.071L177.528 303.353L177.121 302.439ZM175.51 303.158L175.093 302.249C163.995 307.334 154.002 314.676 144.046 321.349L144.603 322.18L145.16 323.01C155.218 316.268 165.018 309.065 175.927 304.067L175.51 303.158ZM144.603 322.18L144.047 321.349C140.633 323.636 137.216 325.917 133.792 328.188L134.345 329.021L134.897 329.854C138.325 327.582 141.745 325.299 145.16 323.01L144.603 322.18ZM134.345 329.021L133.792 328.188C132.986 328.722 132.18 329.258 131.375 329.794L131.929 330.626L132.484 331.458C133.288 330.923 134.092 330.388 134.897 329.854L134.345 329.021ZM131.929 330.626L131.376 329.793C125.127 333.947 118.746 337.804 112.131 341.355L112.604 342.236L113.077 343.117C119.752 339.534 126.186 335.644 132.483 331.459L131.929 330.626ZM112.604 342.236L112.119 341.361L110.263 342.391L110.748 343.266L111.233 344.14L113.089 343.11L112.604 342.236ZM110.748 343.266L110.276 342.384L108.648 343.256L109.121 344.138L109.593 345.019L111.22 344.147L110.748 343.266ZM109.121 344.138L108.471 343.378C106.025 345.469 106.222 348.09 106.026 350.446L107.022 350.529L108.019 350.612C108.248 347.856 108.102 346.325 109.771 344.898L109.121 344.138ZM107.022 350.529L106.023 350.486L105.943 352.329L106.942 352.372L107.941 352.416L108.021 350.573L107.022 350.529ZM106.942 352.372L105.943 352.327L105.852 354.338L106.851 354.383L107.85 354.429L107.941 352.418L106.942 352.372ZM106.851 354.383L105.852 354.342L105.766 356.414L106.765 356.455L107.764 356.497L107.85 354.425L106.851 354.383ZM106.765 356.455L105.766 356.411L105.671 358.524L106.67 358.569L107.669 358.614L107.764 356.5L106.765 356.455ZM106.67 358.569L105.671 358.525C105.595 360.24 105.521 361.956 105.45 363.672L106.449 363.714L107.448 363.755C107.52 362.041 107.593 360.327 107.669 358.613L106.67 358.569ZM106.449 363.714L106.567 362.721C105.115 362.549 104.148 362.282 103.314 361.844C102.474 361.401 101.699 360.746 100.682 359.683L99.959 360.374L99.2363 361.065C100.309 362.187 101.26 363.022 102.382 363.613C103.512 364.208 104.745 364.519 106.332 364.707L106.449 363.714ZM99.959 360.374L100.673 359.674L99.1602 358.132L98.4463 358.832L97.7325 359.532L99.2452 361.074L99.959 360.374ZM98.4463 358.832L99.191 358.165C98.0569 356.899 97.1224 355.626 96.1411 354.197L95.3167 354.763L94.4923 355.329C95.4949 356.789 96.4849 358.142 97.7016 359.499L98.4463 358.832ZM95.3167 354.763L96.0755 354.112C95.6806 353.652 95.3569 353.274 95.0779 352.984C94.7972 352.693 94.5093 352.435 94.1687 352.247C93.4686 351.861 92.7234 351.893 91.927 351.898L91.9335 352.898L91.94 353.898C92.9164 353.892 93.0575 353.918 93.2033 353.999C93.2855 354.044 93.4104 354.136 93.638 354.373C93.8674 354.61 94.1476 354.936 94.5579 355.414L95.3167 354.763ZM91.9335 352.898L91.8331 351.903C90.0842 352.08 88.4465 352.378 86.7558 352.764L86.9785 353.739L87.2012 354.714C88.8343 354.341 90.3879 354.059 92.0339 353.893L91.9335 352.898ZM86.9785 353.739L86.7839 352.758C85.5825 352.996 84.3813 353.234 83.1799 353.47L83.3728 354.451L83.5657 355.433C84.7686 355.196 85.9711 354.958 87.1731 354.72L86.9785 353.739ZM83.3728 354.451L82.3749 354.516C82.4776 356.091 82.5834 357.666 82.6906 359.24L83.6883 359.172L84.686 359.104C84.5789 357.531 84.4731 355.959 84.3707 354.386L83.3728 354.451ZM83.6883 359.172L82.6905 359.238L82.868 361.893L83.8658 361.827L84.8635 361.76L84.6861 359.105L83.6883 359.172ZM83.8658 361.827L82.8696 361.914C83.0768 364.275 83.4015 366.561 83.8318 368.883L84.8151 368.701L85.7983 368.519C85.3783 366.252 85.063 364.029 84.8619 361.739L83.8658 361.827ZM84.8151 368.701L84.8345 367.701C79.9421 367.607 76.777 365.746 72.3916 363.074L71.8712 363.928L71.3508 364.782C75.7258 367.448 79.3075 369.595 84.7957 369.701L84.8151 368.701ZM71.8712 363.928L72.3482 363.049C71.8312 362.769 71.4003 362.534 71.0338 362.366C70.6589 362.194 70.2884 362.061 69.8818 362.015C69.0922 361.927 68.3439 362.207 67.4312 362.52L67.7556 363.466L68.0801 364.412C69.1676 364.039 69.4194 363.976 69.6587 364.003C69.7666 364.015 69.9177 364.054 70.2002 364.184C70.4912 364.317 70.8535 364.513 71.3942 364.807L71.8712 363.928ZM67.7556 363.466L67.2617 362.597L65.5715 363.557L66.0655 364.426L66.5594 365.296L68.2496 364.335L67.7556 363.466ZM66.0655 364.426L65.6205 363.531L64.1641 364.254L64.6091 365.15L65.0541 366.045L66.5104 365.322L66.0655 364.426ZM64.6091 365.15L64.0467 364.323C62.3778 365.458 61.3121 366.383 60.1749 368.163L61.0175 368.701L61.8601 369.24C62.8081 367.757 63.6487 367.013 65.1715 365.977L64.6091 365.15ZM61.0175 368.701L60.0248 368.58C59.6924 371.305 59.7452 373.824 59.9124 376.498L60.9104 376.436L61.9085 376.373C61.7445 373.75 61.6993 371.37 62.0101 368.822L61.0175 368.701ZM60.9104 376.436L59.9116 376.483C59.9668 377.64 59.9844 378.091 59.9237 378.524C59.8628 378.958 59.7211 379.391 59.3488 380.494L60.2963 380.814L61.2439 381.133C61.5928 380.099 61.8116 379.463 61.9043 378.802C61.9971 378.141 61.9611 377.472 61.9093 376.388L60.9104 376.436ZM60.2963 380.814L60.1999 379.818C52.5373 380.56 45.7648 376.969 39.624 372.245L39.0143 373.037L38.4046 373.83C44.669 378.649 51.9593 382.626 60.3928 381.809L60.2963 380.814ZM39.0143 373.037L39.6521 372.267C28.7359 363.226 19.9519 349.889 18.6062 335.808L17.6107 335.904L16.6153 335.999C18.0249 350.748 27.1768 364.531 38.3764 373.808L39.0143 373.037ZM17.6107 335.904L18.6081 335.831C17.7065 323.46 19.9678 309.601 25.842 298.637L24.9605 298.164L24.079 297.692C17.9938 309.051 15.6896 323.302 16.6134 335.976L17.6107 335.904ZM24.9605 298.164L25.8493 298.623L26.8352 296.711L25.9464 296.252L25.0576 295.794L24.0717 297.706L24.9605 298.164ZM25.9464 296.252L26.8203 296.738C29.0242 292.778 31.6419 288.983 35.5229 286.936L35.0565 286.052L34.59 285.167C30.1581 287.504 27.3034 291.757 25.0726 295.766L25.9464 296.252ZM35.0565 286.052L34.9406 287.045C35.9476 287.163 36.3959 287.216 36.7986 287.295C37.194 287.373 37.5513 287.478 38.3781 287.723L38.6622 286.764L38.9462 285.806C38.1477 285.569 37.6922 285.433 37.1863 285.333C36.6875 285.235 36.1457 285.172 35.1723 285.059L35.0565 286.052ZM38.6622 286.764L37.7146 287.084L39.1569 291.359L40.1044 291.039L41.052 290.72L39.6097 286.445L38.6622 286.764ZM40.1044 291.039L40.568 291.925C44.5401 289.847 47.7428 287.462 51.0448 284.528L50.3807 283.781L49.7165 283.033C46.5008 285.89 43.4316 288.17 39.6409 290.153L40.1044 291.039ZM50.3807 283.781L51.041 284.532C51.9142 283.764 52.7887 282.997 53.6642 282.232L53.0061 281.479L52.3479 280.726C51.471 281.493 50.5951 282.261 49.7203 283.03L50.3807 283.781ZM53.0061 281.479L53.6644 282.232L55.0733 281L54.4149 280.247L53.7565 279.494L52.3477 280.726L53.0061 281.479ZM54.4149 280.247L55.0621 281.009C56.7552 279.572 58.4958 278.197 60.258 276.806L59.6383 276.021L59.0186 275.236C57.261 276.624 55.4924 278.02 53.7677 279.485L54.4149 280.247ZM59.6383 276.021L60.258 276.806L60.3808 276.709L59.7611 275.924L59.1414 275.139L59.0186 275.236L59.6383 276.021ZM59.7611 275.924L60.388 276.703C64.4868 273.406 68.2455 269.846 71.9362 266.168L71.2303 265.46L70.5244 264.752C66.8549 268.409 63.1533 271.911 59.1343 275.145L59.7611 275.924ZM71.2303 265.46L71.9358 266.169C72.987 265.122 74.0462 264.083 75.109 263.042L74.4093 262.328L73.7095 261.614C72.6468 262.655 71.5824 263.699 70.5249 264.751L71.2303 265.46ZM74.4093 262.328L75.1116 263.04C79.1076 259.097 82.8371 255.013 86.3542 250.63L85.5743 250.004L84.7943 249.378C81.3303 253.695 77.6536 257.722 73.7069 261.616L74.4093 262.328ZM85.5743 250.004L86.3479 250.638C86.9356 249.92 87.6831 249.319 88.5335 248.667C89.3555 248.036 90.294 247.345 91.0901 246.512L90.3671 245.821L89.644 245.13C88.9801 245.825 88.1914 246.409 87.3166 247.079C86.4703 247.728 85.5513 248.454 84.8006 249.371L85.5743 250.004ZM90.3671 245.821L91.1075 246.493C91.7486 245.787 92.1029 245.381 92.2619 245.151C92.2993 245.097 92.3777 244.981 92.431 244.833C92.4564 244.763 92.6745 244.131 92.1213 243.68C91.9099 243.507 91.6904 243.467 91.5908 243.456C91.4825 243.443 91.3945 243.45 91.3548 243.453C91.3099 243.458 91.2723 243.464 91.2564 243.467C91.1961 243.477 91.2681 243.465 91.2266 243.472C91.2117 243.474 91.271 243.462 91.3542 243.465C91.4288 243.467 91.6647 243.483 91.8954 243.666C92.1631 243.879 92.2385 244.164 92.2477 244.341C92.2555 244.491 92.221 244.589 92.22 244.592C92.216 244.604 92.2407 244.533 92.368 244.322C92.4867 244.126 92.6705 243.847 92.9467 243.458L92.1309 242.879L91.315 242.301C91.0241 242.711 90.81 243.034 90.6564 243.288C90.5113 243.528 90.3892 243.757 90.32 243.967C90.2864 244.069 90.2398 244.241 90.2504 244.445C90.2624 244.677 90.3556 244.997 90.6505 245.231C90.9084 245.436 91.1811 245.461 91.2965 245.464C91.4204 245.467 91.5244 245.45 91.5528 245.445C91.6244 245.433 91.5728 245.442 91.5446 245.444C91.5223 245.446 91.45 245.453 91.355 245.442C91.2687 245.431 91.06 245.395 90.8564 245.229C90.3187 244.79 90.5399 244.182 90.5505 244.153C90.589 244.046 90.6347 243.988 90.6161 244.015C90.551 244.109 90.3075 244.399 89.6266 245.149L90.3671 245.821ZM92.1309 242.879L92.942 243.464C93.2321 243.062 93.149 242.639 93.0913 242.456C93.0297 242.261 92.9285 242.102 92.8553 241.999C92.7017 241.782 92.4882 241.559 92.2762 241.355C91.8397 240.936 91.2431 240.444 90.6617 239.988C90.0743 239.527 89.4785 239.083 89.0312 238.755C88.8071 238.591 88.6193 238.456 88.4872 238.361C88.4211 238.313 88.369 238.276 88.3331 238.251C88.3152 238.238 88.3013 238.228 88.2919 238.221C88.2871 238.218 88.2835 238.215 88.281 238.214C88.2797 238.213 88.2787 238.212 88.278 238.212C88.2777 238.211 88.2774 238.211 88.2772 238.211C88.2771 238.211 88.277 238.211 88.277 238.211C88.2769 238.211 88.2768 238.211 87.6996 239.027C87.1224 239.844 87.1224 239.844 87.1224 239.844C87.1224 239.844 87.1225 239.844 87.1225 239.844C87.1226 239.844 87.1228 239.844 87.123 239.844C87.1235 239.845 87.1242 239.845 87.1253 239.846C87.1273 239.847 87.1305 239.85 87.1348 239.853C87.1434 239.859 87.1563 239.868 87.1733 239.88C87.2072 239.904 87.2573 239.94 87.3211 239.986C87.4488 240.077 87.6314 240.209 87.8496 240.369C88.2868 240.689 88.8632 241.119 89.4267 241.561C89.996 242.008 90.5287 242.45 90.8909 242.798C91.0781 242.977 91.1813 243.096 91.223 243.155C91.2475 243.189 91.2136 243.152 91.1842 243.059C91.1587 242.978 91.0725 242.637 91.3197 242.294L92.1309 242.879ZM87.6996 239.027L88.6501 238.716L88.1712 237.252L87.2208 237.563L86.2703 237.874L86.7492 239.338L87.6996 239.027ZM87.2208 237.563L88.1661 237.237C86.9154 233.611 85.5476 230.28 83.4522 226.96L82.6066 227.494L81.761 228.028C83.7395 231.162 85.0483 234.331 86.2754 237.889L87.2208 237.563ZM82.6066 227.494L83.4543 226.963C81.515 223.864 80.2763 221.084 79.6211 218.184C78.9659 215.283 78.8823 212.209 79.318 208.507L78.3248 208.39L77.3317 208.273C76.877 212.137 76.9528 215.448 77.6703 218.624C78.3878 221.801 79.7351 224.79 81.7588 228.024L82.6066 227.494ZM78.3248 208.39L79.284 208.673C81.6575 200.63 88.7334 195.085 95.329 189.586L94.6887 188.818L94.0483 188.049C87.6187 193.41 79.9477 199.357 77.3657 208.107L78.3248 208.39ZM94.6887 188.818L95.3299 189.585C107.298 179.583 117.096 167.173 118.645 150.963L117.649 150.867L116.654 150.772C115.177 166.228 105.834 178.201 94.0474 188.05L94.6887 188.818ZM117.649 150.867L118.646 150.948C118.747 149.704 118.842 148.459 118.934 147.214L117.937 147.141L116.94 147.067C116.848 148.308 116.753 149.547 116.652 150.787L117.649 150.867ZM117.937 147.141L118.934 147.221C119.045 145.837 119.157 144.454 119.268 143.07L118.272 142.989L117.275 142.909C117.163 144.293 117.051 145.677 116.94 147.06L117.937 147.141ZM118.272 142.989L119.269 143.068L119.439 140.899L118.442 140.82L117.445 140.742L117.275 142.911L118.272 142.989ZM118.442 140.82L119.439 140.9C122.873 97.8054 134.99 59.8805 165.582 28.1102L164.862 27.4166L164.141 26.723C133.13 58.9285 120.903 97.3498 117.446 140.741L118.442 140.82ZM164.862 27.4166L165.595 28.0965L167.13 26.4405L166.397 25.7606L165.663 25.0808L164.128 26.7368L164.862 27.4166ZM166.397 25.7606L167.119 26.4523C172.396 20.9421 179.912 14.5614 188.131 9.69709C196.371 4.81992 205.191 1.54181 213.114 2.05228L213.178 1.05435L213.242 0.05642C204.73 -0.492059 195.489 3.01783 187.112 7.97597C178.713 12.947 171.057 19.4489 165.675 25.069L166.397 25.7606Z" fill="black" mask="url(#path-1-outside-1_1_274)"/>
</svg>
