<svg width="651" height="991" viewBox="0 0 651 991" fill="none" xmlns="http://www.w3.org/2000/svg">
<mask id="path-1-outside-1_1_274" maskUnits="userSpaceOnUse" x="0" y="0" width="651" height="991" fill="black">
<rect fill="white" width="651" height="991"/>
<path d="M218.62 6.47934L217.178 5.05435C200.744 3.9954 181.055 18.6304 170.397 29.7606L168.862 31.4166C138.06 63.4045 125.888 101.578 122.442 144.82L122.272 146.989C122.16 148.373 122.048 149.757 121.937 151.141C121.845 152.383 121.75 153.626 121.649 154.867C120.136 170.701 110.566 182.892 98.6887 192.818C92.1761 198.247 84.8026 203.993 82.3248 212.39C81.4345 219.956 82.6435 225.159 86.6066 231.494C88.6435 234.721 89.9818 237.971 91.2208 241.563L91.6996 243.027C91.6996 243.027 96.4747 246.402 96.1309 246.879C93.8623 250.08 97.011 246.909 94.3671 249.821C92.9071 251.349 90.9127 252.37 89.5743 254.004C86.0837 258.354 82.3806 262.409 78.4093 266.328C77.3465 267.369 76.2847 268.411 75.2303 269.46C71.5502 273.128 67.8201 276.658 63.7611 279.924L63.6383 280.021C61.8784 281.41 60.1238 282.796 58.4149 284.247L57.0061 285.479C56.1298 286.245 55.2547 287.012 54.3807 287.781C51.1218 290.676 47.9858 293.009 44.1044 295.039L42.6622 290.764C41.0368 290.283 41.0368 290.283 39.0565 290.052C34.9 292.244 32.1638 296.267 29.9464 300.252L28.9605 302.164C22.9808 313.326 20.6981 327.381 21.6107 339.904C22.9884 354.319 31.9564 367.879 43.0143 377.037C49.2169 381.809 56.2483 385.593 64.2963 384.814C65.0175 382.676 65.0175 382.676 64.9104 380.436C64.7449 377.787 64.6958 375.337 65.0175 372.701C66.0601 371.07 67.0133 370.235 68.6091 369.15L70.0655 368.426L71.7556 367.466C73.7559 366.78 73.7559 366.78 75.8712 367.928C80.2514 370.597 83.6248 372.601 88.8151 372.701C88.3899 370.407 88.0699 368.152 87.8658 365.827L87.6883 363.172C87.5812 361.598 87.4753 360.025 87.3728 358.451C88.575 358.215 89.7768 357.977 90.9785 357.739C92.6404 357.359 94.236 357.07 95.9335 356.898C97.7063 356.887 97.7063 356.887 99.3167 358.763C100.309 360.208 101.271 361.52 102.446 362.832L103.959 364.374C106.048 366.559 107.411 367.354 110.449 367.714C110.521 365.999 110.594 364.284 110.67 362.569L110.765 360.455L110.851 358.383L110.942 356.372L111.022 354.529C111.235 351.973 111.064 349.897 113.121 348.138L114.748 347.266L116.604 346.236C123.249 342.669 129.656 338.796 135.929 334.626C136.734 334.09 137.539 333.555 138.345 333.021C141.77 330.749 145.189 328.468 148.603 326.18C158.61 319.472 168.506 312.199 179.51 307.158L181.121 306.439C190.88 302.082 200.729 298.154 211.104 295.479L212.851 295.039C223.112 292.404 233.249 291.364 243.86 292.189C249.438 293.382 253.529 295.383 256.841 300.027C252.692 298.971 248.926 298.433 244.643 298.442L242.688 298.468C219.176 298.485 195.693 307.573 175.352 318.552C175.397 320.377 175.432 322.203 175.457 324.029L175.487 326.3C175.63 331.973 175.186 336.714 173.188 342.064C168.508 342.227 163.5 342.8 159.081 341.04C156.724 339.981 154.815 339.576 152.275 339.214C152.204 341.136 152.13 343.058 152.054 344.979L151.96 347.363C151.768 352.518 151.482 357.606 150.833 362.726C145.261 361.849 139.895 361.109 134.247 361.301C134.125 364.556 134.266 367.421 134.968 370.608C135.618 373.534 135.821 376.125 135.689 379.114C134.103 380.018 132.569 380.613 130.821 381.162C128.382 381.255 127.743 381.017 125.683 379.915C123.334 378.478 123.334 378.478 116.94 377.689L116.218 389.801C110.941 391.105 107.533 391.116 102.697 388.421C100.193 386.89 98.2354 385.937 95.3053 385.526C93.2053 389.546 93.3924 393.613 94.4631 397.908C99.2832 412.673 110.206 424.23 123.486 432.155C136.162 438.819 153.168 443.665 167.419 439.676C167.96 438.073 167.96 438.073 168.14 436.113L167.014 434.866C165.273 433.364 165.273 433.364 164.098 431.81L162.912 430.146C161.014 427.518 160.723 425.794 160.929 422.576C162.47 422.504 164.012 422.432 165.553 422.357L167.464 422.264C176.317 421.858 184.213 420.517 192.401 417.078C198.232 414.552 207.449 411.693 209.967 405.476C208.387 404.64 206.868 403.98 205.166 403.414C203.111 402.758 201.128 402.058 199.149 401.201C196.91 399.245 196.355 398.368 195.994 395.456C202.235 382.057 202.235 382.057 213.685 371.78L215.015 370.564C228.802 357.95 246.099 343.006 265.819 342.434L267.613 342.42C272.146 342.383 276.581 342.751 280.638 344.914C282.771 347.665 283.061 350.189 283.066 353.545L283.027 355.112L283.026 355.152C282.967 358.85 282.909 362.472 281.892 366.055L281.359 367.714C275.602 388.082 263.398 403.731 247.077 416.995C245.777 418.045 244.479 419.098 243.188 420.159C235.848 426.212 228.383 432.086 220.808 437.848C219.891 438.545 218.974 439.243 218.058 439.942L217.239 440.566C214.337 442.781 211.434 444.996 208.504 447.176C204.06 450.475 199.517 453.685 195.392 457.374L193.38 459.225C192.177 460.306 190.975 461.39 189.775 462.475C188.416 463.868 188.416 463.868 186.98 465.058C172.336 468.233 172.336 468.233 156.963 465.682C148.608 464.846 140.322 464.402 131.922 464.391L130.19 464.39C122.277 464.357 114.663 464.77 106.844 466.038C77.3394 471.165 54.6241 488.564 37.6226 512.381L36.1719 514.487C27.4678 527.029 20.6601 541.034 15.8381 555.47L15.2589 557.237C12.5918 565.305 10.298 573.395 8.64782 581.729L8.18267 584.178C5.88866 596.221 4.96652 608.084 5.00093 620.329C5.01461 622.639 5.0277 624.95 5.02927 627.26C5.02915 628.8 5.03086 630.34 5.03449 631.88L5.04177 634.097C5.10595 688.54 30.3636 742.132 61.2509 786.122L62.1329 787.373C69.897 798.453 77.9686 809.244 86.6291 819.657C87.3585 820.533 88.0872 821.408 88.8151 822.285C92.1215 826.337 95.4523 830.326 99.0012 834.175L99.395 834.597C100.855 836.162 102.313 837.724 103.714 839.343C106.213 842.266 108.848 845.067 111.526 847.831L112.973 849.315L114.348 850.774C117.314 853.771 119.144 854.978 123.43 855.06L123.445 854.984C124.06 851.987 124.675 848.991 125.236 845.985C127.251 835.095 129.246 821.933 136.41 813.022C138.569 818.461 140.852 823.845 143.19 829.211L143.802 830.612C147.027 837.996 150.346 845.247 154.439 852.21C157.136 856.56 158.568 859.146 158.044 864.322C157.592 866.33 157.313 868.145 157.228 870.208L157.233 872.649C157.23 874.149 157.253 875.649 157.323 877.147C160.32 883.069 160.32 883.069 185.332 901.327C186.881 902.453 188.428 903.579 189.972 904.711C213.304 921.841 237.483 937.489 262.351 952.348C265.907 954.473 269.46 956.603 273.01 958.739C276.448 960.807 279.889 962.872 283.334 964.931C285.417 966.176 287.499 967.42 289.572 968.681C296.2 972.723 303.029 976.302 309.982 979.764L311.467 980.503C312.893 981.216 314.32 981.928 315.751 982.632L317.09 983.289C318.623 984.044 320.173 984.769 321.743 985.446C324.629 986.456 326.261 986.009 329.01 984.717L330.366 984.04C334.817 981.899 339.193 979.626 343.526 977.259C344.808 976.55 346.091 975.842 347.375 975.136C350.158 973.609 352.936 972.073 355.711 970.532L357.079 969.771C390.375 951.265 422.71 931.22 453.561 908.937L455.154 907.784C461.178 903.43 467.102 899.012 472.76 894.199C474.53 892.69 476.309 891.204 478.132 889.757C479.444 888.725 480.746 887.678 482.036 886.618L484 884.984C486.274 883.191 488.389 881.361 490.442 879.318C493.073 875.485 492.64 871.597 491.932 867.172C490.813 863.308 490.606 859.957 492.27 856.284C493.031 855.093 493.79 853.901 494.528 852.696L495.343 851.35C502.389 839.834 507.695 826.953 511.997 814.222L512.845 811.597H514.287C514.287 813.022 514.287 813.022 515.107 814.475C520.988 824.165 522.762 834.453 524.383 845.45L524.6 846.946C524.676 847.453 524.752 847.96 524.828 848.467L525.023 849.777C525.405 852.46 525.321 853.849 527.268 855.772C529.985 855.477 529.985 855.477 533.41 852.066L534.615 850.829C537.993 847.423 541.291 843.956 544.491 840.384C545.547 839.2 546.61 838.022 547.68 836.849C550.532 833.732 553.378 830.61 556.167 827.436L557.556 825.847C562.627 820.088 567.419 814.187 572.01 808.046C573.043 806.658 574.078 805.27 575.121 803.889C583.558 792.759 591.596 781.306 598.807 769.36C599.859 767.604 600.914 765.85 601.981 764.102C608.492 753.432 614.423 742.535 619.881 731.303L621.016 728.948C629.641 711.087 636.138 692.094 640.063 672.682L640.487 670.524C641.462 665.584 642.33 660.639 643.056 655.657L643.371 653.424C650.539 603.519 643.859 548.114 613.239 506.404L612.362 505.225L612.234 505.051C608.94 500.584 605.637 496.105 601.557 492.3L600.103 490.975C583.661 475.269 565.578 466.226 543.341 461.201C529.396 458.058 515.214 455.314 506.761 442.704C500.594 431.399 501.769 416.693 504.442 404.51C505.191 401.142 505.897 397.773 506.54 394.384L506.848 392.748C507.271 390.505 507.693 388.26 508.113 386.016C509.262 379.84 510.425 373.666 511.783 367.531L512.149 365.902C512.539 364.071 512.986 362.379 513.566 360.589C515.496 359.058 515.496 359.058 517.158 359.08L518.75 359.253C524.703 359.783 528.683 363.092 532.598 367.282L534.119 368.961C535.604 370.56 537.088 372.16 538.56 373.772L539.527 374.839L542.412 374.126C542.891 345.977 531.366 313.041 514.91 290.035C511.312 285.309 507.165 280.195 506.065 274.23C506.018 271.802 506.39 269.581 507.887 267.608C511.228 264.968 514.694 264.131 518.872 264.07L520.552 264.09C525.808 264.106 530.745 264.772 535.877 265.872L537.725 266.3L539.457 266.698C541.683 267.244 543.1 267.222 545.296 266.54C545.764 265.334 545.764 265.334 546.018 263.69C541.621 252.376 531.453 240.278 522.623 231.911C521.613 230.976 520.604 230.038 519.606 229.09C500.19 210.618 478.215 198.024 453.246 188.121L451.34 187.367C450.117 186.875 448.895 186.385 447.672 185.894C446.581 185.477 445.494 185.052 444.41 184.617C440.171 182.754 436.052 179.656 434.241 175.34C433.967 172.196 433.892 170.87 435.683 168.215C441.079 161.885 448.605 160.404 456.477 159.074C458.009 158.817 459.54 158.553 461.071 158.286C462.05 158.112 463.029 157.938 464.008 157.765L464.11 157.747C466.942 157.268 468.594 156.988 471.019 155.391C468.623 152.724 466.347 151.083 463.106 149.524L461.419 148.755C439.827 138.87 416.655 133.949 392.864 136.324C389.828 136.731 386.89 136.992 383.829 137.033L382.139 137.044C379.155 137.121 376.712 137.362 374.071 135.878C372.148 133.916 370.979 132.36 370.522 129.602C376.319 110.987 376.319 110.987 390.057 95.6218C390.843 94.645 391.629 93.6681 392.415 92.6911C396.598 87.4104 401.074 82.4874 405.739 77.6228L405.852 77.5052C407.812 75.4633 409.77 73.424 411.657 71.3163C413.958 68.7325 416.217 66.2451 418.872 64.0132C421.271 62.0182 423.484 59.8882 425.691 57.6912C428.763 54.6216 431.793 51.5221 435.097 48.6946C436.651 47.3951 438.175 46.0827 439.678 44.7258C443.527 41.2225 447.437 37.8432 451.509 34.595C452.667 33.6732 453.824 32.7507 454.976 31.8209C455.891 31.0797 456.806 30.339 457.722 29.5987L459.165 28.4331C461.758 26.3348 464.356 24.2507 467.024 22.2471L468.85 20.8934C470.038 20.0063 471.227 19.1203 472.416 18.2355L474.138 16.9937L475.726 15.8086C477.532 14.4918 478.135 13.9148 478.794 11.7651V11.7648C478.952 10.0418 478.952 10.0417 478.208 8.76433C476.788 7.90433 476.788 7.90433 474.647 7.64549L472.101 7.68167C444.91 7.77243 414.837 21.8811 391.455 34.6343L389.53 35.6916C375.154 43.5365 361.394 52.1009 348.024 61.524L346.262 62.7663C339.028 67.8315 331.926 72.9904 325.045 78.5164C323.354 79.8741 321.651 81.2118 319.929 82.5297C315.454 85.9525 311.088 89.4576 306.825 93.1364C304.384 95.2502 301.947 97.3582 299.436 99.3902C295.769 102.298 292.237 105.292 288.796 108.455C286.854 110.255 284.922 112.061 282.909 113.784C279.649 116.552 276.563 119.442 273.53 122.452L271.849 124.13L268.483 127.475C267.487 128.468 266.491 129.461 265.494 130.453C264.292 131.64 263.089 132.827 261.889 134.016C250.611 145.511 238.847 155.209 223.668 161.09C225.918 159.164 228.167 157.25 230.492 155.411C234.551 152.202 238.372 148.867 242.054 145.242L243.897 143.406L244.476 142.834C245.96 141.367 247.443 139.9 248.923 138.43C250.648 136.713 252.374 134.998 254.106 133.288C255.473 131.937 256.84 130.584 258.206 129.231L260.167 127.286C264.025 123.469 267.772 119.64 271.263 115.491C233.485 113.744 200.517 130.603 171.121 152.287L168.862 153.966C167.674 154.841 166.488 155.717 165.301 156.593L163.092 158.241C167.765 151.709 172.813 145.784 179.018 140.597C182.552 137.682 186.259 134.812 189.053 131.166C189.646 128.813 189.318 127.775 188.482 125.516C187.625 123.363 187.118 121.282 186.71 119.007L186.439 117.361C180.639 83.0658 191.32 47.7865 211.292 19.7659C212.145 18.5705 212.992 17.3706 213.834 16.1676L215.42 13.8715C217.145 11.4233 218.406 9.50149 218.62 6.47934Z"/>
</mask>
<path d="M93.1419 243.027V240.527H91.6996V243.027V245.527H93.1419V243.027ZM217.178 5.05435L220.692 1.49756L219.363 0.184803L217.499 0.0646981L217.178 5.05435ZM218.62 6.47934L223.608 6.83251L223.77 4.53873L222.134 2.92255L218.62 6.47934ZM215.42 13.8715L211.333 10.9917L211.319 11.0108L211.306 11.0299L215.42 13.8715ZM213.834 16.1676L217.93 19.0357L217.939 19.0225L217.948 19.0092L213.834 16.1676ZM211.292 19.7659L207.222 16.8603L207.22 16.8638L211.292 19.7659ZM186.439 117.361L191.373 116.55L191.371 116.539L191.369 116.527L186.439 117.361ZM186.71 119.007L181.776 119.818L181.782 119.854L181.788 119.889L186.71 119.007ZM188.482 125.516L193.17 123.779L193.15 123.723L193.127 123.667L188.482 125.516ZM189.053 131.166L193.022 134.207L193.65 133.387L193.902 132.386L189.053 131.166ZM179.018 140.597L175.837 136.74L175.824 136.75L175.811 136.761L179.018 140.597ZM163.092 158.241L159.026 155.331L166.082 162.248L163.092 158.241ZM165.301 156.593L162.331 152.571L162.321 152.578L162.311 152.585L165.301 156.593ZM168.862 153.966L171.829 157.99L171.836 157.985L171.843 157.979L168.862 153.966ZM171.121 152.287L168.153 148.264L168.146 148.269L168.139 148.274L171.121 152.287ZM271.263 115.491L275.089 118.71L281.607 110.964L271.494 110.496L271.263 115.491ZM260.167 127.286L256.651 123.732L256.647 123.736L260.167 127.286ZM258.206 129.231L261.725 132.783L261.727 132.782L258.206 129.231ZM254.106 133.288L250.592 129.73L250.591 129.731L254.106 133.288ZM248.923 138.43L252.448 141.976L252.45 141.974L248.923 138.43ZM244.476 142.834L240.961 139.278L240.961 139.278L244.476 142.834ZM243.897 143.406L240.382 139.85L240.375 139.857L240.367 139.864L243.897 143.406ZM242.054 145.242L245.562 148.805L245.573 148.795L245.584 148.784L242.054 145.242ZM230.492 155.411L227.391 151.488L227.389 151.49L230.492 155.411ZM223.668 161.09L220.416 157.293L225.475 165.753L223.668 161.09ZM261.889 134.016L258.371 130.462L258.345 130.488L258.319 130.514L261.889 134.016ZM265.494 130.453L269.006 134.013L269.014 134.004L269.023 133.996L265.494 130.453ZM268.483 127.475L264.959 123.929L264.953 123.934L268.483 127.475ZM271.849 124.13L275.374 127.676L275.383 127.668L271.849 124.13ZM273.53 122.452L270.008 118.902L270.002 118.908L269.996 118.914L273.53 122.452ZM282.909 113.784L286.146 117.594L286.153 117.588L286.16 117.582L282.909 113.784ZM288.796 108.455L285.412 104.774L285.405 104.781L285.397 104.788L288.796 108.455ZM299.436 99.3902L302.542 103.308L302.562 103.293L302.581 103.277L299.436 99.3902ZM306.825 93.1364L303.558 89.351L303.551 89.3567L306.825 93.1364ZM319.929 82.5297L322.967 86.5012L322.968 86.5005L319.929 82.5297ZM325.045 78.5164L321.914 74.6178L321.914 74.6182L325.045 78.5164ZM346.262 62.7663L349.13 66.8621L349.136 66.8574L349.143 66.8527L346.262 62.7663ZM348.024 61.524L345.143 57.4371L345.143 57.4376L348.024 61.524ZM389.53 35.6916L391.925 40.0807L391.938 40.0739L389.53 35.6916ZM391.455 34.6343L389.061 30.2448L389.054 30.2484L389.048 30.252L391.455 34.6343ZM472.101 7.68167L472.117 12.6816L472.145 12.6816L472.172 12.6812L472.101 7.68167ZM474.647 7.64549L475.247 2.68164L474.913 2.64121L474.576 2.64599L474.647 7.64549ZM478.208 8.76433L482.529 6.24881L481.888 5.1478L480.798 4.48774L478.208 8.76433ZM478.794 11.7648L473.815 11.3094L473.794 11.5366V11.7648H478.794ZM478.794 11.7651L483.575 13.23L483.794 12.514V11.7651H478.794ZM475.726 15.8086L472.78 11.7688L472.758 11.7847L472.736 11.8009L475.726 15.8086ZM474.138 16.9937L477.063 21.0486L477.095 21.0252L477.127 21.0013L474.138 16.9937ZM472.416 18.2355L469.491 14.1806L469.461 14.2019L469.432 14.2236L472.416 18.2355ZM468.85 20.8934L471.828 24.9102L471.835 24.9049L471.842 24.8996L468.85 20.8934ZM467.024 22.2471L464.046 18.2304L464.034 18.2396L464.022 18.2488L467.024 22.2471ZM459.165 28.4331L462.307 32.3226L462.311 32.3194L459.165 28.4331ZM457.722 29.5987L454.58 25.7092L454.579 25.71L457.722 29.5987ZM454.976 31.8209L458.117 35.711L458.123 35.7063L454.976 31.8209ZM451.509 34.595L448.395 30.683L448.391 30.6863L451.509 34.595ZM439.678 44.7258L443.028 48.4369L443.036 48.4303L443.043 48.4237L439.678 44.7258ZM435.097 48.6946L431.889 44.8598L431.868 44.8775L431.847 44.8954L435.097 48.6946ZM425.691 57.6912L429.219 61.2348L429.226 61.2277L425.691 57.6912ZM418.872 64.0132L415.675 60.1688L415.664 60.1773L415.654 60.1859L418.872 64.0132ZM411.657 71.3163L415.382 74.6522L415.387 74.6466L415.392 74.6409L411.657 71.3163ZM405.852 77.5052L409.459 80.9679L409.459 80.9677L405.852 77.5052ZM405.739 77.6228L402.132 74.1601L402.13 74.1621L405.739 77.6228ZM392.415 92.6911L396.311 95.8248L396.323 95.8103L396.334 95.7958L392.415 92.6911ZM390.057 95.6218L393.784 98.9545L393.871 98.8577L393.952 98.7564L390.057 95.6218ZM370.522 129.602L365.748 128.115L365.395 129.248L365.589 130.419L370.522 129.602ZM374.071 135.878L370.5 139.378L370.999 139.887L371.621 140.236L374.071 135.878ZM382.139 137.044L382.106 132.044L382.058 132.044L382.01 132.045L382.139 137.044ZM383.829 137.033L383.862 142.033L383.878 142.032L383.895 142.032L383.829 137.033ZM392.864 136.324L392.367 131.349L392.284 131.357L392.201 131.369L392.864 136.324ZM461.419 148.755L459.337 153.302L459.346 153.305L461.419 148.755ZM463.106 149.524L465.274 145.019L465.227 144.996L465.179 144.974L463.106 149.524ZM471.019 155.391L473.769 159.566L478.622 156.37L474.738 152.048L471.019 155.391ZM464.11 157.747L463.275 152.817L463.275 152.817L464.11 157.747ZM464.008 157.765L463.173 152.835L463.154 152.838L463.135 152.841L464.008 157.765ZM461.071 158.286L461.93 163.212L461.939 163.211L461.947 163.209L461.071 158.286ZM456.477 159.074L455.65 154.142L455.643 154.143L456.477 159.074ZM435.683 168.215L431.878 164.972L431.696 165.186L431.539 165.419L435.683 168.215ZM434.241 175.34L429.26 175.775L429.328 176.554L429.631 177.275L434.241 175.34ZM444.41 184.617L442.399 189.194L442.473 189.227L442.548 189.257L444.41 184.617ZM447.672 185.894L449.533 181.253L449.496 181.238L449.458 181.224L447.672 185.894ZM451.34 187.367L449.476 192.006L449.488 192.011L449.5 192.016L451.34 187.367ZM453.246 188.121L455.09 183.473L455.086 183.472L453.246 188.121ZM519.606 229.09L516.16 232.712L516.163 232.715L519.606 229.09ZM522.623 231.911L526.062 228.282L526.041 228.262L526.02 228.243L522.623 231.911ZM546.018 263.69L550.959 264.451L551.163 263.127L550.678 261.878L546.018 263.69ZM545.296 266.54L546.78 271.314L549.085 270.598L549.958 268.348L545.296 266.54ZM539.457 266.698L540.648 261.842L540.612 261.833L540.576 261.825L539.457 266.698ZM537.725 266.3L536.595 271.171L536.606 271.174L537.725 266.3ZM535.877 265.872L537.007 261.001L536.965 260.991L536.924 260.982L535.877 265.872ZM520.552 264.09L520.491 269.09L520.514 269.09L520.537 269.09L520.552 264.09ZM518.872 264.07L518.933 259.07L518.866 259.069L518.799 259.07L518.872 264.07ZM507.887 267.608L504.787 263.686L504.289 264.079L503.905 264.585L507.887 267.608ZM506.065 274.23L501.066 274.325L501.074 274.734L501.148 275.137L506.065 274.23ZM514.91 290.035L518.977 287.126L518.933 287.066L518.888 287.007L514.91 290.035ZM542.412 374.126L543.611 378.98L547.346 378.058L547.411 374.211L542.412 374.126ZM539.527 374.839L535.824 378.198L537.829 380.408L540.726 379.693L539.527 374.839ZM538.56 373.772L542.263 370.413L542.258 370.407L542.252 370.401L538.56 373.772ZM534.119 368.961L530.414 372.318L530.434 372.34L530.454 372.362L534.119 368.961ZM532.598 367.282L536.302 363.925L536.277 363.896L536.251 363.869L532.598 367.282ZM518.75 359.253L518.211 364.224L518.258 364.229L518.306 364.233L518.75 359.253ZM517.158 359.08L517.697 354.109L517.461 354.084L517.224 354.081L517.158 359.08ZM513.566 360.589L510.459 356.672L509.275 357.61L508.81 359.048L513.566 360.589ZM512.149 365.902L517.028 366.999L517.034 366.971L517.04 366.943L512.149 365.902ZM511.783 367.531L506.905 366.434L506.903 366.442L506.901 366.45L511.783 367.531ZM508.113 386.016L513.027 386.935L513.028 386.93L508.113 386.016ZM506.848 392.748L501.935 391.822L501.934 391.825L506.848 392.748ZM506.54 394.384L511.453 395.316L511.454 395.308L506.54 394.384ZM504.442 404.51L499.561 403.425L499.558 403.438L504.442 404.51ZM506.761 442.704L502.371 445.098L502.48 445.298L502.607 445.488L506.761 442.704ZM543.341 461.201L544.444 456.324L544.441 456.323L543.341 461.201ZM600.103 490.975L596.649 494.591L596.692 494.631L596.735 494.671L600.103 490.975ZM601.557 492.3L604.967 488.643L604.946 488.624L604.925 488.605L601.557 492.3ZM612.234 505.051L616.259 502.084L616.258 502.083L612.234 505.051ZM612.362 505.225L608.337 508.191L608.343 508.2L608.35 508.208L612.362 505.225ZM613.239 506.404L617.269 503.445L617.26 503.433L617.251 503.421L613.239 506.404ZM643.371 653.424L638.422 652.713L638.421 652.724L643.371 653.424ZM643.056 655.657L648.003 656.377L648.005 656.367L648.006 656.357L643.056 655.657ZM640.487 670.524L635.582 669.555L635.581 669.56L640.487 670.524ZM640.063 672.682L644.964 673.673L644.967 673.659L644.969 673.646L640.063 672.682ZM621.016 728.948L616.514 726.774L616.512 726.778L621.016 728.948ZM619.881 731.303L624.378 733.489L624.382 733.481L624.386 733.474L619.881 731.303ZM601.981 764.102L597.712 761.498L597.712 761.498L601.981 764.102ZM598.807 769.36L603.088 771.944L603.092 771.937L603.096 771.93L598.807 769.36ZM575.121 803.889L571.137 800.869L571.133 800.874L575.121 803.889ZM572.01 808.046L576.014 811.04L576.02 811.032L572.01 808.046ZM557.556 825.847L553.803 822.543L553.797 822.55L553.791 822.557L557.556 825.847ZM556.167 827.436L559.923 830.737L559.932 830.727L556.167 827.436ZM547.68 836.849L543.991 833.474L543.985 833.481L547.68 836.849ZM544.491 840.384L548.215 843.72L548.222 843.712L544.491 840.384ZM534.615 850.829L531.065 847.308L531.049 847.324L531.034 847.34L534.615 850.829ZM533.41 852.066L536.939 855.608L536.965 855.582L536.991 855.555L533.41 852.066ZM527.268 855.772L523.754 859.329L525.444 860.999L527.807 860.743L527.268 855.772ZM525.023 849.777L529.973 849.071L529.971 849.056L529.968 849.04L525.023 849.777ZM524.828 848.467L529.773 847.731L529.773 847.73L524.828 848.467ZM524.6 846.946L519.653 847.667L519.654 847.676L519.655 847.686L524.6 846.946ZM524.383 845.45L529.33 844.729L529.329 844.721L524.383 845.45ZM515.107 814.475L510.753 816.932L510.792 817.002L510.833 817.07L515.107 814.475ZM514.287 811.597H519.287V806.597H514.287V811.597ZM512.845 811.597V806.597H509.206L508.087 810.06L512.845 811.597ZM511.997 814.222L516.734 815.823L516.745 815.791L516.755 815.759L511.997 814.222ZM495.343 851.35L491.078 848.74L491.072 848.75L491.066 848.76L495.343 851.35ZM494.528 852.696L498.792 855.308L498.799 855.297L498.806 855.285L494.528 852.696ZM492.27 856.284L488.056 853.593L487.864 853.895L487.716 854.221L492.27 856.284ZM491.932 867.172L496.869 866.383L496.821 866.077L496.735 865.78L491.932 867.172ZM490.442 879.318L493.969 882.862L494.3 882.532L494.564 882.147L490.442 879.318ZM484 884.984L480.903 881.058L480.852 881.099L480.802 881.141L484 884.984ZM482.036 886.618L485.211 890.48L485.223 890.471L485.234 890.461L482.036 886.618ZM478.132 889.757L475.04 885.828L475.032 885.835L475.023 885.841L478.132 889.757ZM472.76 894.199L476 898.008L476.004 898.004L472.76 894.199ZM455.154 907.784L452.225 903.732L452.222 903.734L455.154 907.784ZM453.561 908.937L456.488 912.991L456.492 912.988L453.561 908.937ZM357.079 969.771L354.65 965.401L354.649 965.401L357.079 969.771ZM355.711 970.532L358.139 974.902L358.141 974.901L355.711 970.532ZM347.375 975.136L344.968 970.754L344.967 970.754L347.375 975.136ZM343.526 977.259L345.923 981.647L345.933 981.641L345.944 981.635L343.526 977.259ZM330.366 984.04L328.198 979.535L328.165 979.551L328.132 979.567L330.366 984.04ZM329.01 984.717L331.136 989.243L331.19 989.218L331.243 989.191L329.01 984.717ZM321.743 985.446L319.764 990.037L319.925 990.107L320.09 990.165L321.743 985.446ZM317.09 983.289L319.299 978.803L319.292 978.8L317.09 983.289ZM315.751 982.632L313.542 987.118L313.549 987.121L315.751 982.632ZM311.467 980.503L313.703 976.031L313.694 976.026L311.467 980.503ZM309.982 979.764L307.753 984.24L307.755 984.241L309.982 979.764ZM289.572 968.681L292.175 964.412L292.17 964.409L289.572 968.681ZM283.334 964.931L280.769 969.223L280.769 969.223L283.334 964.931ZM273.01 958.739L275.588 954.454L275.588 954.454L273.01 958.739ZM262.351 952.348L259.786 956.64L259.786 956.641L262.351 952.348ZM189.972 904.711L192.931 900.681L192.929 900.679L189.972 904.711ZM185.332 901.327L182.384 905.366L182.392 905.371L185.332 901.327ZM157.323 877.147L152.329 877.381L152.379 878.45L152.862 879.405L157.323 877.147ZM157.233 872.649L162.233 872.661L162.233 872.649L162.233 872.638L157.233 872.649ZM157.228 870.208L152.232 870.002L152.227 870.111L152.228 870.22L157.228 870.208ZM158.044 864.322L162.922 865.421L162.989 865.126L163.019 864.825L158.044 864.322ZM154.439 852.21L150.128 854.743L150.158 854.794L150.189 854.844L154.439 852.21ZM143.802 830.612L148.384 828.611L148.384 828.611L143.802 830.612ZM143.19 829.211L138.606 831.208L138.608 831.212L143.19 829.211ZM136.41 813.022L141.058 811.178L137.892 803.201L132.514 809.889L136.41 813.022ZM125.236 845.985L130.151 846.902L130.153 846.894L125.236 845.985ZM123.445 854.984L118.547 853.979L118.547 853.98L123.445 854.984ZM123.43 855.06L123.334 860.059L127.493 860.138L128.328 856.063L123.43 855.06ZM114.348 850.774L110.71 854.204L110.752 854.248L110.794 854.291L114.348 850.774ZM112.973 849.315L116.612 845.886L116.583 845.855L116.553 845.825L112.973 849.315ZM111.526 847.831L107.936 851.31L107.941 851.316L107.946 851.321L111.526 847.831ZM103.714 839.343L107.515 836.094L107.505 836.082L107.495 836.071L103.714 839.343ZM99.395 834.597L95.7388 838.007L95.739 838.008L99.395 834.597ZM99.0012 834.175L95.3252 837.564L95.3351 837.575L95.345 837.585L99.0012 834.175ZM88.8151 822.285L92.6892 819.124L92.6754 819.107L92.6615 819.09L88.8151 822.285ZM86.6291 819.657L82.7849 822.855L82.7882 822.859L86.6291 819.657ZM62.1329 787.373L66.2277 784.503L66.2235 784.497L66.2193 784.491L62.1329 787.373ZM61.2509 786.122L57.1588 788.995L57.1644 789.003L61.2509 786.122ZM5.04177 634.097L10.0418 634.091L10.0417 634.081L5.04177 634.097ZM5.03449 631.88L0.0344986 631.892L0.0345139 631.896L5.03449 631.88ZM5.02927 627.26L10.0293 627.261L10.0293 627.257L5.02927 627.26ZM5.00093 620.329L0.000945273 620.343L0.000967127 620.351L0.00101318 620.359L5.00093 620.329ZM8.18267 584.178L13.0944 585.114L13.0949 585.111L8.18267 584.178ZM8.64782 581.729L3.74305 580.758L3.73926 580.777L3.73562 580.796L8.64782 581.729ZM15.2589 557.237L20.0062 558.806L20.0101 558.795L15.2589 557.237ZM15.8381 555.47L11.0957 553.886L11.0912 553.899L11.0868 553.913L15.8381 555.47ZM36.1719 514.487L40.2795 517.338L40.2848 517.331L40.29 517.323L36.1719 514.487ZM37.6226 512.381L33.5531 509.476L33.5285 509.51L33.5045 509.545L37.6226 512.381ZM106.844 466.038L106.043 461.102L106.015 461.107L105.987 461.112L106.844 466.038ZM130.19 464.39L130.17 469.39L130.18 469.39L130.19 469.39L130.19 464.39ZM131.922 464.391L131.929 459.391L131.923 459.391L131.922 464.391ZM156.963 465.682L157.781 460.749L157.621 460.723L157.46 460.706L156.963 465.682ZM186.98 465.058L188.04 469.945L189.232 469.686L190.171 468.908L186.98 465.058ZM189.775 462.475L186.42 458.768L186.304 458.872L186.196 458.984L189.775 462.475ZM193.38 459.225L196.722 462.944L196.744 462.924L196.766 462.904L193.38 459.225ZM195.392 457.374L192.059 453.647L192.032 453.67L192.006 453.695L195.392 457.374ZM208.504 447.176L211.484 451.191L211.489 451.188L208.504 447.176ZM217.239 440.566L214.206 436.591L214.206 436.592L217.239 440.566ZM218.058 439.942L215.026 435.966L215.025 435.967L218.058 439.942ZM220.808 437.848L223.834 441.828L223.835 441.828L220.808 437.848ZM243.188 420.159L240.013 416.296L240.007 416.301L243.188 420.159ZM247.077 416.995L250.218 420.886L250.224 420.881L250.23 420.876L247.077 416.995ZM281.359 367.714L276.599 366.186L276.572 366.269L276.548 366.354L281.359 367.714ZM281.892 366.055L286.653 367.583L286.678 367.502L286.702 367.421L281.892 366.055ZM283.026 355.152L288.026 355.232L288.026 355.231L283.026 355.152ZM283.027 355.112L278.029 354.987L278.028 355.01L278.028 355.032L283.027 355.112ZM283.066 353.545L288.064 353.669L288.066 353.603L288.066 353.537L283.066 353.545ZM280.638 344.914L284.59 341.851L283.935 341.005L282.991 340.502L280.638 344.914ZM267.613 342.42L267.651 347.42L267.654 347.42L267.613 342.42ZM265.819 342.434L265.78 337.434L265.727 337.435L265.674 337.436L265.819 342.434ZM215.015 370.564L218.389 374.254L218.39 374.253L215.015 370.564ZM213.685 371.78L217.024 375.501L217.042 375.485L217.059 375.47L213.685 371.78ZM195.994 395.456L191.462 393.345L190.856 394.647L191.032 396.071L195.994 395.456ZM199.149 401.201L195.861 404.967L196.447 405.479L197.162 405.789L199.149 401.201ZM205.166 403.414L206.745 398.669L206.715 398.659L206.686 398.65L205.166 403.414ZM209.967 405.476L214.601 407.352L216.295 403.167L212.304 401.056L209.967 405.476ZM192.401 417.078L194.337 421.688L194.363 421.677L194.388 421.666L192.401 417.078ZM167.464 422.264L167.235 417.269L167.228 417.27L167.221 417.27L167.464 422.264ZM165.553 422.357L165.796 427.351L165.797 427.351L165.553 422.357ZM160.929 422.576L160.697 417.581L156.226 417.789L155.939 422.256L160.929 422.576ZM162.912 430.146L166.984 427.244L166.975 427.231L166.965 427.218L162.912 430.146ZM164.098 431.81L160.026 434.712L160.068 434.77L160.111 434.827L164.098 431.81ZM167.014 434.866L170.723 431.514L170.516 431.284L170.281 431.082L167.014 434.866ZM168.14 436.113L173.119 436.571L173.32 434.388L171.85 432.761L168.14 436.113ZM167.419 439.676L168.767 444.49L171.312 443.778L172.157 441.274L167.419 439.676ZM123.486 432.155L120.924 436.449L121.04 436.518L121.16 436.581L123.486 432.155ZM94.4631 397.908L89.6115 399.118L89.6546 399.291L89.7099 399.46L94.4631 397.908ZM95.3053 385.526L96.0004 380.575L92.507 380.084L90.8736 383.211L95.3053 385.526ZM102.697 388.421L100.09 392.687L100.175 392.739L100.263 392.788L102.697 388.421ZM116.218 389.801L117.417 394.655L120.991 393.773L121.21 390.098L116.218 389.801ZM116.94 377.689L117.552 372.726L112.265 372.073L111.948 377.391L116.94 377.689ZM125.683 379.915L123.074 384.181L123.198 384.256L123.326 384.324L125.683 379.915ZM130.821 381.162L131.011 386.158L131.681 386.133L132.321 385.932L130.821 381.162ZM135.689 379.114L138.165 383.458L140.563 382.091L140.684 379.333L135.689 379.114ZM134.968 370.608L130.085 371.683L130.087 371.693L134.968 370.608ZM134.247 361.301L134.077 356.304L129.425 356.463L129.25 361.114L134.247 361.301ZM150.833 362.726L150.056 367.665L155.146 368.467L155.793 363.355L150.833 362.726ZM151.96 347.363L146.964 347.165L146.963 347.177L151.96 347.363ZM152.054 344.979L157.05 345.177L157.05 345.176L152.054 344.979ZM152.275 339.214L152.982 334.264L147.486 333.48L147.279 339.028L152.275 339.214ZM159.081 341.04L157.033 345.601L157.131 345.645L157.231 345.685L159.081 341.04ZM173.188 342.064L173.362 347.061L176.703 346.945L177.873 343.813L173.188 342.064ZM175.487 326.3L170.487 326.365L170.488 326.395L170.489 326.426L175.487 326.3ZM175.457 324.029L180.457 323.964L180.457 323.96L175.457 324.029ZM175.352 318.552L172.977 314.152L170.278 315.609L170.353 318.675L175.352 318.552ZM242.688 298.468L242.692 303.468L242.724 303.468L242.756 303.468L242.688 298.468ZM244.643 298.442L244.632 293.442L244.604 293.442L244.576 293.442L244.643 298.442ZM256.841 300.027L255.607 304.872L268.839 308.24L260.912 297.124L256.841 300.027ZM243.86 292.189L244.906 287.3L244.58 287.23L244.248 287.204L243.86 292.189ZM212.851 295.039L214.072 299.888L214.083 299.885L214.095 299.882L212.851 295.039ZM211.104 295.479L209.884 290.63L209.87 290.634L209.856 290.637L211.104 295.479ZM181.121 306.439L183.157 311.006L183.159 311.005L181.121 306.439ZM179.51 307.158L177.474 302.591L177.45 302.601L177.427 302.612L179.51 307.158ZM148.603 326.18L151.387 330.333L151.387 330.333L148.603 326.18ZM138.345 333.021L135.581 328.854L135.581 328.854L138.345 333.021ZM135.929 334.626L138.697 338.79L138.7 338.788L135.929 334.626ZM116.604 346.236L114.24 341.83L114.209 341.847L114.179 341.864L116.604 346.236ZM114.748 347.266L117.11 351.673L117.142 351.655L117.174 351.638L114.748 347.266ZM113.121 348.138L110.759 343.731L110.282 343.986L109.871 344.338L113.121 348.138ZM111.022 354.529L106.04 354.114L106.031 354.213L106.027 354.312L111.022 354.529ZM110.942 356.372L115.937 356.6L115.938 356.589L110.942 356.372ZM110.851 358.383L105.856 358.156L105.855 358.166L105.855 358.176L110.851 358.383ZM110.765 360.455L115.76 360.678L115.76 360.67L115.76 360.662L110.765 360.455ZM110.67 362.569L105.675 362.346L105.675 362.347L110.67 362.569ZM110.449 367.714L109.862 372.679L115.221 373.313L115.445 367.921L110.449 367.714ZM103.959 364.374L107.573 360.918L107.551 360.895L107.528 360.872L103.959 364.374ZM102.446 362.832L98.7228 366.169L98.7981 366.253L98.8772 366.334L102.446 362.832ZM99.3167 358.763L103.439 355.933L103.286 355.711L103.111 355.507L99.3167 358.763ZM95.9335 356.898L95.9011 351.898L95.6657 351.9L95.4314 351.924L95.9335 356.898ZM90.9785 357.739L91.9516 362.643L92.0219 362.629L92.0918 362.613L90.9785 357.739ZM87.3728 358.451L86.4084 353.545L82.0977 354.393L82.3834 358.776L87.3728 358.451ZM87.6883 363.172L92.6772 362.838L92.6768 362.832L87.6883 363.172ZM87.8658 365.827L82.8769 366.16L82.8804 366.212L82.8849 366.264L87.8658 365.827ZM88.8151 372.701L88.7182 377.7L94.8485 377.819L93.7314 371.79L88.8151 372.701ZM75.8712 367.928L78.4731 363.658L78.3662 363.593L78.2563 363.534L75.8712 367.928ZM71.7556 367.466L70.1334 362.736L69.6917 362.888L69.2858 363.119L71.7556 367.466ZM70.0655 368.426L72.2903 372.904L72.4146 372.842L72.5353 372.774L70.0655 368.426ZM68.6091 369.15L66.3843 364.672L66.0789 364.824L65.797 365.016L68.6091 369.15ZM65.0175 372.701L60.8045 370.008L60.192 370.967L60.0543 372.096L65.0175 372.701ZM64.9104 380.436L69.9047 380.197L69.903 380.16L69.9007 380.124L64.9104 380.436ZM64.2963 384.814L64.7784 389.79L67.9995 389.478L69.034 386.412L64.2963 384.814ZM43.0143 377.037L39.8249 380.888L39.8943 380.946L39.9657 381L43.0143 377.037ZM21.6107 339.904L16.624 340.267L16.628 340.323L16.6334 340.379L21.6107 339.904ZM28.9605 302.164L33.3679 304.525L33.3864 304.491L33.4045 304.456L28.9605 302.164ZM29.9464 300.252L25.5773 297.821L25.5388 297.89L25.5025 297.961L29.9464 300.252ZM39.0565 290.052L39.6358 285.086L38.0957 284.906L36.7242 285.629L39.0565 290.052ZM42.6622 290.764L47.3998 289.166L46.5703 286.707L44.0823 285.97L42.6622 290.764ZM44.1044 295.039L39.3668 296.638L41.2373 302.182L46.4221 299.47L44.1044 295.039ZM54.3807 287.781L51.0789 284.026L51.0694 284.034L51.06 284.043L54.3807 287.781ZM57.0061 285.479L60.2968 289.244L60.2979 289.243L57.0061 285.479ZM58.4149 284.247L55.1788 280.435L55.1508 280.459L55.1231 280.483L58.4149 284.247ZM63.6383 280.021L60.5398 276.097L60.5398 276.097L63.6383 280.021ZM63.7611 279.924L66.8596 283.848L66.8775 283.834L66.8953 283.82L63.7611 279.924ZM75.2303 269.46L71.7032 265.916L71.7008 265.918L75.2303 269.46ZM78.4093 266.328L81.908 269.9L81.9146 269.894L81.9211 269.887L78.4093 266.328ZM89.5743 254.004L85.706 250.836L85.6902 250.856L85.6745 250.875L89.5743 254.004ZM94.3671 249.821L97.9824 253.275L98.0264 253.229L98.0691 253.182L94.3671 249.821ZM96.1309 246.879L92.0752 243.955L92.0634 243.971L92.0517 243.988L96.1309 246.879ZM91.6996 243.027L86.9474 244.582L87.462 246.155L88.8136 247.11L91.6996 243.027ZM91.2208 241.563L95.973 240.009L95.9606 239.971L95.9476 239.933L91.2208 241.563ZM86.6066 231.494L82.3679 234.146L82.3731 234.154L82.3784 234.163L86.6066 231.494ZM82.3248 212.39L77.5293 210.975L77.4088 211.383L77.3591 211.806L82.3248 212.39ZM98.6887 192.818L101.89 196.658L101.895 196.654L98.6887 192.818ZM121.649 154.867L126.626 155.343L126.63 155.307L126.633 155.271L121.649 154.867ZM121.937 151.141L116.953 150.74L116.952 150.756L116.95 150.773L121.937 151.141ZM122.272 146.989L127.255 147.392L127.256 147.382L122.272 146.989ZM122.442 144.82L117.458 144.423L117.458 144.428L122.442 144.82ZM168.862 31.4166L172.463 34.8847L172.496 34.8506L172.528 34.8159L168.862 31.4166ZM170.397 29.7606L166.786 26.3024L166.758 26.3317L166.73 26.3613L170.397 29.7606ZM217.178 5.05435L213.664 8.61114L215.106 10.0361L218.62 6.47934L222.134 2.92255L220.692 1.49756L217.178 5.05435ZM218.62 6.47934L213.633 6.12616C213.524 7.6552 213.027 8.58728 211.333 10.9917L215.42 13.8715L219.508 16.7512C221.263 14.2592 223.288 11.3478 223.608 6.83251L218.62 6.47934ZM215.42 13.8715L211.306 11.0299L209.72 13.326L213.834 16.1676L217.948 19.0092L219.534 16.713L215.42 13.8715ZM213.834 16.1676L209.739 13.2994C208.903 14.493 208.065 15.6801 207.222 16.8603L211.292 19.7659L215.361 22.6714C216.225 21.4609 217.081 20.2482 217.93 19.0357L213.834 16.1676ZM211.292 19.7659L207.22 16.8638C186.632 45.749 175.447 82.3482 181.509 118.195L186.439 117.361L191.369 116.527C185.832 83.7834 196.008 49.824 215.363 22.6679L211.292 19.7659ZM186.439 117.361L181.506 118.172L181.776 119.818L186.71 119.007L191.644 118.196L191.373 116.55L186.439 117.361ZM186.71 119.007L181.788 119.889C182.231 122.36 182.813 124.794 183.836 127.364L188.482 125.516L193.127 123.667C192.437 121.932 192.004 120.204 191.632 118.125L186.71 119.007ZM188.482 125.516L183.793 127.252C184.241 128.463 184.321 128.775 184.348 128.972C184.352 129 184.396 129.183 184.205 129.946L189.053 131.166L193.902 132.386C194.303 130.795 194.48 129.283 194.259 127.639C194.06 126.165 193.559 124.828 193.17 123.779L188.482 125.516ZM189.053 131.166L185.085 128.125C182.724 131.205 179.579 133.653 175.837 136.74L179.018 140.597L182.2 144.454C185.526 141.711 189.795 138.419 193.022 134.207L189.053 131.166ZM179.018 140.597L175.811 136.761C169.184 142.301 163.858 148.577 159.026 155.331L163.092 158.241L167.159 161.15C171.672 154.841 176.442 149.267 182.225 144.433L179.018 140.597ZM163.092 158.241L166.082 162.248L168.291 160.6L165.301 156.593L162.311 152.585L160.103 154.233L163.092 158.241ZM165.301 156.593L168.271 160.615C169.457 159.74 170.643 158.865 171.829 157.99L168.862 153.966L165.894 149.941C164.706 150.817 163.518 151.694 162.331 152.571L165.301 156.593ZM168.862 153.966L171.843 157.979L174.102 156.301L171.121 152.287L168.139 148.274L165.88 149.952L168.862 153.966ZM171.121 152.287L174.089 156.311C203.127 134.89 234.947 118.817 271.032 120.486L271.263 115.491L271.494 110.496C232.024 108.671 197.906 126.316 168.153 148.264L171.121 152.287ZM271.263 115.491L267.438 112.272C264.097 116.242 260.481 119.942 256.651 123.732L260.167 127.286L263.684 130.841C267.57 126.996 271.447 123.038 275.089 118.71L271.263 115.491ZM260.167 127.286L256.647 123.736L254.685 125.681L258.206 129.231L261.727 132.782L263.688 130.836L260.167 127.286ZM258.206 129.231L254.687 125.679C253.323 127.031 251.958 128.381 250.592 129.73L254.106 133.288L257.619 136.845C258.989 135.492 260.357 134.138 261.725 132.783L258.206 129.231ZM254.106 133.288L250.591 129.731C248.854 131.447 247.123 133.168 245.396 134.886L248.923 138.43L252.45 141.974C254.174 140.259 255.895 138.549 257.62 136.844L254.106 133.288ZM248.923 138.43L245.398 134.884C243.924 136.349 242.446 137.81 240.961 139.278L244.476 142.834L247.991 146.39C249.474 144.924 250.962 143.452 252.448 141.976L248.923 138.43ZM244.476 142.834L240.961 139.278L240.382 139.85L243.897 143.406L247.412 146.962L247.991 146.39L244.476 142.834ZM243.897 143.406L240.367 139.864L238.525 141.7L242.054 145.242L245.584 148.784L247.426 146.948L243.897 143.406ZM242.054 145.242L238.547 141.679C235.006 145.164 231.323 148.38 227.391 151.488L230.492 155.411L233.592 159.333C237.779 156.024 241.737 152.57 245.562 148.805L242.054 145.242ZM230.492 155.411L227.389 151.49C224.981 153.395 222.665 155.367 220.416 157.293L223.668 161.09L226.92 164.888C229.171 162.961 231.354 161.104 233.594 159.332L230.492 155.411ZM223.668 161.09L225.475 165.753C241.607 159.501 253.96 149.238 265.458 137.517L261.889 134.016L258.319 130.514C247.262 141.785 236.086 150.916 221.862 156.428L223.668 161.09ZM261.889 134.016L265.406 137.569C266.604 136.383 267.804 135.198 269.006 134.013L265.494 130.453L261.983 126.894C260.779 128.082 259.575 129.271 258.371 130.462L261.889 134.016ZM265.494 130.453L269.023 133.996C270.02 133.003 271.016 132.01 272.013 131.016L268.483 127.475L264.953 123.934C263.958 124.927 262.962 125.919 261.966 126.911L265.494 130.453ZM268.483 127.475L272.008 131.022L275.374 127.676L271.849 124.13L268.325 120.583L264.959 123.929L268.483 127.475ZM271.849 124.13L275.383 127.668L277.063 125.989L273.53 122.452L269.996 118.914L268.316 120.592L271.849 124.13ZM273.53 122.452L277.051 126.001C280.017 123.058 283.007 120.26 286.146 117.594L282.909 113.784L279.672 109.973C276.291 112.845 273.109 115.826 270.008 118.902L273.53 122.452ZM282.909 113.784L286.16 117.582C288.265 115.78 290.28 113.897 292.195 112.122L288.796 108.455L285.397 104.788C283.427 106.614 281.578 108.341 279.657 109.985L282.909 113.784ZM288.796 108.455L292.18 112.136C295.522 109.063 298.961 106.148 302.542 103.308L299.436 99.3902L296.329 95.4725C292.577 98.4477 288.952 101.52 285.412 104.774L288.796 108.455ZM299.436 99.3902L302.581 103.277C305.167 101.184 307.666 99.0223 310.098 96.9161L306.825 93.1364L303.551 89.3567C301.102 91.478 298.727 93.532 296.291 95.5031L299.436 99.3902ZM306.825 93.1364L310.091 96.9217C314.265 93.3197 318.553 89.8771 322.967 86.5012L319.929 82.5297L316.891 78.5582C312.355 82.0279 307.91 85.5954 303.558 89.351L306.825 93.1364ZM319.929 82.5297L322.968 86.5005C324.723 85.1569 326.457 83.7949 328.176 82.4146L325.045 78.5164L321.914 74.6182C320.251 75.9532 318.579 77.2666 316.89 78.5589L319.929 82.5297ZM325.045 78.5164L328.175 82.4149C334.936 76.9861 341.938 71.8976 349.13 66.8621L346.262 62.7663L343.394 58.6706C336.118 63.7655 328.916 68.9948 321.914 74.6178L325.045 78.5164ZM346.262 62.7663L349.143 66.8527L350.905 65.6104L348.024 61.524L345.143 57.4376L343.381 58.68L346.262 62.7663ZM348.024 61.524L350.904 65.6109C364.118 56.2978 377.716 47.8343 391.925 40.0807L389.53 35.6916L387.135 31.3025C372.591 39.2388 358.669 47.9041 345.143 57.4371L348.024 61.524ZM389.53 35.6916L391.938 40.0739L393.862 39.0167L391.455 34.6343L389.048 30.252L387.123 31.3092L389.53 35.6916ZM391.455 34.6343L393.849 39.0238C417.255 26.2573 446.324 12.7677 472.117 12.6816L472.101 7.68167L472.084 2.6817C443.497 2.77712 412.418 17.5049 389.061 30.2448L391.455 34.6343ZM472.101 7.68167L472.172 12.6812L474.718 12.645L474.647 7.64549L474.576 2.64599L472.03 2.68218L472.101 7.68167ZM474.647 7.64549L474.047 12.6093C474.614 12.6779 474.921 12.7157 475.145 12.7502C475.348 12.7815 475.317 12.7864 475.199 12.7495C475.051 12.7028 474.958 12.6518 474.991 12.6697C475.083 12.7188 475.222 12.8014 475.617 13.0409L478.208 8.76433L480.798 4.48774C480.243 4.15105 479.336 3.56731 478.197 3.20942C477.202 2.89668 476.101 2.78484 475.247 2.68164L474.647 7.64549ZM478.208 8.76433L473.887 11.2798C473.934 11.3611 473.974 11.4292 474.01 11.4921C474.046 11.5545 474.075 11.6042 474.098 11.6459C474.122 11.6875 474.137 11.7153 474.147 11.7334C474.156 11.7513 474.157 11.7542 474.153 11.7455C474.145 11.7287 474.106 11.6484 474.06 11.5225C474.037 11.4585 474.013 11.3855 473.991 11.3045C473.968 11.2231 473.948 11.14 473.932 11.0559C473.915 10.9721 473.903 10.8939 473.895 10.823C473.887 10.7526 473.883 10.6931 473.88 10.647C473.878 10.6015 473.878 10.5689 473.878 10.5528C473.878 10.537 473.878 10.5341 473.878 10.548C473.877 10.5619 473.876 10.5876 473.873 10.6289C473.87 10.6703 473.866 10.7219 473.861 10.7878C473.856 10.8538 473.849 10.9287 473.841 11.0167C473.833 11.1052 473.825 11.2005 473.815 11.3094L478.794 11.7648L483.773 12.2201C483.822 11.6899 483.99 10.3889 483.746 9.13897C483.475 7.75236 482.747 6.62248 482.529 6.24881L478.208 8.76433ZM478.794 11.7648H473.794V11.7651H478.794H483.794V11.7648H478.794ZM478.794 11.7651L474.013 10.3003C473.768 11.0996 473.68 11.1091 473.776 10.9886C473.801 10.9561 473.784 10.9882 473.635 11.115C473.466 11.2585 473.219 11.4487 472.78 11.7688L475.726 15.8086L478.672 19.8484C479.541 19.215 480.671 18.3847 481.605 17.2097C482.618 15.9341 483.161 14.5803 483.575 13.23L478.794 11.7651ZM475.726 15.8086L472.736 11.8009L471.148 12.986L474.138 16.9937L477.127 21.0013L478.716 19.8162L475.726 15.8086ZM474.138 16.9937L471.212 12.9388L469.491 14.1806L472.416 18.2355L475.342 22.2904L477.063 21.0486L474.138 16.9937ZM472.416 18.2355L469.432 14.2236C468.24 15.1104 467.049 15.9983 465.858 16.8872L468.85 20.8934L471.842 24.8996C473.027 24.0144 474.213 23.1303 475.4 22.2474L472.416 18.2355ZM468.85 20.8934L465.872 16.8767L464.046 18.2304L467.024 22.2471L470.001 26.2638L471.828 24.9102L468.85 20.8934ZM467.024 22.2471L464.022 18.2488C461.275 20.3112 458.617 22.4446 456.02 24.5467L459.165 28.4331L462.311 32.3194C464.899 30.225 467.436 28.1902 470.026 26.2453L467.024 22.2471ZM459.165 28.4331L456.023 24.5435L454.58 25.7092L457.722 29.5987L460.864 33.4882L462.307 32.3226L459.165 28.4331ZM457.722 29.5987L454.579 25.71C453.662 26.4513 452.745 27.1931 451.829 27.9355L454.976 31.8209L458.123 35.7063C459.037 34.9662 459.951 34.2266 460.865 33.4873L457.722 29.5987ZM454.976 31.8209L451.835 27.9308C450.698 28.8485 449.553 29.7615 448.395 30.683L451.509 34.595L454.623 38.507C455.781 37.585 456.951 36.6528 458.117 35.711L454.976 31.8209ZM451.509 34.595L448.391 30.6863C444.217 34.0156 440.224 37.4679 436.312 41.0279L439.678 44.7258L443.043 48.4237C446.83 44.9771 450.656 41.6709 454.627 38.5038L451.509 34.595ZM439.678 44.7258L436.327 41.0146C434.882 42.3196 433.407 43.59 431.889 44.8598L435.097 48.6946L438.306 52.5294C439.894 51.2003 441.468 49.8458 443.028 48.4369L439.678 44.7258ZM435.097 48.6946L431.847 44.8954C428.358 47.8804 425.162 51.1509 422.157 54.1547L425.691 57.6912L429.226 61.2277C432.363 58.0923 435.227 55.1638 438.348 52.4938L435.097 48.6946ZM425.691 57.6912L422.164 54.1477C419.988 56.3141 417.9 58.3187 415.675 60.1688L418.872 64.0132L422.069 67.8576C424.642 65.7177 426.981 63.4624 429.219 61.2348L425.691 57.6912ZM418.872 64.0132L415.654 60.1859C412.691 62.6765 410.218 65.4135 407.923 67.9916L411.657 71.3163L415.392 74.6409C417.697 72.0515 419.742 69.8137 422.089 67.8405L418.872 64.0132ZM411.657 71.3163L407.933 67.9803C406.112 70.013 404.215 71.9905 402.245 74.0427L405.852 77.5052L409.459 80.9677C411.409 78.9362 413.427 76.835 415.382 74.6522L411.657 71.3163ZM405.852 77.5052L402.245 74.0425L402.132 74.1601L405.739 77.6228L409.346 81.0855L409.459 80.9679L405.852 77.5052ZM405.739 77.6228L402.13 74.1621C397.409 79.0855 392.815 84.1342 388.496 89.5864L392.415 92.6911L396.334 95.7958C400.382 90.6865 404.739 85.8894 409.348 81.0835L405.739 77.6228ZM392.415 92.6911L388.519 89.5574C387.733 90.534 386.948 91.5106 386.162 92.4871L390.057 95.6218L393.952 98.7564C394.739 97.7794 395.525 96.8021 396.311 95.8248L392.415 92.6911ZM390.057 95.6218L386.33 92.289C379.604 99.811 375.74 104.095 372.977 108.901C370.197 113.735 368.585 119.005 365.748 128.115L370.522 129.602L375.295 131.088C378.256 121.583 379.541 117.546 381.646 113.885C383.767 110.196 386.772 106.797 393.784 98.9545L390.057 95.6218ZM370.522 129.602L365.589 130.419C366.287 134.632 368.254 137.086 370.5 139.378L374.071 135.878L377.641 132.377C376.043 130.747 375.67 130.088 375.454 128.784L370.522 129.602ZM374.071 135.878L371.621 140.236C375.718 142.539 379.755 142.107 382.268 142.042L382.139 137.044L382.01 132.045C378.556 132.135 377.707 132.185 376.521 131.519L374.071 135.878ZM382.139 137.044L382.172 142.044L383.862 142.033L383.829 137.033L383.796 132.033L382.106 132.044L382.139 137.044ZM383.829 137.033L383.895 142.032C387.204 141.988 390.348 141.706 393.528 141.28L392.864 136.324L392.201 131.369C389.309 131.756 386.576 131.996 383.762 132.033L383.829 137.033ZM392.864 136.324L393.361 141.3C416.124 139.027 438.408 143.719 459.337 153.302L461.419 148.755L463.5 144.209C441.247 134.02 417.186 128.871 392.367 131.349L392.864 136.324ZM461.419 148.755L459.346 153.305L461.033 154.074L463.106 149.524L465.179 144.974L463.492 144.206L461.419 148.755ZM463.106 149.524L460.938 154.03C463.645 155.332 465.378 156.594 467.3 158.733L471.019 155.391L474.738 152.048C471.868 148.855 469.049 146.835 465.274 145.019L463.106 149.524ZM471.019 155.391L468.269 151.215C466.778 152.197 466.029 152.351 463.275 152.817L464.11 157.747L464.945 162.677C467.855 162.184 470.41 161.779 473.769 159.566L471.019 155.391ZM464.11 157.747L463.275 152.817L463.173 152.835L464.008 157.765L464.843 162.694L464.945 162.677L464.11 157.747ZM464.008 157.765L463.135 152.841C462.154 153.015 461.174 153.189 460.195 153.364L461.071 158.286L461.947 163.209C462.925 163.035 463.903 162.861 464.881 162.688L464.008 157.765ZM461.071 158.286L460.212 153.361C458.688 153.626 457.169 153.888 455.65 154.142L456.477 159.074L457.303 164.005C458.85 163.746 460.392 163.48 461.93 163.212L461.071 158.286ZM456.477 159.074L455.643 154.143C447.947 155.444 438.6 157.086 431.878 164.972L435.683 168.215L439.489 171.459C443.557 166.685 449.262 165.364 457.31 164.004L456.477 159.074ZM435.683 168.215L431.539 165.419C430.393 167.116 429.576 168.792 429.252 170.796C428.963 172.58 429.135 174.346 429.26 175.775L434.241 175.34L439.222 174.906C439.072 173.19 439.07 172.722 439.123 172.393C439.141 172.283 439.182 171.969 439.828 171.012L435.683 168.215ZM434.241 175.34L429.631 177.275C432.137 183.248 437.564 187.07 442.399 189.194L444.41 184.617L446.422 180.039C442.778 178.438 439.967 176.064 438.851 173.406L434.241 175.34ZM444.41 184.617L442.548 189.257C443.659 189.703 444.772 190.138 445.886 190.564L447.672 185.894L449.458 181.224C448.391 180.816 447.329 180.4 446.272 179.976L444.41 184.617ZM447.672 185.894L445.811 190.535C447.033 191.025 448.254 191.515 449.476 192.006L451.34 187.367L453.204 182.727C451.981 182.235 450.757 181.744 449.533 181.253L447.672 185.894ZM451.34 187.367L449.5 192.016L451.406 192.77L453.246 188.121L455.086 183.472L453.18 182.717L451.34 187.367ZM453.246 188.121L451.403 192.769C475.937 202.5 497.318 214.787 516.16 232.712L519.606 229.09L523.053 225.467C503.062 206.449 480.493 193.549 455.09 183.473L453.246 188.121ZM519.606 229.09L516.163 232.715C517.185 233.686 518.211 234.641 519.225 235.58L522.623 231.911L526.02 228.243C525.014 227.311 524.024 226.39 523.049 225.464L519.606 229.09ZM522.623 231.911L519.184 235.541C527.824 243.728 537.359 255.214 541.357 265.501L546.018 263.69L550.678 261.878C545.882 249.538 535.082 236.829 526.062 228.282L522.623 231.911ZM546.018 263.69L541.076 262.928C541.01 263.356 540.97 263.615 540.936 263.813C540.904 263.999 540.891 264.051 540.89 264.053C540.89 264.054 540.89 264.054 540.89 264.053C540.89 264.052 540.89 264.054 540.889 264.057C540.887 264.064 540.879 264.087 540.862 264.135C540.82 264.252 540.761 264.407 540.635 264.731L545.296 266.54L549.958 268.348C550.16 267.827 550.404 267.219 550.585 266.506C550.747 265.863 550.849 265.166 550.959 264.451L546.018 263.69ZM545.296 266.54L543.812 261.765C542.998 262.018 542.569 262.074 542.263 262.081C541.95 262.089 541.508 262.053 540.648 261.842L539.457 266.698L538.266 271.554C539.632 271.889 541.011 272.116 542.512 272.078C544.02 272.041 545.399 271.744 546.78 271.314L545.296 266.54ZM539.457 266.698L540.576 261.825L538.844 261.427L537.725 266.3L536.606 271.174L538.338 271.571L539.457 266.698ZM537.725 266.3L538.855 261.43L537.007 261.001L535.877 265.872L534.747 270.742L536.595 271.171L537.725 266.3ZM535.877 265.872L536.924 260.982C531.545 259.83 526.253 259.108 520.568 259.09L520.552 264.09L520.537 269.09C525.363 269.105 529.945 269.715 534.829 270.761L535.877 265.872ZM520.552 264.09L520.614 259.091L518.933 259.07L518.872 264.07L518.81 269.069L520.491 269.09L520.552 264.09ZM518.872 264.07L518.799 259.07C513.88 259.142 509.236 260.169 504.787 263.686L507.887 267.608L510.988 271.531C513.221 269.766 515.507 269.12 518.945 269.069L518.872 264.07ZM507.887 267.608L503.905 264.585C501.453 267.815 501.008 271.332 501.066 274.325L506.065 274.23L511.064 274.134C511.028 272.272 511.327 271.347 511.87 270.631L507.887 267.608ZM506.065 274.23L501.148 275.137C502.513 282.535 507.603 288.691 510.932 293.064L514.91 290.035L518.888 287.007C515.021 281.926 511.818 277.855 510.982 273.322L506.065 274.23ZM514.91 290.035L510.843 292.944C526.759 315.195 537.871 347.1 537.413 374.041L542.412 374.126L547.411 374.211C547.911 344.855 535.973 310.887 518.977 287.126L514.91 290.035ZM542.412 374.126L541.213 369.272L538.328 369.985L539.527 374.839L540.726 379.693L543.611 378.98L542.412 374.126ZM539.527 374.839L543.231 371.479L542.263 370.413L538.56 373.772L534.856 377.131L535.824 378.198L539.527 374.839ZM538.56 373.772L542.252 370.401C540.765 368.771 539.266 367.157 537.783 365.559L534.119 368.961L530.454 372.362C531.941 373.964 533.412 375.549 534.867 377.143L538.56 373.772ZM534.119 368.961L537.824 365.603L536.302 363.925L532.598 367.282L528.893 370.64L530.414 372.318L534.119 368.961ZM532.598 367.282L536.251 363.869C532.123 359.45 527.053 354.972 519.193 354.273L518.75 359.253L518.306 364.233C522.353 364.593 525.243 366.734 528.944 370.696L532.598 367.282ZM518.75 359.253L519.288 354.282L517.697 354.109L517.158 359.08L516.619 364.051L518.211 364.224L518.75 359.253ZM517.158 359.08L517.224 354.081C516.687 354.074 515.125 353.971 513.526 354.643C512.787 354.953 512.197 355.349 511.779 355.652C511.369 355.948 510.906 356.317 510.459 356.672L513.566 360.589L516.674 364.506C516.92 364.311 517.112 364.158 517.28 364.027C517.447 363.897 517.558 363.813 517.637 363.757C517.715 363.7 517.726 363.696 517.692 363.716C517.652 363.74 517.551 363.798 517.398 363.862C517.239 363.929 517.067 363.984 516.895 364.023C516.73 364.06 516.608 364.072 516.56 364.076C516.521 364.079 516.53 364.077 516.633 364.076C516.74 364.075 516.871 364.077 517.092 364.08L517.158 359.08ZM513.566 360.589L508.81 359.048C508.174 361.011 507.683 362.871 507.259 364.861L512.149 365.902L517.04 366.943C517.396 365.271 517.799 363.746 518.323 362.13L513.566 360.589ZM512.149 365.902L507.271 364.805L506.905 366.434L511.783 367.531L516.661 368.628L517.028 366.999L512.149 365.902ZM511.783 367.531L506.901 366.45C505.523 372.678 504.345 378.928 503.197 385.102L508.113 386.016L513.028 386.93C514.178 380.752 515.327 374.654 516.665 368.612L511.783 367.531ZM508.113 386.016L503.198 385.097C502.779 387.338 502.357 389.58 501.935 391.822L506.848 392.748L511.761 393.675C512.185 391.429 512.607 389.183 513.027 386.935L508.113 386.016ZM506.848 392.748L501.934 391.825L501.626 393.46L506.54 394.384L511.454 395.308L511.762 393.672L506.848 392.748ZM506.54 394.384L501.628 393.452C500.997 396.779 500.302 400.096 499.561 403.425L504.442 404.51L509.323 405.595C510.081 402.188 510.798 398.767 511.453 395.316L506.54 394.384ZM504.442 404.51L499.558 403.438C496.839 415.832 495.285 432.107 502.371 445.098L506.761 442.704L511.15 440.309C505.903 430.691 506.699 417.554 509.326 405.582L504.442 404.51ZM506.761 442.704L502.607 445.488C512.376 460.06 528.837 463.058 542.242 466.078L543.341 461.201L544.441 456.323C529.954 453.059 518.052 450.567 510.914 439.92L506.761 442.704ZM543.341 461.201L542.239 466.078C563.689 470.925 580.93 479.575 596.649 494.591L600.103 490.975L603.557 487.36C586.392 470.963 567.468 461.526 544.444 456.324L543.341 461.201ZM600.103 490.975L596.735 494.671L598.189 495.995L601.557 492.3L604.925 488.605L603.471 487.28L600.103 490.975ZM601.557 492.3L598.146 495.957C601.831 499.393 604.87 503.489 608.21 508.018L612.234 505.051L616.258 502.083C613.01 497.679 609.442 492.817 604.967 488.643L601.557 492.3ZM612.234 505.051L608.209 508.017L608.337 508.191L612.362 505.225L616.387 502.259L616.259 502.084L612.234 505.051ZM612.362 505.225L608.35 508.208L609.226 509.386L613.239 506.404L617.251 503.421L616.375 502.242L612.362 505.225ZM613.239 506.404L609.208 509.363C638.798 549.668 645.476 603.601 638.422 652.713L643.371 653.424L648.321 654.135C655.602 603.437 648.921 546.56 617.269 503.445L613.239 506.404ZM643.371 653.424L638.421 652.724L638.105 654.957L643.056 655.657L648.006 656.357L648.322 654.124L643.371 653.424ZM643.056 655.657L638.108 654.936C637.396 659.822 636.543 664.684 635.582 669.555L640.487 670.524L645.392 671.492C646.381 666.484 647.264 661.455 648.003 656.377L643.056 655.657ZM640.487 670.524L635.581 669.56L635.157 671.718L640.063 672.682L644.969 673.646L645.393 671.487L640.487 670.524ZM640.063 672.682L635.162 671.691C631.324 690.677 624.965 709.274 616.514 726.774L621.016 728.948L625.519 731.122C634.318 712.901 640.953 693.511 644.964 673.673L640.063 672.682ZM621.016 728.948L616.512 726.778L615.377 729.133L619.881 731.303L624.386 733.474L625.52 731.119L621.016 728.948ZM619.881 731.303L615.384 729.118C609.994 740.211 604.138 750.968 597.712 761.498L601.981 764.102L606.249 766.707C612.846 755.896 618.853 744.859 624.378 733.489L619.881 731.303ZM601.981 764.102L597.712 761.498C596.636 763.263 595.573 765.03 594.518 766.79L598.807 769.36L603.096 771.93C604.146 770.178 605.193 768.437 606.249 766.706L601.981 764.102ZM598.807 769.36L594.527 766.776C587.432 778.529 579.502 789.833 571.137 800.869L575.121 803.889L579.106 806.91C587.614 795.685 595.76 784.083 603.088 771.944L598.807 769.36ZM575.121 803.889L571.133 800.874C570.077 802.271 569.033 803.672 567.999 805.06L572.01 808.046L576.02 811.032C577.054 809.643 578.078 808.269 579.11 806.904L575.121 803.889ZM572.01 808.046L568.005 805.052C563.494 811.086 558.787 816.884 553.803 822.543L557.556 825.847L561.308 829.152C566.468 823.292 571.343 817.288 576.014 811.04L572.01 808.046ZM557.556 825.847L553.791 822.557L552.402 824.146L556.167 827.436L559.932 830.727L561.321 829.137L557.556 825.847ZM556.167 827.436L552.411 824.136C549.659 827.268 546.843 830.357 543.991 833.474L547.68 836.849L551.368 840.225C554.221 837.107 557.098 833.952 559.923 830.737L556.167 827.436ZM547.68 836.849L543.985 833.481C542.905 834.665 541.829 835.856 540.76 837.055L544.491 840.384L548.222 843.712C549.265 842.543 550.316 841.379 551.375 840.218L547.68 836.849ZM544.491 840.384L540.766 837.048C537.633 840.546 534.395 843.951 531.065 847.308L534.615 850.829L538.164 854.35C541.592 850.895 544.95 847.366 548.215 843.72L544.491 840.384ZM534.615 850.829L531.034 847.34L529.829 848.576L533.41 852.066L536.991 855.555L538.196 854.319L534.615 850.829ZM533.41 852.066L529.881 848.524C528.997 849.404 528.432 849.965 527.993 850.371C527.551 850.78 527.439 850.838 527.49 850.807C527.831 850.601 528.309 850.63 526.729 850.801L527.268 855.772L527.807 860.743C528.945 860.62 530.78 860.501 532.657 859.369C534.081 858.509 535.471 857.07 536.939 855.608L533.41 852.066ZM527.268 855.772L530.782 852.215C530.524 851.96 530.434 851.823 530.41 851.784C530.395 851.76 530.382 851.737 530.358 851.655C530.323 851.536 530.276 851.327 530.212 850.872C530.179 850.646 530.149 850.404 530.109 850.093C530.071 849.794 530.026 849.446 529.973 849.071L525.023 849.777L520.073 850.483C520.196 851.343 520.356 853.082 520.76 854.463C521.293 856.283 522.24 857.833 523.754 859.329L527.268 855.772ZM525.023 849.777L529.968 849.04L529.773 847.731L524.828 848.467L519.882 849.204L520.077 850.514L525.023 849.777ZM524.828 848.467L529.773 847.73C529.697 847.222 529.621 846.714 529.545 846.206L524.6 846.946L519.655 847.686C519.731 848.192 519.807 848.699 519.882 849.205L524.828 848.467ZM524.6 846.946L529.548 846.225L529.33 844.729L524.383 845.45L519.435 846.171L519.653 847.667L524.6 846.946ZM524.383 845.45L529.329 844.721C527.712 833.748 525.844 822.528 519.381 811.881L515.107 814.475L510.833 817.07C516.133 825.801 517.812 835.158 519.436 846.179L524.383 845.45ZM515.107 814.475L519.462 812.018C519.356 811.831 519.278 811.692 519.212 811.573C519.146 811.453 519.11 811.385 519.09 811.346C519.05 811.267 519.127 811.405 519.199 811.656C519.235 811.782 519.259 811.901 519.274 812.002C519.289 812.097 519.292 812.157 519.292 812.157C519.292 812.158 519.291 812.147 519.291 812.122C519.29 812.097 519.289 812.062 519.289 812.013C519.288 811.908 519.287 811.784 519.287 811.597H514.287H509.287C509.287 812.066 509.246 813.218 509.581 814.396C509.755 815.006 509.986 815.506 510.177 815.88C510.352 816.225 510.568 816.606 510.753 816.932L515.107 814.475ZM514.287 811.597V806.597H512.845V811.597V816.597H514.287V811.597ZM512.845 811.597L508.087 810.06L507.239 812.685L511.997 814.222L516.755 815.759L517.603 813.135L512.845 811.597ZM511.997 814.222L507.26 812.621C503.022 825.166 497.855 837.664 491.078 848.74L495.343 851.35L499.608 853.959C506.923 842.005 512.369 828.74 516.734 815.823L511.997 814.222ZM495.343 851.35L491.066 848.76L490.251 850.106L494.528 852.696L498.806 855.285L499.621 853.939L495.343 851.35ZM494.528 852.696L490.265 850.083C489.554 851.244 488.818 852.401 488.056 853.593L492.27 856.284L496.484 858.976C497.244 857.785 498.026 856.557 498.792 855.308L494.528 852.696ZM492.27 856.284L487.716 854.221C485.392 859.349 485.812 864.017 487.13 868.564L491.932 867.172L496.735 865.78C495.813 862.599 495.82 860.566 496.825 858.347L492.27 856.284ZM491.932 867.172L486.995 867.961C487.71 872.434 487.718 874.451 486.32 876.488L490.442 879.318L494.564 882.147C498.428 876.519 497.569 870.76 496.869 866.383L491.932 867.172ZM490.442 879.318L486.915 875.773C485.024 877.655 483.06 879.358 480.903 881.058L484 884.984L487.096 888.91C489.488 887.024 491.753 885.067 493.969 882.862L490.442 879.318ZM484 884.984L480.802 881.141L478.838 882.774L482.036 886.618L485.234 890.461L487.198 888.828L484 884.984ZM482.036 886.618L478.861 882.756C477.6 883.793 476.326 884.816 475.04 885.828L478.132 889.757L481.224 893.687C482.563 892.633 483.893 891.564 485.211 890.48L482.036 886.618ZM478.132 889.757L475.023 885.841C473.138 887.338 471.31 888.865 469.516 890.394L472.76 894.199L476.004 898.004C477.75 896.515 479.481 895.07 481.241 893.673L478.132 889.757ZM472.76 894.199L469.521 890.39C464.015 895.073 458.219 899.399 452.225 903.732L455.154 907.784L458.083 911.836C464.137 907.46 470.188 902.951 476 898.008L472.76 894.199ZM455.154 907.784L452.222 903.734L450.629 904.887L453.561 908.937L456.492 912.988L458.086 911.834L455.154 907.784ZM453.561 908.937L450.633 904.884C419.972 927.03 387.809 946.971 354.65 965.401L357.079 969.771L359.508 974.141C392.941 955.559 425.448 935.41 456.488 912.991L453.561 908.937ZM357.079 969.771L354.649 965.401L353.281 966.162L355.711 970.532L358.141 974.901L359.509 974.141L357.079 969.771ZM355.711 970.532L353.283 966.161C350.515 967.699 347.743 969.23 344.968 970.754L347.375 975.136L349.781 979.519C352.572 977.987 355.358 976.448 358.139 974.902L355.711 970.532ZM347.375 975.136L344.967 970.754C343.677 971.463 342.39 972.174 341.108 972.883L343.526 977.259L345.944 981.635C347.227 980.927 348.504 980.221 349.783 979.518L347.375 975.136ZM343.526 977.259L341.129 972.871C336.856 975.205 332.558 977.437 328.198 979.535L330.366 984.04L332.534 988.546C337.076 986.36 341.529 984.047 345.923 981.647L343.526 977.259ZM330.366 984.04L328.132 979.567L326.776 980.244L329.01 984.717L331.243 989.191L332.599 988.514L330.366 984.04ZM329.01 984.717L326.884 980.192C325.57 980.809 325.068 980.949 324.773 980.988C324.625 981.008 324.3 981.044 323.396 980.727L321.743 985.446L320.09 990.165C322.072 990.859 324.006 991.176 326.083 990.902C328.012 990.647 329.701 989.917 331.136 989.243L329.01 984.717ZM321.743 985.446L323.723 980.854C322.244 980.217 320.772 979.529 319.299 978.803L317.09 983.289L314.88 987.774C316.474 988.559 318.101 989.321 319.764 990.037L321.743 985.446ZM317.09 983.289L319.292 978.8L317.954 978.143L315.751 982.632L313.549 987.121L314.887 987.778L317.09 983.289ZM315.751 982.632L317.96 978.147C316.543 977.449 315.127 976.743 313.703 976.031L311.467 980.503L309.231 984.975C310.66 985.689 312.098 986.406 313.542 987.118L315.751 982.632ZM311.467 980.503L313.694 976.026L312.208 975.287L309.982 979.764L307.755 984.241L309.24 984.98L311.467 980.503ZM309.982 979.764L312.21 975.288C305.311 971.853 298.627 968.347 292.175 964.412L289.572 968.681L286.968 972.95C293.773 977.1 300.747 980.751 307.753 984.24L309.982 979.764ZM289.572 968.681L292.17 964.409C290.078 963.137 287.979 961.882 285.899 960.639L283.334 964.931L280.769 969.223C282.854 970.469 284.92 971.704 286.974 972.953L289.572 968.681ZM283.334 964.931L285.899 960.639C282.46 958.583 279.023 956.521 275.588 954.454L273.01 958.739L270.432 963.023C273.874 965.094 277.319 967.161 280.769 969.223L283.334 964.931ZM273.01 958.739L275.588 954.454C272.033 952.316 268.476 950.183 264.915 948.056L262.351 952.348L259.786 956.641C263.339 958.763 266.887 960.89 270.432 963.023L273.01 958.739ZM262.351 952.348L264.915 948.056C240.148 933.257 216.106 917.696 192.931 900.681L189.972 904.711L187.013 908.742C210.501 925.987 234.818 941.722 259.786 956.64L262.351 952.348ZM189.972 904.711L192.929 900.679C191.376 899.541 189.822 898.409 188.272 897.283L185.332 901.327L182.392 905.371C183.939 906.496 185.48 907.618 187.016 908.744L189.972 904.711ZM185.332 901.327L188.28 897.289C175.661 888.077 169.642 883.677 166.34 880.826C164.759 879.462 164.001 878.617 163.492 877.917C162.954 877.177 162.565 876.431 161.785 874.889L157.323 877.147L152.862 879.405C153.581 880.824 154.315 882.299 155.402 883.795C156.518 885.331 157.885 886.738 159.805 888.396C163.505 891.59 169.992 896.319 182.384 905.366L185.332 901.327ZM157.323 877.147L162.318 876.912C162.252 875.517 162.23 874.102 162.233 872.661L157.233 872.649L152.233 872.638C152.23 874.195 152.254 875.78 152.329 877.381L157.323 877.147ZM157.233 872.649L162.233 872.638L162.228 870.197L157.228 870.208L152.228 870.22L152.233 872.661L157.233 872.649ZM157.228 870.208L162.223 870.414C162.293 868.715 162.52 867.205 162.922 865.421L158.044 864.322L153.167 863.223C152.664 865.456 152.332 867.575 152.232 870.002L157.228 870.208ZM158.044 864.322L163.019 864.825C163.342 861.633 163.077 858.954 162.179 856.335C161.34 853.886 160.004 851.696 158.688 849.575L154.439 852.21L150.189 854.844C151.571 857.073 152.3 858.352 152.72 859.577C153.081 860.633 153.271 861.835 153.07 863.818L158.044 864.322ZM154.439 852.21L158.749 849.676C154.816 842.985 151.595 835.963 148.384 828.611L143.802 830.612L139.22 832.613C142.458 840.028 145.875 847.509 150.128 854.743L154.439 852.21ZM143.802 830.612L148.384 828.611L147.772 827.209L143.19 829.211L138.608 831.212L139.22 832.614L143.802 830.612ZM143.19 829.211L147.774 827.213C145.448 821.876 143.188 816.547 141.058 811.178L136.41 813.022L131.763 814.867C133.949 820.375 136.256 825.814 138.606 831.208L143.19 829.211ZM136.41 813.022L132.514 809.889C128.342 815.078 125.819 821.311 124.084 827.389C122.355 833.444 121.302 839.762 120.32 845.075L125.236 845.985L130.153 846.894C131.184 841.317 132.137 835.609 133.7 830.134C135.257 824.68 137.314 819.877 140.307 816.156L136.41 813.022ZM125.236 845.985L120.321 845.067C119.769 848.023 119.164 850.975 118.547 853.979L123.445 854.984L128.343 855.989C128.957 853 129.58 849.96 130.151 846.902L125.236 845.985ZM123.445 854.984L118.547 853.98L118.532 854.056L123.43 855.06L128.328 856.063L128.344 855.988L123.445 854.984ZM123.43 855.06L123.525 850.06C121.86 850.029 121.131 849.79 120.642 849.544C120.045 849.243 119.321 848.69 117.902 847.257L114.348 850.774L110.794 854.291C112.342 855.855 114.016 857.404 116.147 858.476C118.385 859.603 120.715 860.009 123.334 860.059L123.43 855.06ZM114.348 850.774L117.987 847.345L116.612 845.886L112.973 849.315L109.335 852.745L110.71 854.204L114.348 850.774ZM112.973 849.315L116.553 845.825L115.106 844.34L111.526 847.831L107.946 851.321L109.393 852.806L112.973 849.315ZM111.526 847.831L115.117 844.351C112.468 841.618 109.915 838.902 107.515 836.094L103.714 839.343L99.9131 842.592C102.511 845.631 105.229 848.517 107.936 851.31L111.526 847.831ZM103.714 839.343L107.495 836.071C106.022 834.37 104.501 832.74 103.051 831.186L99.395 834.597L95.739 838.008C97.21 839.584 98.6037 841.079 99.9334 842.615L103.714 839.343ZM99.395 834.597L103.051 831.186L102.657 830.764L99.0012 834.175L95.345 837.585L95.7388 838.007L99.395 834.597ZM99.0012 834.175L102.677 830.785C99.2324 827.049 95.9774 823.154 92.6892 819.124L88.8151 822.285L84.941 825.446C88.2656 829.52 91.6723 833.602 95.3252 837.564L99.0012 834.175ZM88.8151 822.285L92.6615 819.09C91.9316 818.211 91.2011 817.334 90.4701 816.456L86.6291 819.657L82.7882 822.859C83.5159 823.732 84.2428 824.605 84.9687 825.479L88.8151 822.285ZM86.6291 819.657L90.4734 816.46C81.9213 806.177 73.9336 795.5 66.2277 784.503L62.1329 787.373L58.0382 790.242C65.8603 801.405 74.0159 812.311 82.7849 822.855L86.6291 819.657ZM62.1329 787.373L66.2193 784.491L65.3373 783.24L61.2509 786.122L57.1644 789.003L58.0465 790.254L62.1329 787.373ZM61.2509 786.122L65.3429 783.248C34.7305 739.65 10.1042 687.07 10.0418 634.091L5.04177 634.097L0.0417748 634.103C0.107681 690.01 25.9967 744.614 57.1588 788.995L61.2509 786.122ZM5.04177 634.097L10.0417 634.081L10.0345 631.864L5.03449 631.88L0.0345139 631.896L0.0417983 634.114L5.04177 634.097ZM5.03449 631.88L10.0345 631.868C10.0309 630.332 10.0292 628.797 10.0293 627.261L5.02927 627.26L0.0292711 627.26C0.0291542 628.804 0.0308644 630.348 0.0345007 631.892L5.03449 631.88ZM5.02927 627.26L10.0293 627.257C10.0277 624.931 10.0145 622.609 10.0008 620.299L5.00093 620.329L0.00101318 620.359C0.0146993 622.67 0.0277152 624.968 0.0292723 627.264L5.02927 627.26ZM5.00093 620.329L10.0009 620.315C9.96725 608.337 10.8689 596.797 13.0944 585.114L8.18267 584.178L3.27099 583.243C0.908387 595.646 -0.0342062 607.831 0.000945273 620.343L5.00093 620.329ZM8.18267 584.178L13.0949 585.111L13.56 582.662L8.64782 581.729L3.73562 580.796L3.27048 583.245L8.18267 584.178ZM8.64782 581.729L13.5526 582.7C15.1514 574.626 17.3827 566.743 20.0062 558.806L15.2589 557.237L10.5115 555.668C7.80096 563.867 5.44464 572.164 3.74305 580.758L8.64782 581.729ZM15.2589 557.237L20.0101 558.795L20.5893 557.028L15.8381 555.47L11.0868 553.913L10.5076 555.68L15.2589 557.237ZM15.8381 555.47L20.5805 557.054C25.2653 543.029 31.8687 529.457 40.2795 517.338L36.1719 514.487L32.0643 511.637C23.0668 524.601 16.0549 539.039 11.0957 553.886L15.8381 555.47ZM36.1719 514.487L40.29 517.323L41.7408 515.216L37.6226 512.381L33.5045 509.545L32.0538 511.652L36.1719 514.487ZM37.6226 512.381L41.6921 515.286C58.1274 492.262 79.7912 475.814 107.7 470.964L106.844 466.038L105.987 461.112C74.8877 466.516 51.1207 484.866 33.5531 509.476L37.6226 512.381ZM106.844 466.038L107.644 470.973C115.119 469.761 122.446 469.358 130.17 469.39L130.19 464.39L130.211 459.39C122.108 459.357 114.207 459.778 106.043 461.102L106.844 466.038ZM130.19 464.39L130.19 469.39L131.921 469.391L131.922 464.391L131.923 459.391L130.191 459.39L130.19 464.39ZM131.922 464.391L131.915 469.391C140.141 469.402 148.263 469.837 156.465 470.657L156.963 465.682L157.46 460.706C148.952 459.856 140.502 459.402 131.929 459.391L131.922 464.391ZM156.963 465.682L156.144 470.614C163.646 471.859 168.024 472.606 172.349 472.516C176.694 472.426 180.895 471.494 188.04 469.945L186.98 465.058L185.921 460.172C178.421 461.798 175.3 462.453 172.141 462.518C168.961 462.584 165.653 462.055 157.781 460.749L156.963 465.682ZM186.98 465.058L190.171 468.908C191.748 467.601 191.877 467.481 193.354 465.967L189.775 462.475L186.196 458.984C185.481 459.716 185.245 459.956 185.012 460.171C184.784 460.382 184.545 460.583 183.789 461.209L186.98 465.058ZM189.775 462.475L193.129 466.183C194.324 465.102 195.522 464.022 196.722 462.944L193.38 459.225L190.038 455.506C188.831 456.59 187.625 457.678 186.42 458.768L189.775 462.475ZM193.38 459.225L196.766 462.904L198.777 461.053L195.392 457.374L192.006 453.695L189.995 455.545L193.38 459.225ZM195.392 457.374L198.725 461.101C202.63 457.609 206.906 454.589 211.484 451.191L208.504 447.176L205.524 443.161C201.214 446.361 196.404 449.761 192.059 453.647L195.392 457.374ZM208.504 447.176L211.489 451.188C214.447 448.987 217.374 446.753 220.272 444.541L217.239 440.566L214.206 436.592C211.299 438.81 208.421 441.006 205.52 443.164L208.504 447.176ZM217.239 440.566L220.272 444.542L221.091 443.917L218.058 439.942L215.025 435.967L214.206 436.591L217.239 440.566ZM218.058 439.942L221.09 443.918C222.004 443.221 222.918 442.525 223.834 441.828L220.808 437.848L217.782 433.868C216.863 434.566 215.945 435.265 215.026 435.966L218.058 439.942ZM220.808 437.848L223.835 441.828C231.453 436.032 238.97 430.117 246.369 424.017L243.188 420.159L240.007 416.301C232.725 422.306 225.313 428.139 217.781 433.869L220.808 437.848ZM243.188 420.159L246.363 424.021C247.637 422.974 248.922 421.932 250.218 420.886L247.077 416.995L243.936 413.105C242.631 414.159 241.32 415.221 240.013 416.296L243.188 420.159ZM247.077 416.995L250.23 420.876C267.123 407.147 280.063 390.681 286.171 369.074L281.359 367.714L276.548 366.354C271.141 385.483 259.673 400.316 243.924 413.115L247.077 416.995ZM281.359 367.714L286.12 369.242L286.653 367.583L281.892 366.055L277.131 364.527L276.599 366.186L281.359 367.714ZM281.892 366.055L286.702 367.421C287.927 363.105 287.968 358.826 288.026 355.232L283.026 355.152L278.027 355.072C277.966 358.874 277.891 361.838 277.082 364.689L281.892 366.055ZM283.026 355.152L288.026 355.231L288.026 355.191L283.027 355.112L278.028 355.032L278.027 355.073L283.026 355.152ZM283.027 355.112L288.025 355.236L288.064 353.669L283.066 353.545L278.067 353.421L278.029 354.987L283.027 355.112ZM283.066 353.545L288.066 353.537C288.06 349.804 287.741 345.917 284.59 341.851L280.638 344.914L276.686 347.977C277.8 349.414 278.061 350.573 278.066 353.553L283.066 353.545ZM280.638 344.914L282.991 340.502C277.795 337.732 272.317 337.381 267.571 337.42L267.613 342.42L267.654 347.42C271.974 347.384 275.367 347.77 278.286 349.326L280.638 344.914ZM267.613 342.42L267.574 337.42L265.78 337.434L265.819 342.434L265.858 347.434L267.651 347.42L267.613 342.42ZM265.819 342.434L265.674 337.436C254.589 337.758 244.453 342.107 235.519 347.757C226.594 353.402 218.536 360.565 211.639 366.875L215.015 370.564L218.39 374.253C225.28 367.949 232.764 361.332 240.865 356.209C248.957 351.091 257.33 347.682 265.964 347.432L265.819 342.434ZM215.015 370.564L211.64 366.874L210.31 368.09L213.685 371.78L217.059 375.47L218.389 374.254L215.015 370.564ZM213.685 371.78L210.345 368.059C204.77 373.063 201.458 376.005 198.881 379.454C196.29 382.922 194.5 386.823 191.462 393.345L195.994 395.456L200.527 397.567C203.73 390.69 205.06 387.892 206.892 385.44C208.737 382.97 211.15 380.773 217.024 375.501L213.685 371.78ZM195.994 395.456L191.032 396.071C191.236 397.711 191.558 399.441 192.505 401.131C193.422 402.768 194.701 403.955 195.861 404.967L199.149 401.201L202.438 397.435C201.358 396.492 201.24 396.262 201.23 396.244C201.229 396.242 201.224 396.234 201.215 396.211C201.205 396.186 201.185 396.131 201.159 396.032C201.103 395.818 201.034 395.465 200.956 394.841L195.994 395.456ZM199.149 401.201L197.162 405.789C199.347 406.736 201.5 407.492 203.647 408.177L205.166 403.414L206.686 398.65C204.722 398.024 202.909 397.381 201.137 396.613L199.149 401.201ZM205.166 403.414L203.588 408.158C205.01 408.631 206.274 409.179 207.629 409.896L209.967 405.476L212.304 401.056C210.499 400.101 208.727 399.329 206.745 398.669L205.166 403.414ZM209.967 405.476L205.332 403.6C204.75 405.036 203.135 406.597 200.051 408.262C196.944 409.939 193.762 411.039 190.413 412.491L192.401 417.078L194.388 421.666C196.87 420.591 201.212 418.999 204.802 417.061C208.414 415.111 212.666 412.133 214.601 407.352L209.967 405.476ZM192.401 417.078L190.464 412.469C182.967 415.618 175.685 416.882 167.235 417.269L167.464 422.264L167.693 427.259C176.948 426.835 185.46 425.417 194.337 421.688L192.401 417.078ZM167.464 422.264L167.221 417.27L165.309 417.363L165.553 422.357L165.797 427.351L167.708 427.258L167.464 422.264ZM165.553 422.357L165.31 417.363C163.775 417.438 162.238 417.51 160.697 417.581L160.929 422.576L161.161 427.57C162.703 427.499 164.249 427.427 165.796 427.351L165.553 422.357ZM160.929 422.576L155.939 422.256C155.826 424.021 155.808 425.863 156.275 427.771C156.759 429.749 157.667 431.424 158.859 433.074L162.912 430.146L166.965 427.218C166.259 426.241 166.073 425.74 165.988 425.394C165.886 424.979 165.826 424.349 165.919 422.896L160.929 422.576ZM162.912 430.146L158.84 433.048L160.026 434.712L164.098 431.81L168.17 428.909L166.984 427.244L162.912 430.146ZM164.098 431.81L160.111 434.827C160.643 435.531 161.123 436.176 161.726 436.809C162.298 437.408 162.955 437.968 163.746 438.651L167.014 434.866L170.281 431.082C169.332 430.262 169.119 430.071 168.962 429.906C168.836 429.774 168.728 429.643 168.085 428.794L164.098 431.81ZM167.014 434.866L163.304 438.219L164.431 439.466L168.14 436.113L171.85 432.761L170.723 431.514L167.014 434.866ZM168.14 436.113L163.161 435.655C163.115 436.164 163.086 436.473 163.059 436.712C163.034 436.934 163.02 437.01 163.014 437.036C163 437.107 162.985 437.179 162.682 438.077L167.419 439.676L172.157 441.274C172.395 440.57 172.65 439.84 172.816 439.02C172.972 438.246 173.04 437.436 173.119 436.571L168.14 436.113ZM167.419 439.676L166.071 434.861C153.625 438.345 138.03 434.152 125.813 427.73L123.486 432.155L121.16 436.581C134.293 443.486 152.711 448.985 168.767 444.49L167.419 439.676ZM123.486 432.155L126.049 427.862C113.528 420.39 103.572 409.698 99.2162 396.357L94.4631 397.908L89.7099 399.46C94.9947 415.648 106.885 428.07 120.924 436.449L123.486 432.155ZM94.4631 397.908L99.3147 396.699C98.39 392.989 98.4361 390.332 99.7371 387.841L95.3053 385.526L90.8736 383.211C87.9745 388.761 88.3949 394.236 89.6115 399.118L94.4631 397.908ZM95.3053 385.526L94.6103 390.478C96.5849 390.755 97.8694 391.33 100.09 392.687L102.697 388.421L105.304 384.154C102.516 382.45 99.8858 381.12 96.0004 380.575L95.3053 385.526ZM102.697 388.421L100.263 392.788C103.151 394.398 105.902 395.352 108.889 395.594C111.797 395.829 114.58 395.356 117.417 394.655L116.218 389.801L115.019 384.947C112.579 385.55 111.019 385.734 109.695 385.627C108.45 385.526 107.079 385.139 105.131 384.053L102.697 388.421ZM116.218 389.801L121.21 390.098L121.931 377.986L116.94 377.689L111.948 377.391L111.227 389.504L116.218 389.801ZM116.94 377.689L116.327 382.651C119.712 383.069 120.893 383.226 121.595 383.405C121.877 383.477 121.888 383.455 123.074 384.181L125.683 379.915L128.292 375.65C127.13 374.939 125.966 374.199 124.062 373.714C122.578 373.336 120.561 373.098 117.552 372.726L116.94 377.689ZM125.683 379.915L123.326 384.324C124.314 384.853 125.483 385.474 126.865 385.829C128.308 386.2 129.667 386.21 131.011 386.158L130.821 381.162L130.632 376.166C129.537 376.207 129.356 376.144 129.355 376.144C129.293 376.128 129.113 376.079 128.041 375.506L125.683 379.915ZM130.821 381.162L132.321 385.932C134.27 385.319 136.165 384.597 138.165 383.458L135.689 379.114L133.213 374.77C132.041 375.438 130.867 375.906 129.322 376.392L130.821 381.162ZM135.689 379.114L140.684 379.333C140.834 375.936 140.6 372.905 139.849 369.524L134.968 370.608L130.087 371.693C130.636 374.163 130.808 376.314 130.694 378.894L135.689 379.114ZM134.968 370.608L139.851 369.533C139.266 366.875 139.132 364.456 139.243 361.489L134.247 361.301L129.25 361.114C129.118 364.657 129.267 367.967 130.085 371.683L134.968 370.608ZM134.247 361.301L134.417 366.298C139.547 366.124 144.502 366.791 150.056 367.665L150.833 362.726L151.611 357.787C146.02 356.907 140.242 356.094 134.077 356.304L134.247 361.301ZM150.833 362.726L155.793 363.355C156.47 358.016 156.763 352.756 156.956 347.549L151.96 347.363L146.963 347.177C146.773 352.28 146.494 357.196 145.873 362.098L150.833 362.726ZM151.96 347.363L156.956 347.561L157.05 345.177L152.054 344.979L147.058 344.782L146.964 347.165L151.96 347.363ZM152.054 344.979L157.05 345.176C157.126 343.251 157.2 341.326 157.272 339.4L152.275 339.214L147.279 339.028C147.207 340.946 147.134 342.864 147.058 344.782L152.054 344.979ZM152.275 339.214L151.569 344.164C153.878 344.493 155.273 344.811 157.033 345.601L159.081 341.04L161.13 336.479C158.174 335.151 155.752 334.66 152.982 334.264L152.275 339.214ZM159.081 341.04L157.231 345.685C162.897 347.942 169.355 347.2 173.362 347.061L173.188 342.064L173.015 337.067C167.661 337.253 164.102 337.658 160.931 336.395L159.081 341.04ZM173.188 342.064L177.873 343.813C180.166 337.671 180.638 332.242 180.485 326.174L175.487 326.3L170.489 326.426C170.621 331.704 170.206 335.757 168.504 340.315L173.188 342.064ZM175.487 326.3L180.487 326.235L180.457 323.964L175.457 324.029L170.458 324.094L170.487 326.365L175.487 326.3ZM175.457 324.029L180.457 323.96C180.432 322.115 180.396 320.272 180.35 318.428L175.352 318.552L170.353 318.675C170.398 320.483 170.433 322.29 170.458 324.098L175.457 324.029ZM175.352 318.552L177.727 322.952C197.767 312.135 220.386 303.484 242.692 303.468L242.688 298.468L242.685 293.468C217.966 293.486 193.618 303.011 172.977 314.152L175.352 318.552ZM242.688 298.468L242.756 303.468L244.711 303.441L244.643 298.442L244.576 293.442L242.621 293.469L242.688 298.468ZM244.643 298.442L244.654 303.442C248.461 303.434 251.806 303.905 255.607 304.872L256.841 300.027L258.074 295.181C253.577 294.037 249.391 293.432 244.632 293.442L244.643 298.442ZM256.841 300.027L260.912 297.124C256.652 291.15 251.267 288.661 244.906 287.3L243.86 292.189L242.814 297.079C247.608 298.104 250.407 299.616 252.77 302.93L256.841 300.027ZM243.86 292.189L244.248 287.204C233.04 286.333 222.352 287.437 211.607 290.197L212.851 295.039L214.095 299.882C223.873 297.37 233.458 296.395 243.472 297.174L243.86 292.189ZM212.851 295.039L211.63 290.191L209.884 290.63L211.104 295.479L212.325 300.328L214.072 299.888L212.851 295.039ZM211.104 295.479L209.856 290.637C199.088 293.413 188.948 297.469 179.082 301.874L181.121 306.439L183.159 311.005C192.812 306.695 202.37 302.894 212.352 300.321L211.104 295.479ZM181.121 306.439L179.085 301.873L177.474 302.591L179.51 307.158L181.546 311.724L183.157 311.006L181.121 306.439ZM179.51 307.158L177.427 302.612C165.947 307.872 155.568 315.492 145.819 322.026L148.603 326.18L151.387 330.333C161.651 323.453 171.065 316.527 181.593 311.703L179.51 307.158ZM148.603 326.18L145.82 322.026C142.41 324.311 138.999 326.588 135.581 328.854L138.345 333.021L141.108 337.188C144.542 334.911 147.967 332.625 151.387 330.333L148.603 326.18ZM138.345 333.021L135.581 328.854C134.773 329.39 133.966 329.927 133.159 330.464L135.929 334.626L138.7 338.788C139.502 338.254 140.305 337.721 141.108 337.188L138.345 333.021ZM135.929 334.626L133.162 330.462C127.007 334.553 120.735 338.344 114.24 341.83L116.604 346.236L118.969 350.641C125.764 346.994 132.305 343.039 138.697 338.79L135.929 334.626ZM116.604 346.236L114.179 341.864L112.322 342.894L114.748 347.266L117.174 351.638L119.03 350.608L116.604 346.236ZM114.748 347.266L112.386 342.859L110.759 343.731L113.121 348.138L115.483 352.545L117.11 351.673L114.748 347.266ZM113.121 348.138L109.871 344.338C105.873 347.757 106.169 352.56 106.04 354.114L111.022 354.529L116.005 354.944C116.036 354.574 116.059 354.22 116.079 353.915C116.099 353.596 116.116 353.34 116.135 353.094C116.174 352.597 116.215 352.323 116.255 352.144C116.29 351.992 116.311 351.973 116.292 352.007C116.268 352.049 116.266 352.027 116.37 351.938L113.121 348.138ZM111.022 354.529L106.027 354.312L105.947 356.155L110.942 356.372L115.938 356.589L116.018 354.746L111.022 354.529ZM110.942 356.372L105.947 356.145L105.856 358.156L110.851 358.383L115.846 358.611L115.937 356.6L110.942 356.372ZM110.851 358.383L105.855 358.176L105.769 360.248L110.765 360.455L115.76 360.662L115.846 358.59L110.851 358.383ZM110.765 360.455L105.77 360.232L105.675 362.346L110.67 362.569L115.665 362.792L115.76 360.678L110.765 360.455ZM110.67 362.569L105.675 362.347C105.599 364.067 105.525 365.787 105.454 367.506L110.449 367.714L115.445 367.921C115.516 366.211 115.589 364.501 115.665 362.791L110.67 362.569ZM110.449 367.714L111.037 362.748C109.856 362.609 109.419 362.431 109.178 362.304C108.902 362.159 108.479 361.866 107.573 360.918L103.959 364.374L100.345 367.83C101.529 369.067 102.831 370.264 104.519 371.152C106.241 372.059 108.004 372.459 109.862 372.679L110.449 367.714ZM103.959 364.374L107.528 360.872L106.015 359.33L102.446 362.832L98.8772 366.334L100.39 367.876L103.959 364.374ZM102.446 362.832L106.17 359.495C105.201 358.414 104.377 357.3 103.439 355.933L99.3167 358.763L95.1948 361.593C96.2399 363.115 97.3409 364.627 98.7228 366.169L102.446 362.832ZM99.3167 358.763L103.111 355.507C102.747 355.082 102.336 354.601 101.958 354.208C101.571 353.807 100.957 353.216 100.1 352.744C98.2909 351.747 96.3372 351.896 95.9011 351.898L95.9335 356.898L95.966 361.898C96.2028 361.897 96.339 361.896 96.4477 361.898C96.5534 361.899 96.546 361.902 96.4815 361.896C96.4073 361.888 96.2321 361.866 96.0003 361.801C95.7556 361.731 95.5077 361.631 95.2724 361.502C95.0467 361.377 94.8897 361.257 94.8068 361.188C94.731 361.125 94.7089 361.097 94.7581 361.149C94.8071 361.199 94.8879 361.287 95.0238 361.442C95.1594 361.597 95.316 361.779 95.5226 362.02L99.3167 358.763ZM95.9335 356.898L95.4314 351.924C93.477 352.121 91.671 352.452 89.8652 352.864L90.9785 357.739L92.0918 362.613C93.6098 362.267 94.9951 362.018 96.4356 361.873L95.9335 356.898ZM90.9785 357.739L90.0054 352.834C88.8054 353.073 87.6067 353.31 86.4084 353.545L87.3728 358.451L88.3372 363.357C89.5432 363.12 90.7482 362.882 91.9516 362.643L90.9785 357.739ZM87.3728 358.451L82.3834 358.776C82.4864 360.357 82.5925 361.935 82.6999 363.511L87.6883 363.172L92.6768 362.832C92.5698 361.261 92.4643 359.693 92.3622 358.126L87.3728 358.451ZM87.6883 363.172L82.6994 363.505L82.8769 366.16L87.8658 365.827L92.8546 365.493L92.6772 362.838L87.6883 363.172ZM87.8658 365.827L82.8849 366.264C83.1046 368.766 83.448 371.179 83.8988 373.612L88.8151 372.701L93.7314 371.79C93.3318 369.634 93.0352 367.538 92.8466 365.39L87.8658 365.827ZM88.8151 372.701L88.9119 367.702C85.2113 367.63 82.8793 366.343 78.4731 363.658L75.8712 367.928L73.2694 372.198C77.6235 374.851 82.0384 377.571 88.7182 377.7L88.8151 372.701ZM75.8712 367.928L78.2563 363.534C77.7867 363.279 77.2185 362.967 76.7011 362.73C76.1414 362.473 75.3321 362.153 74.328 362.04C72.4377 361.828 70.6965 362.543 70.1334 362.736L71.7556 367.466L73.3779 372.196C73.5049 372.152 73.613 372.115 73.7129 372.081C73.8122 372.047 73.8933 372.02 73.9624 371.998C74.0315 371.976 74.0805 371.96 74.1151 371.95C74.1497 371.94 74.1619 371.937 74.1572 371.938C74.1503 371.94 74.0434 371.967 73.8705 371.984C73.782 371.992 73.679 371.998 73.5641 371.998C73.4488 371.998 73.3309 371.991 73.2125 371.978C73.0943 371.965 72.9857 371.946 72.8885 371.924C72.7921 371.903 72.7126 371.881 72.6524 371.862C72.593 371.843 72.5522 371.827 72.5333 371.82C72.5148 371.812 72.5133 371.811 72.533 371.82C72.5527 371.829 72.587 371.845 72.6402 371.872C72.6934 371.898 72.759 371.932 72.8415 371.976C72.924 372.019 73.0171 372.069 73.1259 372.127C73.2351 372.186 73.3524 372.25 73.4861 372.322L75.8712 367.928ZM71.7556 367.466L69.2858 363.119L67.5956 364.079L70.0655 368.426L72.5353 372.774L74.2255 371.813L71.7556 367.466ZM70.0655 368.426L67.8407 363.948L66.3843 364.672L68.6091 369.15L70.8339 373.628L72.2903 372.904L70.0655 368.426ZM68.6091 369.15L65.797 365.016C63.8361 366.349 62.32 367.637 60.8045 370.008L65.0175 372.701L69.2305 375.394C69.8001 374.503 70.1905 374.121 71.4212 373.284L68.6091 369.15ZM65.0175 372.701L60.0543 372.096C59.6787 375.174 59.7467 377.973 59.9202 380.748L64.9104 380.436L69.9007 380.124C69.743 377.602 69.713 375.501 69.9807 373.307L65.0175 372.701ZM64.9104 380.436L59.9161 380.674C59.9446 381.269 59.9588 381.583 59.9614 381.819C59.9635 382.016 59.9545 382.025 59.9624 381.969C59.9703 381.913 59.976 381.926 59.9188 382.118C59.851 382.347 59.75 382.648 59.5587 383.215L64.2963 384.814L69.034 386.412C69.3362 385.516 69.709 384.473 69.8655 383.358C70.0224 382.239 69.9496 381.136 69.9047 380.197L64.9104 380.436ZM64.2963 384.814L63.8143 379.837C57.6933 380.43 51.9566 377.608 46.0629 373.074L43.0143 377.037L39.9657 381C46.4772 386.009 54.8033 390.757 64.7784 389.79L64.2963 384.814ZM43.0143 377.037L46.2036 373.187C35.8542 364.615 27.8061 352.172 26.588 339.428L21.6107 339.904L16.6334 340.379C18.1708 356.465 28.0585 371.143 39.8249 380.888L43.0143 377.037ZM21.6107 339.904L26.5975 339.54C25.7402 327.777 27.9159 314.702 33.3679 304.525L28.9605 302.164L24.5532 299.803C18.0457 311.95 15.656 326.985 16.624 340.267L21.6107 339.904ZM28.9605 302.164L33.4045 304.456L34.3904 302.544L29.9464 300.252L25.5025 297.961L24.5165 299.873L28.9605 302.164ZM29.9464 300.252L34.3156 302.683C36.4659 298.819 38.6096 295.94 41.3887 294.475L39.0565 290.052L36.7242 285.629C31.1904 288.547 27.8617 293.716 25.5773 297.821L29.9464 300.252ZM39.0565 290.052L38.4771 295.018C39.5514 295.144 39.8126 295.178 40.0231 295.219C40.1975 295.254 40.3584 295.297 41.242 295.558L42.6622 290.764L44.0823 285.97C43.3405 285.751 42.6888 285.553 41.9617 285.409C41.2707 285.273 40.5419 285.191 39.6358 285.086L39.0565 290.052ZM42.6622 290.764L37.9245 292.363L39.3668 296.638L44.1044 295.039L48.8421 293.441L47.3998 289.166L42.6622 290.764ZM44.1044 295.039L46.4221 299.47C50.7572 297.202 54.2269 294.605 57.7014 291.519L54.3807 287.781L51.06 284.043C48.0167 286.746 45.2145 288.816 41.7867 290.609L44.1044 295.039ZM54.3807 287.781L57.6824 291.536C58.5525 290.77 59.4241 290.007 60.2968 289.244L57.0061 285.479L53.7153 281.715C52.8356 282.484 51.9568 283.254 51.0789 284.026L54.3807 287.781ZM57.0061 285.479L60.2979 289.243L61.7067 288.01L58.4149 284.247L55.1231 280.483L53.7143 281.716L57.0061 285.479ZM58.4149 284.247L61.651 288.058C63.2809 286.675 64.9654 285.344 66.7369 283.945L63.6383 280.021L60.5398 276.097C58.7914 277.477 56.9667 278.917 55.1788 280.435L58.4149 284.247ZM63.6383 280.021L66.7368 283.945L66.8596 283.848L63.7611 279.924L60.6626 276L60.5398 276.097L63.6383 280.021ZM63.7611 279.924L66.8953 283.82C71.1538 280.394 75.0267 276.722 78.7599 273.001L75.2303 269.46L71.7008 265.918C68.0737 269.533 64.4863 272.923 60.627 276.028L63.7611 279.924ZM75.2303 269.46L78.7575 273.004C79.7961 271.97 80.8452 270.941 81.908 269.9L78.4093 266.328L74.9105 262.756C73.8478 263.797 72.7732 264.851 71.7032 265.916L75.2303 269.46ZM78.4093 266.328L81.9211 269.887C86.0156 265.847 89.8506 261.649 93.474 257.134L89.5743 254.004L85.6745 250.875C82.3168 255.06 78.7456 258.972 74.8974 262.769L78.4093 266.328ZM89.5743 254.004L93.4425 257.172C93.7041 256.853 94.1087 256.499 94.9673 255.841C95.6837 255.292 96.9217 254.385 97.9824 253.275L94.3671 249.821L90.7517 246.367C90.3524 246.785 89.8633 247.153 88.8828 247.905C88.0447 248.548 86.7828 249.521 85.706 250.836L89.5743 254.004ZM94.3671 249.821L98.0691 253.182C98.4083 252.808 98.6804 252.504 98.8918 252.259C99.0645 252.06 99.3278 251.751 99.5536 251.424C99.6285 251.315 99.9552 250.849 100.192 250.195C100.309 249.871 100.552 249.113 100.484 248.125C100.447 247.591 100.316 246.949 99.9956 246.285C99.6678 245.607 99.2014 245.031 98.651 244.581C97.6097 243.731 96.5337 243.539 96.0622 243.483C95.5477 243.422 95.1389 243.456 94.9753 243.471C94.7859 243.489 94.636 243.515 94.597 243.521C94.5828 243.524 94.571 243.526 94.5635 243.527C94.5568 243.528 94.5498 243.529 94.5493 243.529C94.5434 243.53 94.5567 243.528 94.5741 243.525C94.5865 243.523 94.9721 243.452 95.4696 243.466C95.9243 243.479 97.1773 243.575 98.3851 244.535C99.7782 245.643 100.191 247.139 100.242 248.135C100.287 248.991 100.09 249.627 100.02 249.84C99.8696 250.299 99.6993 250.544 99.7911 250.392C99.8402 250.311 99.9631 250.119 100.21 249.771L96.1309 246.879L92.0517 243.988C91.7315 244.44 91.4565 244.849 91.2333 245.218C91.1205 245.405 91.0017 245.613 90.8897 245.834C90.7845 246.043 90.6415 246.349 90.5198 246.719C90.4173 247.031 90.2086 247.741 90.2557 248.652C90.2812 249.144 90.3861 249.788 90.696 250.477C91.0189 251.195 91.5136 251.847 92.1608 252.362C93.3959 253.344 94.6856 253.448 95.1811 253.462C95.7193 253.478 96.1497 253.4 96.2053 253.391C96.2335 253.387 96.2575 253.382 96.2622 253.382C96.2735 253.38 96.2603 253.382 96.2456 253.384C96.2268 253.388 96.096 253.41 95.9241 253.426C95.7779 253.44 95.3848 253.473 94.8836 253.414C94.4254 253.359 93.3602 253.171 92.3267 252.327C91.7802 251.881 91.3168 251.309 90.9913 250.635C90.6728 249.976 90.5437 249.34 90.5073 248.812C90.4401 247.836 90.6794 247.095 90.7894 246.791C90.9182 246.435 91.0601 246.174 91.1331 246.047C91.2147 245.904 91.2855 245.798 91.3245 245.742C91.4382 245.577 91.496 245.524 91.326 245.72C91.1946 245.872 90.9868 246.106 90.665 246.46L94.3671 249.821ZM96.1309 246.879L100.187 249.804C101.551 247.911 101.129 245.96 100.905 245.251C100.662 244.481 100.29 243.929 100.12 243.687C99.7424 243.155 99.3084 242.721 99.0469 242.47C98.4617 241.908 97.7373 241.317 97.1316 240.842C96.4965 240.343 95.8619 239.87 95.3944 239.528C95.1585 239.355 94.9602 239.212 94.8194 239.111C94.7489 239.06 94.6926 239.02 94.6529 238.992C94.633 238.978 94.6173 238.967 94.606 238.959C94.6003 238.955 94.5958 238.951 94.5924 238.949C94.5907 238.948 94.5893 238.947 94.5881 238.946C94.5876 238.946 94.5871 238.945 94.5867 238.945C94.5865 238.945 94.5862 238.945 94.5861 238.945C94.5859 238.944 94.5857 238.944 91.6996 243.027C88.8136 247.11 88.8135 247.11 88.8133 247.11C88.8133 247.11 88.8131 247.11 88.8131 247.11C88.8129 247.11 88.8129 247.11 88.8129 247.11C88.8129 247.11 88.8132 247.11 88.8138 247.11C88.815 247.111 88.8173 247.113 88.8207 247.115C88.8275 247.12 88.8385 247.128 88.8535 247.139C88.8836 247.16 88.9295 247.193 88.9889 247.235C89.1079 247.321 89.28 247.445 89.4864 247.596C89.9034 247.902 90.441 248.303 90.9568 248.707C91.214 248.909 91.4537 249.103 91.6628 249.279C91.8779 249.459 92.0284 249.594 92.1202 249.683C92.1648 249.725 92.1744 249.737 92.1593 249.72C92.1523 249.713 92.0697 249.623 91.9586 249.466C91.9006 249.384 91.8123 249.253 91.7162 249.077C91.6243 248.91 91.4864 248.632 91.3701 248.264C91.2575 247.908 91.1166 247.315 91.155 246.569C91.1748 246.185 91.243 245.75 91.394 245.292C91.5464 244.828 91.7722 244.375 92.0752 243.955L96.1309 246.879ZM91.6996 243.027L96.4519 241.473L95.973 240.009L91.2208 241.563L86.4686 243.118L86.9474 244.582L91.6996 243.027ZM91.2208 241.563L95.9476 239.933C94.6498 236.17 93.1636 232.515 90.8348 228.825L86.6066 231.494L82.3784 234.163C84.1234 236.927 85.3139 239.772 86.4939 243.193L91.2208 241.563ZM86.6066 231.494L90.8453 228.842C89.0748 226.012 88.0533 223.651 87.5228 221.302C86.9923 218.954 86.893 216.353 87.2906 212.974L82.3248 212.39L77.3591 211.806C76.8664 215.993 76.9264 219.777 77.7686 223.506C78.6107 227.234 80.1753 230.641 82.3679 234.146L86.6066 231.494ZM82.3248 212.39L87.1204 213.805C89.077 207.174 94.9628 202.434 101.89 196.658L98.6887 192.818L95.4869 188.977C89.3893 194.061 80.5282 200.812 77.5293 210.975L82.3248 212.39ZM98.6887 192.818L101.895 196.654C114.226 186.349 124.933 173.063 126.626 155.343L121.649 154.867L116.672 154.392C115.339 168.338 106.905 179.435 95.4825 188.981L98.6887 192.818ZM121.649 154.867L126.633 155.271C126.734 154.016 126.831 152.762 126.923 151.508L121.937 151.141L116.95 150.773C116.86 152.005 116.765 153.235 116.665 154.464L121.649 154.867ZM121.937 151.141L126.921 151.542C127.032 150.159 127.144 148.775 127.255 147.392L122.272 146.989L117.288 146.586C117.176 147.971 117.064 149.355 116.953 150.74L121.937 151.141ZM122.272 146.989L127.256 147.382L127.427 145.213L122.442 144.82L117.458 144.428L117.287 146.597L122.272 146.989ZM122.442 144.82L127.427 145.217C130.813 102.717 142.71 65.7844 172.463 34.8847L168.862 31.4166L165.26 27.9485C133.411 61.0245 120.963 100.439 117.458 144.423L122.442 144.82ZM168.862 31.4166L172.528 34.8159L174.064 33.1599L170.397 29.7606L166.73 26.3613L165.195 28.0173L168.862 31.4166ZM170.397 29.7606L174.008 33.2188C179.074 27.9285 186.311 21.7901 194.168 17.1394C202.135 12.4241 210.114 9.60956 216.856 10.044L217.178 5.05435L217.499 0.0646981C207.808 -0.559803 197.725 3.41364 189.075 8.53371C180.315 13.7183 172.378 20.4625 166.786 26.3024L170.397 29.7606Z" fill="black" mask="url(#path-1-outside-1_1_274)"/>
</svg>
